<svg xmlns="http://www.w3.org/2000/svg" viewBox="0 0 500 500"><g id="freepik--background-complete--inject-5"><path d="M81.09,363.15c-7.69.14-18.89.44-26.48.44h-.44v-.45L54.11,352v-.5h.5c7.93,0,19,.07,26.76.23,0,3.39-.22,8-.28,11.46Zm0,0c-.1-3.28-.2-8-.27-11.19l.27.27c-7.65.14-18.71.21-26.48.23l.5-.5,0,11.19-.45-.45c7.49,0,18.89.29,26.48.45Z" style="fill:#ebebeb"></path><path d="M66.32,377.26c-7.69.14-18.89.44-26.48.44H39.4v-.45l-.06-11.19v-.5h.5c7.93,0,18.94.07,26.76.23,0,3.39-.22,8-.28,11.46Zm0,0c-.1-3.28-.2-8-.27-11.19l.27.27c-7.66.14-18.71.21-26.48.23l.5-.5-.05,11.19-.45-.45c7.49,0,18.89.29,26.48.45Z" style="fill:#ebebeb"></path><path d="M296.93,401.3c-7.68.15-18.89.45-26.48.45H270v-.45L270,390.11v-.5h.5c7.93,0,18.95.08,26.76.23,0,3.39-.22,8-.28,11.46Zm0,0c-.09-3.27-.2-8-.27-11.19l.27.27c-7.65.14-18.71.21-26.48.23l.5-.5-.05,11.19-.45-.44c7.49,0,18.9.29,26.48.44Z" style="fill:#ebebeb"></path><rect x="255.68" y="404.22" width="26.48" height="11.19" style="fill:#ebebeb"></rect><path d="M267.45,401.3c-7.69.15-18.89.45-26.48.45h-.44v-.45l-.05-11.19v-.5h.5c7.92,0,18.94.08,26.75.23,0,3.39-.21,8-.27,11.46Zm0,0c-.1-3.27-.2-8-.27-11.19l.27.27c-7.66.14-18.71.21-26.48.23l.5-.5-.06,11.19-.44-.44c7.49,0,18.89.29,26.48.44Z" style="fill:#ebebeb"></path><rect x="433.68" y="366.07" width="26.48" height="11.19" style="fill:#ebebeb"></rect><path d="M340.11,114.38c-7.69.15-18.89.45-26.48.45h-.45v-.45l-.05-11.19v-.5h.51c7.92,0,18.94.08,26.75.23,0,3.4-.21,8-.27,11.46Zm0,0c-.1-3.27-.21-8-.28-11.19l.28.28c-7.66.13-18.71.2-26.48.22l.49-.5-.05,11.19-.44-.44c7.48,0,18.89.29,26.48.44Z" style="fill:#ebebeb"></path><path d="M445.39,60.59c-7.69.15-18.89.45-26.48.45h-.45v-.45l0-11.19v-.5h.51c7.92,0,18.94.08,26.75.23,0,3.39-.21,8-.27,11.46Zm0,0c-.1-3.27-.21-8-.28-11.19l.28.27c-7.66.14-18.71.21-26.48.23l.5-.5-.06,11.19-.44-.44c7.48,0,18.89.29,26.48.44Z" style="fill:#ebebeb"></path><rect x="433.68" y="63.51" width="26.48" height="11.19" style="fill:#ebebeb"></rect><rect x="44.61" y="49.4" width="26.48" height="11.19" style="fill:#ebebeb"></rect><polygon points="118.01 431.63 318.99 431.63 323.17 349.17 113.83 349.17 118.01 431.63" style="fill:#ebebeb"></polygon><path d="M309.46,386.92h-84l-1.58-28.63H311.3Zm-83.06-1h82.11l1.71-26.6H224.94Z" style="fill:#dbdbdb"></path><path d="M307.91,419.85H228.73L227.44,394h82.08Zm-78.21-1H307L308.44,395H228.51Z" style="fill:#dbdbdb"></path><path d="M275.54,375.7H261.42l-.89-6.9h15.9Zm-13.23-1h12.34l.63-4.87h-13.6Z" style="fill:#dbdbdb"></path><path d="M275.54,410.38H261.42l-.89-6.9h15.9Zm-13.23-1h12.34l.63-4.88h-13.6Z" style="fill:#dbdbdb"></path><path d="M210.63,386.92h-84L125,358.29h87.44Zm-83.06-1h82.11l1.71-26.6H126.11Z" style="fill:#dbdbdb"></path><path d="M209.08,419.85H129.9L128.62,394H210.7Zm-78.21-1h77.26L209.62,395H129.68Z" style="fill:#dbdbdb"></path><path d="M176.71,375.7H162.59l-.89-6.9h15.9Zm-13.23-1h12.34l.63-4.87H162.86Z" style="fill:#dbdbdb"></path><path d="M176.71,410.38H162.59l-.89-6.9h15.9Zm-13.23-1h12.34l.63-4.88H162.86Z" style="fill:#dbdbdb"></path><polygon points="136.04 431.63 134.78 440.61 132.24 458.66 127.27 458.66 127.27 431.63 136.04 431.63" style="fill:#ebebeb"></polygon><polygon points="136.04 431.63 134.78 440.61 127.27 440.61 127.27 431.63 136.04 431.63" style="fill:#dbdbdb"></polygon><polygon points="300.96 431.63 302.22 440.61 304.76 458.66 309.73 458.66 309.73 431.63 300.96 431.63" style="fill:#ebebeb"></polygon><polygon points="300.96 431.63 302.22 440.61 309.73 440.61 309.73 431.63 300.96 431.63" style="fill:#dbdbdb"></polygon></g><g id="freepik--Floor--inject-5"><path d="M35.47,458.66c137.44-.61,291.62-.61,429.06,0-137.44.62-291.62.62-429.06,0Z" style="fill:#263238"></path></g><g id="freepik--screen-3--inject-5"><path d="M464.53,129.93V357.58c0,6.43-4.82,11.64-10.76,11.64H347.52c-5.95,0-10.77-5.21-10.77-11.64V129.93c0-13.11,4.82-13.75,10.77-13.75h21.29c1.24,0,2.25,1.4,2.25,3.14v.76c0,4.08,2.23,4.09,5,4.09h49.22c2.77,0,5,0,5-4.09v-.76c0-1.74,1-3.14,2.25-3.14h21.28C459.71,116.18,464.53,117.92,464.53,129.93Z" style="fill:#fff"></path><path d="M464.53,129.93c-.16,30.83.44,202.85-.13,230-1.22,6.36-6.58,10.11-13,9.41-26.66.13-67.52-.06-94.35,0h-8.84a11.12,11.12,0,0,1-11.06-8.24,20.52,20.52,0,0,1-.5-5.89v-5.89c.05-15.4,0-201.89.07-212.28.29-5.83-1.32-15.73,4-19.55,2.58-1.6,5.75-1.31,8.65-1.35,3.64,0,13.89,0,17.69,0,.89.06,2.14-.23,2.88.38,1.77,1.37.87,3.71,1.46,5.54.59,2.21,3.13,2.08,5,2.08h2.94c13.48,0,33.79,0,47.18,0,2.29.07,3.74-1.1,3.77-3.48,0-1.43-.08-3.11,1.18-4.1a2,2,0,0,1,1.39-.4h20.64c9.16-.45,11.13,5.82,11.12,13.76Zm0,0c0-7.79-1.9-14.23-11.12-13.75H432.77c-2.43-.07-2.59,2.66-2.54,4.47,0,2.43-1.49,3.55-3.8,3.51-13.36,0-33.73.06-47.18,0h-2.94c-1.85,0-4.44.1-5-2.12-.61-1.84.3-4.16-1.44-5.51a2,2,0,0,0-1.37-.36H367c-3.78,0-14,0-17.69,0-2.9,0-6-.25-8.59,1.34-5.25,3.75-3.64,13.74-3.93,19.47-.07,9.46.12,197.84.07,212.28.13,2.79-.38,8.89.48,11.71,1.3,4.73,5.83,8.41,10.83,8.08,1.76,0,7,0,8.84,0,26.88-.1,67.63.11,94.35,0,6.37.63,11.63-2.86,12.88-9.28.54-26,.12-200.07.28-229.93Z" style="fill:#263238"></path><g id="freepik--u5Zjqx--inject-5"><path d="M365.13,121.29a1.89,1.89,0,0,1-.2.2l-.12.12a2.78,2.78,0,0,0-2-.82,2.73,2.73,0,0,0-2,.82.57.57,0,0,1-.11-.11l-.21-.21h0v0l.26-.23a3.79,3.79,0,0,1,.6-.38,2.91,2.91,0,0,1,.8-.27l.4,0H363l.27,0a3.12,3.12,0,0,1,.73.18,3.22,3.22,0,0,1,.5.23,3.63,3.63,0,0,1,.47.33l.21.2Z" style="fill:#263238"></path><path d="M361.5,122.26l-.32-.32a2.24,2.24,0,0,1,1.32-.67,2.33,2.33,0,0,1,2,.66l-.33.33a1.88,1.88,0,0,0-2.66,0Z" style="fill:#263238"></path><path d="M363.83,122.58l-.32.33a.94.94,0,0,0-1.36,0l-.32-.33A1.41,1.41,0,0,1,363.83,122.58Z" style="fill:#263238"></path><path d="M363.12,123.2a.29.29,0,1,1-.29-.29A.29.29,0,0,1,363.12,123.2Z" style="fill:#263238"></path></g><path d="M345.08,121.91a.85.85,0,1,1,.85.85A.85.85,0,0,1,345.08,121.91Z" style="fill:#263238"></path><path d="M347.75,121.91a.85.85,0,1,1,.85.85A.85.85,0,0,1,347.75,121.91Z" style="fill:#263238"></path><path d="M350.42,121.91a.85.85,0,1,1,.84.85A.85.85,0,0,1,350.42,121.91Z" style="fill:#263238"></path><path d="M353.08,121.91a.85.85,0,1,1,.85.85A.85.85,0,0,1,353.08,121.91Z" style="fill:#263238"></path><path d="M355.75,121.91a.85.85,0,1,1,.85.85A.85.85,0,0,1,355.75,121.91Z" style="fill:#263238"></path><path d="M455,123.76h-6.9v-3.19H455Zm-6.54-.35h6.19v-2.49h-6.19Z" style="fill:#263238"></path><rect x="448.63" y="121.11" width="4.44" height="2.11" style="fill:#263238"></rect><rect x="454.95" y="121.31" width="0.61" height="1.71" style="fill:#263238"></rect><polygon points="347.63 148.42 345 145.54 347.63 142.66 348.37 143.33 346.36 145.54 348.37 147.75 347.63 148.42" style="fill:#dbdbdb"></polygon><rect x="396.31" y="141.55" width="8.97" height="8.97" transform="translate(801.58 292.07) rotate(180)" style="fill:#ebebeb"></rect><rect x="396.83" y="142.08" width="7.91" height="7.91" transform="translate(801.58 292.07) rotate(180)" style="fill:#219015"></rect><path d="M398.11,144a.74.74,0,0,0,.88.87.72.72,0,0,0,.58-.58.75.75,0,0,0-.88-.88A.74.74,0,0,0,398.11,144Z" style="fill:#020100;opacity:0.1"></path><polygon points="399.03 147.94 404.74 147.94 401.88 144.73 399.03 147.94" style="fill:#219015"></polygon><polygon points="399.03 147.94 404.74 147.94 401.88 144.73 399.03 147.94" style="fill:#020100;opacity:0.1"></polygon><polygon points="396.83 147.94 401.55 147.94 399.19 145.85 396.83 147.94" style="fill:#219015"></polygon><g style="opacity:0.2"><polygon points="396.83 147.94 401.55 147.94 399.19 145.85 396.83 147.94" style="fill:#020100"></polygon></g><rect x="396.83" y="147.94" width="7.91" height="2.05" style="fill:#219015"></rect><rect x="396.83" y="147.94" width="7.91" height="2.05" style="fill:#020100;opacity:0.2"></rect><rect x="439.59" y="142.81" width="16.01" height="6.45" style="fill:#219015"></rect><path d="M445.52,146.07a.11.11,0,1,1,0-.22h1a.1.1,0,0,1,.1.11v1.1a.12.12,0,0,1,0,.08,1.64,1.64,0,0,1-2.65-1.26,1.62,1.62,0,0,1,1.63-1.59,1.67,1.67,0,0,1,1,.36.11.11,0,0,1,0,.15.13.13,0,0,1-.16,0,1.39,1.39,0,1,0-.88,2.45,1.45,1.45,0,0,0,.84-.27v-.93Z" style="fill:#fff"></path><path d="M447.51,146.39a1.09,1.09,0,0,1,1.07-1.11,1.07,1.07,0,0,1,1.06,1h0v0a.1.1,0,0,1-.11.09h-1.81a.87.87,0,0,0,.86.85.83.83,0,0,0,.71-.4.11.11,0,0,1,.14,0,.13.13,0,0,1,0,.16,1.06,1.06,0,0,1-.89.5A1.08,1.08,0,0,1,447.51,146.39Zm.23-.18h1.67a.86.86,0,0,0-.83-.71A.85.85,0,0,0,447.74,146.21Z" style="fill:#fff"></path><path d="M451,145.39a.13.13,0,0,1-.11.11h-.28v1.6a.17.17,0,0,0,.16.17.12.12,0,0,1,.11.11.13.13,0,0,1-.11.11.38.38,0,0,1-.39-.39v-1.6h-.27c-.11,0-.11-.06-.11-.11s0-.11.11-.11h.27v-.82a.12.12,0,0,1,.23,0v.82h.28A.12.12,0,0,1,451,145.39Z" style="fill:#fff"></path><path d="M353.11,146.57a.31.31,0,0,1,.42,0,1.79,1.79,0,0,0,1.09.44,1.2,1.2,0,0,0,.71-.21.52.52,0,0,0,.25-.41.37.37,0,0,0-.05-.18.5.5,0,0,0-.18-.17,2.12,2.12,0,0,0-.78-.27h0a3,3,0,0,1-.73-.22,1.32,1.32,0,0,1-.54-.45,1,1,0,0,1-.13-.47,1.06,1.06,0,0,1,.46-.83,1.73,1.73,0,0,1,1-.3,2.27,2.27,0,0,1,1.24.45.3.3,0,0,1,.08.41.28.28,0,0,1-.4.09,1.64,1.64,0,0,0-.92-.37,1.1,1.1,0,0,0-.64.19.45.45,0,0,0-.22.36.25.25,0,0,0,0,.16.47.47,0,0,0,.16.15,1.81,1.81,0,0,0,.71.25h0a3.49,3.49,0,0,1,.79.24,1.41,1.41,0,0,1,.57.48.93.93,0,0,1,.14.48,1.11,1.11,0,0,1-.5.89,1.81,1.81,0,0,1-1.05.32,2.38,2.38,0,0,1-1.46-.57A.3.3,0,0,1,353.11,146.57Z" style="fill:#c7c7c7"></path><path d="M356.79,146.14a1.41,1.41,0,0,1,1.39-1.43,1.36,1.36,0,0,1,1.37,1.33v.08a.29.29,0,0,1-.3.23h-1.81a.66.66,0,0,0,.19.37.89.89,0,0,0,.55.26,1,1,0,0,0,.59-.14.32.32,0,0,1,.43,0,.26.26,0,0,1,0,.37,1.44,1.44,0,0,1-1,.38A1.42,1.42,0,0,1,356.79,146.14Zm.62-.28H359a.93.93,0,0,0-.84-.6A.78.78,0,0,0,357.41,145.86Z" style="fill:#c7c7c7"></path><path d="M362.88,146.15v1.11a.3.3,0,0,1-.6.06,1.28,1.28,0,0,1-.76.25,1.3,1.3,0,0,1-1-.42,1.49,1.49,0,0,1,0-2,1.31,1.31,0,0,1,1-.43,1.35,1.35,0,0,1,.76.25.3.3,0,0,1,.6.06Zm-.61,0a.82.82,0,0,0-.22-.59.69.69,0,0,0-.53-.24.66.66,0,0,0-.53.24.89.89,0,0,0,0,1.17.69.69,0,0,0,.53.23.72.72,0,0,0,.53-.23A.82.82,0,0,0,362.27,146.15Z" style="fill:#c7c7c7"></path><path d="M365.76,145a.3.3,0,0,1-.3.3.52.52,0,0,0-.35.11.84.84,0,0,0-.26.27,1.41,1.41,0,0,0-.23.48v1.08a.32.32,0,0,1-.32.31.31.31,0,0,1-.3-.31V145a.3.3,0,0,1,.3-.3.31.31,0,0,1,.32.3v0a.68.68,0,0,1,.12-.12,1.23,1.23,0,0,1,.72-.22A.29.29,0,0,1,365.76,145Z" style="fill:#c7c7c7"></path><path d="M366.17,146.15a1.45,1.45,0,0,1,1.44-1.44,1.48,1.48,0,0,1,.91.32.3.3,0,0,1,.06.42.29.29,0,0,1-.42.06.91.91,0,0,0-.55-.19.85.85,0,0,0-.84.83.83.83,0,0,0,.84.81.93.93,0,0,0,.55-.18.3.3,0,0,1,.36.48,1.53,1.53,0,0,1-.91.31A1.44,1.44,0,0,1,366.17,146.15Z" style="fill:#c7c7c7"></path><path d="M370.26,147.25a.32.32,0,0,1-.32.32.33.33,0,0,1-.3-.24.19.19,0,0,1,0-.08v-3.36a.32.32,0,1,1,.63,0v1a1.23,1.23,0,0,1,1.86,1.08v1.29a.32.32,0,0,1-.32.32.31.31,0,0,1-.31-.32V146a.62.62,0,0,0-1.23,0Z" style="fill:#c7c7c7"></path><path d="M348.32,163.07a.32.32,0,0,1-.2.4l-.13,0h0a.46.46,0,0,1-.23-.07.59.59,0,0,1-.18-.2,1.5,1.5,0,0,1-.12-.68.46.46,0,0,0-.07-.25.44.44,0,0,0-.17-.16,1.09,1.09,0,0,0-.32-.14h-.67v1.24a.31.31,0,0,1-.32.31.31.31,0,0,1-.31-.31v-3.37a.31.31,0,0,1,.31-.31h1a1.22,1.22,0,0,1,.78,2.16,1.34,1.34,0,0,1,.2.21,1.14,1.14,0,0,1,.19.62,1.39,1.39,0,0,0,0,.34A.29.29,0,0,1,348.32,163.07Zm-.8-2.29a.59.59,0,0,0-.59-.6h-.7v1.18h.7A.59.59,0,0,0,347.52,160.78Z" style="fill:#263238"></path><path d="M351.6,162.12v1.12a.3.3,0,0,1-.31.3.31.31,0,0,1-.29-.24,1.34,1.34,0,0,1-1.73-.17,1.46,1.46,0,0,1-.39-1,1.41,1.41,0,0,1,.39-1,1.28,1.28,0,0,1,1-.43,1.35,1.35,0,0,1,.76.25.31.31,0,0,1,.29-.25.31.31,0,0,1,.31.31Zm-.61,0a.84.84,0,0,0-.22-.59.72.72,0,0,0-.53-.23.69.69,0,0,0-.53.23.9.9,0,0,0,0,1.18.72.72,0,0,0,.53.22.75.75,0,0,0,.53-.22A.84.84,0,0,0,351,162.12Z" style="fill:#263238"></path><path d="M354,161a.32.32,0,0,1-.32.32h-.14v1.59a.32.32,0,0,1,.32.32.31.31,0,0,1-.32.31.63.63,0,0,1-.63-.63v-1.59h-.17a.32.32,0,0,1-.31-.32.31.31,0,0,1,.31-.31h.17v-.83a.32.32,0,0,1,.63,0v.83h.14A.31.31,0,0,1,354,161Z" style="fill:#263238"></path><path d="M355.63,160a.31.31,0,0,1-.31.31A.31.31,0,0,1,355,160v-.12a.31.31,0,0,1,.31-.31.31.31,0,0,1,.31.31Zm0,1v2.22a.3.3,0,0,1-.31.31.31.31,0,0,1-.31-.31V161a.31.31,0,0,1,.31-.31A.3.3,0,0,1,355.63,161Z" style="fill:#263238"></path><path d="M359,161.88v1.36a.29.29,0,0,1-.3.3.3.3,0,0,1-.3-.3v-1.36a.59.59,0,0,0-.59-.58.57.57,0,0,0-.57.58v1.36a.08.08,0,0,1,0,.06.3.3,0,0,1-.3.24.29.29,0,0,1-.3-.3V161a.3.3,0,0,1,.3-.3.31.31,0,0,1,.28.18,1.12,1.12,0,0,1,.61-.18A1.19,1.19,0,0,1,359,161.88Z" style="fill:#263238"></path><path d="M362.66,162.13v1.06a1.37,1.37,0,0,1-1.37,1.37,1.36,1.36,0,0,1-.6-.14.3.3,0,0,1-.13-.41.31.31,0,0,1,.41-.14.66.66,0,0,0,.32.08.76.76,0,0,0,.75-.61,1.36,1.36,0,0,1-.75.23,1.34,1.34,0,0,1-1-.44,1.44,1.44,0,0,1-.4-1,1.53,1.53,0,0,1,.4-1,1.35,1.35,0,0,1,1-.42,1.31,1.31,0,0,1,.77.24.3.3,0,0,1,.6.06v1.14Zm-.61,0a.84.84,0,0,0-.22-.58.69.69,0,0,0-.54-.25.67.67,0,0,0-.52.25.81.81,0,0,0-.23.58.83.83,0,0,0,.23.59.68.68,0,0,0,.52.23.71.71,0,0,0,.54-.23A.87.87,0,0,0,362.05,162.13Z" style="fill:#263238"></path><path d="M363.75,162.73a.28.28,0,0,1,.42,0,1,1,0,0,0,.63.25.72.72,0,0,0,.39-.11.21.21,0,0,0,.1-.17s0,0,0-.05,0,0-.07-.07a1.25,1.25,0,0,0-.46-.16h0a2.44,2.44,0,0,1-.5-.15,1,1,0,0,1-.39-.33.72.72,0,0,1-.1-.36.8.8,0,0,1,.34-.63,1.2,1.2,0,0,1,.7-.21,1.55,1.55,0,0,1,.86.31.34.34,0,0,1,.09.43.32.32,0,0,1-.43.08,1,1,0,0,0-.52-.22.55.55,0,0,0-.34.11c-.08,0-.09.1-.09.13s0,0,0,0,0,0,.06.06a1.25,1.25,0,0,0,.42.14h0a2.34,2.34,0,0,1,.53.17.87.87,0,0,1,.4.34.7.7,0,0,1,.11.37.8.8,0,0,1-.36.66,1.23,1.23,0,0,1-.74.23,1.61,1.61,0,0,1-1-.39A.29.29,0,0,1,363.75,162.73Z" style="fill:#263238"></path><path d="M371.2,161.45a.66.66,0,0,1-.24.55l-.07,0a.57.57,0,0,1,0,.13,1.37,1.37,0,1,1-2.74,0,1.33,1.33,0,0,1,.44-1,1.1,1.1,0,0,1-.16-.56,1.06,1.06,0,0,1,2.12,0,.3.3,0,0,1-.31.31.31.31,0,0,1-.32-.31.43.43,0,0,0-.43-.43.43.43,0,0,0-.24.78.31.31,0,0,1,.08.42h0s0,0,0,0l-.06.07h0l0,0a.74.74,0,0,0,.31,1.4.74.74,0,0,0,.75-.74v0c-.3,0-.41.07-.44.11a.14.14,0,0,0,0,.12v.07a.31.31,0,0,1-.21.39h-.09a.3.3,0,0,1-.3-.23.59.59,0,0,1,0-.24.76.76,0,0,1,.24-.57,1.22,1.22,0,0,1,.89-.29h.27l0,0v0a.32.32,0,0,0,0-.08.32.32,0,0,1,.24-.38.3.3,0,0,1,.37.24A.58.58,0,0,1,371.2,161.45Z" style="fill:#263238"></path><path d="M376.8,163.07a.31.31,0,0,1-.2.4l-.12,0h0a.43.43,0,0,1-.22-.07.52.52,0,0,1-.19-.2,1.52,1.52,0,0,1-.11-.68.57.57,0,0,0-.07-.25.65.65,0,0,0-.17-.16,1.21,1.21,0,0,0-.32-.14h-.68v1.24a.32.32,0,0,1-.63,0v-3.37a.31.31,0,0,1,.31-.31h1a1.22,1.22,0,0,1,.78,2.16,1.34,1.34,0,0,1,.2.21,1.14,1.14,0,0,1,.19.62,1.39,1.39,0,0,0,0,.34A.27.27,0,0,1,376.8,163.07Zm-.8-2.29a.59.59,0,0,0-.59-.6h-.7v1.18h.7A.59.59,0,0,0,376,160.78Z" style="fill:#263238"></path><path d="M377.41,162.12a1.42,1.42,0,0,1,1.39-1.43,1.37,1.37,0,0,1,1.38,1.32v0s0,0,0,.05a.28.28,0,0,1-.29.23h-1.82a.81.81,0,0,0,.19.38.89.89,0,0,0,.55.26,1,1,0,0,0,.6-.15.31.31,0,0,1,.42,0,.26.26,0,0,1,0,.37,1.46,1.46,0,0,1-1,.37A1.41,1.41,0,0,1,377.41,162.12Zm.62-.28h1.62a.94.94,0,0,0-.85-.61A.8.8,0,0,0,378,161.84Z" style="fill:#263238"></path><path d="M383.2,161.15l-.94,2.21a.05.05,0,0,1,0,0h0l0,0h0l0,0h0l0,0h-.25l-.05,0h0l0,0h0l0,0h0l0,0-.92-2.21a.29.29,0,0,1,.16-.39.29.29,0,0,1,.38.16l.66,1.56.66-1.56a.29.29,0,0,1,.38-.16A.29.29,0,0,1,383.2,161.15Z" style="fill:#263238"></path><path d="M384.89,160a.31.31,0,1,1-.61,0v-.12a.31.31,0,1,1,.61,0Zm0,1v2.22a.31.31,0,1,1-.61,0V161a.31.31,0,1,1,.61,0Z" style="fill:#263238"></path><path d="M385.67,162.12a1.42,1.42,0,0,1,1.4-1.43,1.35,1.35,0,0,1,1.37,1.32v.08a.28.28,0,0,1-.3.23h-1.81a.72.72,0,0,0,.19.38.89.89,0,0,0,.55.26,1,1,0,0,0,.59-.15.32.32,0,0,1,.43,0,.26.26,0,0,1,0,.37,1.47,1.47,0,0,1-1,.37A1.42,1.42,0,0,1,385.67,162.12Zm.63-.28h1.61a.94.94,0,0,0-.84-.61A.78.78,0,0,0,386.3,161.84Z" style="fill:#263238"></path><path d="M392.88,161.15l-.94,2.21s0,0,0,0h0l0,0h0l0,0a0,0,0,0,1,0,0l-.05,0h-.24l-.05,0h0l0,0h0l0,0h0s0,0,0,0l-.42-1-.4,1,0,0h0l0,0h0l0,0-.05,0h-.24l-.06,0h0l0,0h0a.05.05,0,0,0,0,0h0s0,0,0,0l-.94-2.21a.3.3,0,0,1,.17-.4.28.28,0,0,1,.37.17l.68,1.54.4-1a.29.29,0,0,1,.27-.19.28.28,0,0,1,.28.19l.41,1,.67-1.54a.29.29,0,0,1,.38-.17A.3.3,0,0,1,392.88,161.15Z" style="fill:#263238"></path><path d="M393.91,162.73a.28.28,0,0,1,.42,0,1,1,0,0,0,.63.25.72.72,0,0,0,.39-.11.21.21,0,0,0,.1-.17s0,0,0-.05a.19.19,0,0,0-.08-.07,1.26,1.26,0,0,0-.45-.16h0a2.44,2.44,0,0,1-.5-.15,1,1,0,0,1-.39-.33.72.72,0,0,1-.1-.36.8.8,0,0,1,.34-.63,1.2,1.2,0,0,1,.7-.21,1.55,1.55,0,0,1,.86.31.34.34,0,0,1,.09.43.31.31,0,0,1-.42.08,1,1,0,0,0-.53-.22.55.55,0,0,0-.34.11c-.08,0-.09.1-.09.13s0,0,0,0,0,0,.06.06a1.34,1.34,0,0,0,.42.14h0a2.34,2.34,0,0,1,.53.17,1,1,0,0,1,.41.34.79.79,0,0,1,.1.37.8.8,0,0,1-.36.66,1.23,1.23,0,0,1-.74.23,1.61,1.61,0,0,1-1-.39A.29.29,0,0,1,393.91,162.73Z" style="fill:#263238"></path><path d="M352,186.6a.75.75,0,0,1-.21-.53.81.81,0,0,1,.21-.54.74.74,0,0,1,.53-.23.7.7,0,0,1,.51.23.76.76,0,0,1,.21.54.71.71,0,0,1-.21.53.67.67,0,0,1-.51.24A.71.71,0,0,1,352,186.6Zm.13-.53a.5.5,0,0,0,.11.32.4.4,0,0,0,.29.11.41.41,0,0,0,.28-.11.45.45,0,0,0,.12-.32.44.44,0,0,0-.12-.32.42.42,0,0,0-.28-.12.41.41,0,0,0-.29.12A.48.48,0,0,0,352.09,186.07Z" style="fill:#c7c7c7"></path><path d="M354.28,186.83a.64.64,0,0,1-.63-.64v-.73a.16.16,0,1,1,.32,0v.73a.32.32,0,0,0,.63,0v-.73a.16.16,0,0,1,.16-.16.17.17,0,0,1,.17.16v.73A.65.65,0,0,1,354.28,186.83Z" style="fill:#c7c7c7"></path><path d="M356.23,185.47a.18.18,0,0,1-.17.17H356v.85a.16.16,0,0,1,.16.17.17.17,0,0,1-.16.17.34.34,0,0,1-.34-.34v-.85h-.09a.17.17,0,0,1-.17-.17.16.16,0,0,1,.17-.17h.09v-.44a.16.16,0,0,1,.17-.17.17.17,0,0,1,.17.17v.44h.07A.17.17,0,0,1,356.23,185.47Z" style="fill:#c7c7c7"></path><path d="M357.82,186.6a.75.75,0,0,1-.21-.53.81.81,0,0,1,.21-.54.72.72,0,0,1,.52-.23.68.68,0,0,1,.51.23.77.77,0,0,1,.22.54.72.72,0,0,1-.22.53.66.66,0,0,1-.51.24A.69.69,0,0,1,357.82,186.6Zm.12-.53a.5.5,0,0,0,.11.32.44.44,0,0,0,.29.11.39.39,0,0,0,.28-.11.45.45,0,0,0,.12-.32.44.44,0,0,0-.12-.32.4.4,0,0,0-.28-.12.45.45,0,0,0-.29.12A.48.48,0,0,0,357.94,186.07Z" style="fill:#c7c7c7"></path><path d="M360,185.2v0h.1a.17.17,0,0,1,0,.34H360v1.08a.16.16,0,0,1-.16.16.16.16,0,0,1-.17-.16v-1.08h-.08a.17.17,0,1,1,0-.34h.08v0a.6.6,0,0,1,.06-.3.38.38,0,0,1,.22-.19.55.55,0,0,1,.18,0,.17.17,0,0,1,.17.16.18.18,0,0,1-.17.18H360A.33.33,0,0,0,360,185.2Z" style="fill:#c7c7c7"></path><path d="M362.53,185.53a.75.75,0,0,1,.22.54.73.73,0,0,1-.22.53.75.75,0,0,1-.53.23h0a.74.74,0,0,1-.53-.23.17.17,0,0,1,.24-.24.42.42,0,0,0,.3.12.41.41,0,0,0,.41-.41.4.4,0,0,0-.12-.29.38.38,0,0,0-.29-.12.39.39,0,0,0-.3.12.18.18,0,0,1-.24,0l0,0h0v0s0,0,0,0h0v-.05l.09-.79a.2.2,0,0,1,.08-.12h0l.08,0h.9a.17.17,0,0,1,.17.17.16.16,0,0,1-.17.17h-.75l0,.31a.76.76,0,0,1,.21,0A.74.74,0,0,1,362.53,185.53Z" style="fill:#c7c7c7"></path><path d="M437,184.91l-.3.17,0,0a.07.07,0,0,1-.06,0,.08.08,0,0,1,0-.1l.42-.25a.07.07,0,0,1,.1,0,.07.07,0,0,1,0,0v2a.08.08,0,0,1-.08.08.08.08,0,0,1-.07-.08Z" style="fill:#c7c7c7"></path><path d="M437.66,187.06c.11-.06.16-.13.15-.23a.12.12,0,0,1-.09-.11v-.06a.11.11,0,0,1,.11-.11.11.11,0,0,1,.1.11v.07a.37.37,0,0,1-.24.42,0,0,0,0,1-.05-.05A.08.08,0,0,1,437.66,187.06Z" style="fill:#c7c7c7"></path><path d="M438.62,186.72l.79-1.87h-1a.08.08,0,0,1-.07-.07.08.08,0,0,1,.07-.08h1.18s0,0,0,0v0a0,0,0,0,1,0,0l-.83,2a.07.07,0,0,1-.06.05h0A.09.09,0,0,1,438.62,186.72Z" style="fill:#c7c7c7"></path><path d="M440,186.62a.08.08,0,0,1,.11-.11.57.57,0,0,0,.4.16.55.55,0,0,0,.4-.16.56.56,0,0,0,.17-.41.55.55,0,0,0-.16-.4.57.57,0,0,0-.81,0,.08.08,0,0,1-.11,0l0,0h0v0l.1-.86a.09.09,0,0,1,0,0l.05,0h1a.07.07,0,0,1,.07.08.07.07,0,0,1-.07.07h-.93l-.08.64a.68.68,0,0,1,.36-.1.71.71,0,0,1,.51.21.67.67,0,0,1,.21.51.69.69,0,0,1-.21.52.77.77,0,0,1-.51.21A.73.73,0,0,1,440,186.62Z" style="fill:#c7c7c7"></path><path d="M443.06,186.39h-1.17l0,0a.06.06,0,0,1,0-.1l1.24-1.54h0a.06.06,0,0,1,.1,0l0,0v0h0v1.46h.14a.07.07,0,0,1,.08.07.08.08,0,0,1-.08.08h-.14v.36a.08.08,0,0,1-.08.08.08.08,0,0,1-.07-.08Zm0-.15V185l-1,1.25Z" style="fill:#c7c7c7"></path><path d="M446,186.34a.39.39,0,0,0-.17-.32.78.78,0,0,0-.25-.11H445v.84a.09.09,0,0,1-.08.08.08.08,0,0,1-.07-.08v-2a.08.08,0,0,1,.07-.07h.61a.61.61,0,0,1,.25,1.16l0,0a.54.54,0,0,1,.29.47.65.65,0,0,0,0,.25s0,0,0,0a.09.09,0,0,1,.08.05.09.09,0,0,1,0,.1h0a.17.17,0,0,1-.14-.1A.7.7,0,0,1,446,186.34Zm-.42-1.5H445v.92h.54a.46.46,0,0,0,0-.92Z" style="fill:#c7c7c7"></path><path d="M448.05,185.4v1.35a.09.09,0,0,1-.08.08.08.08,0,0,1-.07-.08v-.22a.69.69,0,0,1-.56.3.75.75,0,0,1,0-1.5.71.71,0,0,1,.56.29v-.22a.07.07,0,0,1,.07-.07A.08.08,0,0,1,448.05,185.4Zm-.15.68a.56.56,0,1,0-.56.6A.58.58,0,0,0,447.9,186.08Z" style="fill:#c7c7c7"></path><path d="M449.2,185.4a.09.09,0,0,1-.08.08h-.19v1.09a.13.13,0,0,0,.11.11.08.08,0,1,1,0,.15.25.25,0,0,1-.26-.26v-1.09h-.19c-.07,0-.07,0-.07-.08s0-.07.07-.07h.19v-.55a.08.08,0,1,1,.15,0v.55h.19A.09.09,0,0,1,449.2,185.4Z" style="fill:#c7c7c7"></path><path d="M449.9,184.92a.08.08,0,0,1,.07-.08.09.09,0,0,1,.08.08V185a.09.09,0,0,1-.08.08.08.08,0,0,1-.07-.08Zm0,.48a.07.07,0,0,1,.07-.07.08.08,0,0,1,.08.07v1.35a.09.09,0,0,1-.08.08.08.08,0,0,1-.07-.08Z" style="fill:#c7c7c7"></path><path d="M451.82,185.94a.47.47,0,0,0-.46-.46.47.47,0,0,0-.47.46v.83a0,0,0,0,1,0,0,.06.06,0,0,1-.06,0h0a.11.11,0,0,1-.05,0h0v-1.36a.07.07,0,1,1,.14,0v.14a.62.62,0,0,1,.47-.22.61.61,0,0,1,.6.61v.81a.07.07,0,1,1-.14,0Z" style="fill:#c7c7c7"></path><path d="M453.92,186.71a.7.7,0,0,1-.7.7.78.78,0,0,1-.31-.07.08.08,0,0,1,0-.1.06.06,0,0,1,.09,0,.7.7,0,0,0,.25,0,.55.55,0,0,0,.56-.55v-.19a.69.69,0,0,1-.56.3.75.75,0,0,1,0-1.49.71.71,0,0,1,.56.29v-.22a.07.07,0,1,1,.14,0Zm-.14-.64a.56.56,0,1,0-.56.6A.57.57,0,0,0,453.78,186.07Z" style="fill:#c7c7c7"></path><path d="M454.52,186.51a.08.08,0,0,1,.11,0,.84.84,0,0,0,.45.17.5.5,0,0,0,.29-.09.24.24,0,0,0,.11-.18.26.26,0,0,0-.1-.19.91.91,0,0,0-.32-.11h0a1,1,0,0,1-.34-.12.31.31,0,0,1-.16-.27.39.39,0,0,1,.16-.29.67.67,0,0,1,.37-.1.8.8,0,0,1,.44.16.08.08,0,0,1,0,.11.08.08,0,0,1-.1,0,.61.61,0,0,0-.37-.15.5.5,0,0,0-.29.08.22.22,0,0,0-.09.17.16.16,0,0,0,.09.15.61.61,0,0,0,.3.11h0a1,1,0,0,1,.36.12.37.37,0,0,1,.17.31.39.39,0,0,1-.17.3.69.69,0,0,1-.38.12,1,1,0,0,1-.55-.22S454.5,186.55,454.52,186.51Z" style="fill:#c7c7c7"></path><path d="M354.54,178a.87.87,0,0,1-.88.87h-.16v1.19a.87.87,0,1,1-1.73,0v-1.19h-5a.8.8,0,0,1-.54-.19.85.85,0,0,1-.14-1.22l5.83-7.25s0,0,0,0a.15.15,0,0,0,0-.06c.05,0,.07,0,.08,0a.15.15,0,0,0,.06-.05s.05,0,.1,0,0-.05.06-.05l.1,0h.41s.06,0,.09,0l.07,0,.07.06.08.05a0,0,0,0,1,0,0s.05,0,.05,0l.06.06a.15.15,0,0,0,.05.06l.06.08a.11.11,0,0,0,0,.07.19.19,0,0,1,0,.09s0,0,0,.06a.31.31,0,0,1,0,.1s0,0,0,.08v6.41h.16A.88.88,0,0,1,354.54,178Zm-2.77-4.76-3.14,3.89h3.14Z" style="fill:#263238"></path><path d="M358,178.73a1.2,1.2,0,0,1,1.19,1.18,1.18,1.18,0,0,1-1.19,1.17,1.16,1.16,0,0,1-1.16-1.17A1.18,1.18,0,0,1,358,178.73Z" style="fill:#263238"></path><path d="M366,174.29a3.85,3.85,0,0,1,1.15,2.77,3.93,3.93,0,0,1-3.91,3.91h0a3.82,3.82,0,0,1-2.74-1.15.85.85,0,0,1,0-1.26.89.89,0,0,1,1.26,0,2,2,0,0,0,1.51.63,2.06,2.06,0,0,0,1.5-.63,2.14,2.14,0,0,0,.63-1.5,2.07,2.07,0,0,0-.63-1.51,2,2,0,0,0-1.5-.62,2.09,2.09,0,0,0-1.51.62.89.89,0,0,1-1.26,0c-.07-.06-.11-.14-.18-.21s0,0,0,0a.15.15,0,0,0,0-.08c0-.05,0-.08,0-.11s0,0,0,0a1.22,1.22,0,0,1,0-.27l.48-4.08a1,1,0,0,1,.39-.63l.07,0s0,0,0,0a.91.91,0,0,1,.41-.09h4.65a.89.89,0,1,1,0,1.78h-3.88l-.18,1.56a3.74,3.74,0,0,1,1.05-.14A3.88,3.88,0,0,1,366,174.29Z" style="fill:#263238"></path><path d="M346,195c27.32-.12,82.3-.12,109.62,0-27.32.12-82.31.12-109.62,0Z" style="fill:#ebebeb"></path><polygon points="388.89 170.04 389.16 170.45 389.64 170.59 389.34 170.98 389.36 171.48 388.89 171.31 388.42 171.48 388.44 170.98 388.13 170.59 388.61 170.45 388.89 170.04" style="fill:#c7c7c7"></polygon><polygon points="391.19 170.04 391.46 170.45 391.94 170.59 391.63 170.98 391.65 171.48 391.19 171.31 390.72 171.48 390.73 170.98 390.43 170.59 390.91 170.45 391.19 170.04" style="fill:#c7c7c7"></polygon><polygon points="393.48 170.04 393.76 170.45 394.24 170.59 393.93 170.98 393.95 171.48 393.48 171.31 393.01 171.48 393.03 170.98 392.72 170.59 393.2 170.45 393.48 170.04" style="fill:#c7c7c7"></polygon><polygon points="395.78 170.04 396.06 170.45 396.54 170.59 396.23 170.98 396.25 171.48 395.78 171.31 395.31 171.48 395.33 170.98 395.02 170.59 395.5 170.45 395.78 170.04" style="fill:#c7c7c7"></polygon><polygon points="398.08 170.04 398.36 170.45 398.84 170.59 398.53 170.98 398.55 171.48 398.08 171.31 397.61 171.48 397.63 170.98 397.32 170.59 397.8 170.45 398.08 170.04" style="fill:#c7c7c7"></polygon><rect x="401.55" y="170.41" width="54.01" height="0.7" style="fill:#ebebeb"></rect><rect x="401.55" y="170.41" width="37.51" height="0.7" style="fill:#c7c7c7"></rect><polygon points="391.19 172.85 391.46 173.26 391.94 173.4 391.63 173.79 391.65 174.29 391.19 174.12 390.72 174.29 390.73 173.79 390.43 173.4 390.91 173.26 391.19 172.85" style="fill:#c7c7c7"></polygon><polygon points="393.48 172.85 393.76 173.26 394.24 173.4 393.93 173.79 393.95 174.29 393.48 174.12 393.01 174.29 393.03 173.79 392.72 173.4 393.2 173.26 393.48 172.85" style="fill:#c7c7c7"></polygon><polygon points="395.78 172.85 396.06 173.26 396.54 173.4 396.23 173.79 396.25 174.29 395.78 174.12 395.31 174.29 395.33 173.79 395.02 173.4 395.5 173.26 395.78 172.85" style="fill:#c7c7c7"></polygon><polygon points="398.08 172.85 398.36 173.26 398.84 173.4 398.53 173.79 398.55 174.29 398.08 174.12 397.61 174.29 397.63 173.79 397.32 173.4 397.8 173.26 398.08 172.85" style="fill:#c7c7c7"></polygon><rect x="401.55" y="173.22" width="54.01" height="0.7" style="fill:#ebebeb"></rect><rect x="401.55" y="173.22" width="19.89" height="0.7" style="fill:#c7c7c7"></rect><polygon points="393.48 175.66 393.76 176.07 394.24 176.21 393.93 176.6 393.95 177.1 393.48 176.93 393.01 177.1 393.03 176.6 392.72 176.21 393.2 176.07 393.48 175.66" style="fill:#c7c7c7"></polygon><polygon points="395.78 175.66 396.06 176.07 396.54 176.21 396.23 176.6 396.25 177.1 395.78 176.93 395.31 177.1 395.33 176.6 395.02 176.21 395.5 176.07 395.78 175.66" style="fill:#c7c7c7"></polygon><polygon points="398.08 175.66 398.36 176.07 398.84 176.21 398.53 176.6 398.55 177.1 398.08 176.93 397.61 177.1 397.63 176.6 397.32 176.21 397.8 176.07 398.08 175.66" style="fill:#c7c7c7"></polygon><rect x="401.55" y="176.03" width="54.01" height="0.7" style="fill:#ebebeb"></rect><rect x="401.55" y="176.03" width="7.43" height="0.7" style="fill:#c7c7c7"></rect><polygon points="395.78 178.47 396.06 178.88 396.54 179.02 396.23 179.41 396.25 179.91 395.78 179.74 395.31 179.91 395.33 179.41 395.02 179.02 395.5 178.88 395.78 178.47" style="fill:#c7c7c7"></polygon><polygon points="398.08 178.47 398.36 178.88 398.84 179.02 398.53 179.41 398.55 179.91 398.08 179.74 397.61 179.91 397.63 179.41 397.32 179.02 397.8 178.88 398.08 178.47" style="fill:#c7c7c7"></polygon><rect x="401.55" y="178.84" width="54.01" height="0.7" style="fill:#ebebeb"></rect><rect x="401.55" y="178.84" width="1.03" height="0.7" style="fill:#c7c7c7"></rect><polygon points="398.08 181.28 398.36 181.69 398.84 181.83 398.53 182.22 398.55 182.72 398.08 182.55 397.61 182.72 397.63 182.22 397.32 181.83 397.8 181.69 398.08 181.28" style="fill:#c7c7c7"></polygon><rect x="401.55" y="181.65" width="54.01" height="0.7" style="fill:#ebebeb"></rect><rect x="401.55" y="181.65" width="2.59" height="0.7" style="fill:#c7c7c7"></rect><rect x="345.68" y="205.82" width="109.95" height="29.27" style="fill:#ebebeb"></rect><polygon points="351.54 212.86 352.11 213.7 353.09 213.98 352.46 214.78 352.5 215.79 351.54 215.44 350.59 215.79 350.62 214.78 350 213.98 350.98 213.7 351.54 212.86" style="fill:#c7c7c7"></polygon><polygon points="356.22 212.86 356.79 213.7 357.77 213.98 357.14 214.78 357.18 215.79 356.22 215.44 355.27 215.79 355.3 214.78 354.68 213.98 355.65 213.7 356.22 212.86" style="fill:#c7c7c7"></polygon><polygon points="360.9 212.86 361.47 213.7 362.45 213.98 361.82 214.78 361.86 215.79 360.9 215.44 359.95 215.79 359.98 214.78 359.36 213.98 360.33 213.7 360.9 212.86" style="fill:#c7c7c7"></polygon><polygon points="365.58 212.86 366.15 213.7 367.13 213.98 366.5 214.78 366.54 215.79 365.58 215.44 364.63 215.79 364.66 214.78 364.04 213.98 365.01 213.7 365.58 212.86" style="fill:#c7c7c7"></polygon><path d="M371.35,216l-1.09-.4-1.09.4.05-1.16-.72-.91,1.12-.32.64-1,.65,1,1.11.32-.72.91Zm-1.09-.67.82.3,0-.87.54-.69-.84-.24-.49-.73-.49.73-.84.24.54.69,0,.87Z" style="fill:#c7c7c7"></path><polygon points="370.26 215.44 370.26 212.86 369.69 213.7 368.72 213.98 369.34 214.78 369.31 215.79 370.26 215.44" style="fill:#c7c7c7"></polygon><path d="M350,209.76c10.85-.32,22.79-.33,33.64,0-10.85.33-22.79.33-33.64,0Z" style="fill:#263238"></path><path d="M350.23,221.29c32.3-.31,68.54-.31,100.84,0-32.3.31-68.54.31-100.84,0Z" style="fill:#c7c7c7"></path><path d="M350.23,224.2c32.3-.31,68.54-.31,100.84,0-32.3.31-68.54.31-100.84,0Z" style="fill:#c7c7c7"></path><path d="M350.23,227.11c32.3-.31,68.54-.31,100.84,0-32.3.31-68.54.31-100.84,0Z" style="fill:#c7c7c7"></path><path d="M350.23,230c25.68-.31,54.48-.31,80.16,0-25.68.31-54.48.31-80.16,0Z" style="fill:#c7c7c7"></path><rect x="345.68" y="241.06" width="109.95" height="22.68" style="fill:#ebebeb"></rect><polygon points="351.54 248.1 352.11 248.94 353.09 249.22 352.46 250.02 352.5 251.04 351.54 250.69 350.59 251.04 350.62 250.02 350 249.22 350.98 248.94 351.54 248.1" style="fill:#c7c7c7"></polygon><polygon points="356.22 248.1 356.79 248.94 357.77 249.22 357.14 250.02 357.18 251.04 356.22 250.69 355.27 251.04 355.3 250.02 354.68 249.22 355.65 248.94 356.22 248.1" style="fill:#c7c7c7"></polygon><polygon points="360.9 248.1 361.47 248.94 362.45 249.22 361.82 250.02 361.86 251.04 360.9 250.69 359.95 251.04 359.98 250.02 359.36 249.22 360.33 248.94 360.9 248.1" style="fill:#c7c7c7"></polygon><polygon points="365.58 248.1 366.15 248.94 367.13 249.22 366.5 250.02 366.54 251.04 365.58 250.69 364.63 251.04 364.66 250.02 364.04 249.22 365.01 248.94 365.58 248.1" style="fill:#c7c7c7"></polygon><polygon points="370.26 248.1 370.83 248.94 371.81 249.22 371.18 250.02 371.21 251.04 370.26 250.69 369.31 251.04 369.34 250.02 368.72 249.22 369.69 248.94 370.26 248.1" style="fill:#c7c7c7"></polygon><path d="M350,245c10.85-.33,22.79-.33,33.64,0-10.85.33-22.79.32-33.64,0Z" style="fill:#263238"></path><path d="M350.23,256.53c32.3-.3,68.54-.3,100.84,0-32.3.31-68.54.31-100.84,0Z" style="fill:#c7c7c7"></path><path d="M350.23,259.44c32.3-.3,68.54-.3,100.84,0-32.3.31-68.54.31-100.84,0Z" style="fill:#c7c7c7"></path><rect x="345.68" y="268.71" width="109.95" height="29.27" style="fill:#ebebeb"></rect><polygon points="351.54 275.74 352.11 276.59 353.09 276.87 352.46 277.67 352.5 278.68 351.54 278.33 350.59 278.68 350.62 277.67 350 276.87 350.98 276.59 351.54 275.74" style="fill:#c7c7c7"></polygon><polygon points="356.22 275.74 356.79 276.59 357.77 276.87 357.14 277.67 357.18 278.68 356.22 278.33 355.27 278.68 355.3 277.67 354.68 276.87 355.65 276.59 356.22 275.74" style="fill:#c7c7c7"></polygon><polygon points="360.9 275.74 361.47 276.59 362.45 276.87 361.82 277.67 361.86 278.68 360.9 278.33 359.95 278.68 359.98 277.67 359.36 276.87 360.33 276.59 360.9 275.74" style="fill:#c7c7c7"></polygon><path d="M366.67,278.86l-1.09-.4-1.09.4.05-1.15-.72-.91,1.12-.32.64-1,.65,1,1.11.32-.72.91Zm-2.42-1.93.54.69,0,.88.82-.3.82.3,0-.88.54-.69-.84-.23-.49-.73-.49.73Z" style="fill:#c7c7c7"></path><path d="M371.35,278.86l-1.09-.4-1.09.4.05-1.15-.72-.91,1.12-.32.64-1,.65,1,1.11.32-.72.91Zm-1.09-.66.82.3,0-.88.54-.69-.84-.23-.49-.73-.49.73-.84.23.54.69,0,.88Z" style="fill:#c7c7c7"></path><path d="M350,272.65c10.85-.33,22.79-.33,33.64,0-10.85.33-22.79.33-33.64,0Z" style="fill:#263238"></path><path d="M350.23,284.18c32.3-.31,68.54-.31,100.84,0-32.3.31-68.54.3-100.84,0Z" style="fill:#c7c7c7"></path><path d="M350.23,287.09c32.3-.31,68.54-.31,100.84,0-32.3.31-68.54.3-100.84,0Z" style="fill:#c7c7c7"></path><path d="M350.23,290c32.3-.31,68.54-.31,100.84,0-32.3.31-68.54.3-100.84,0Z" style="fill:#c7c7c7"></path><path d="M350.23,292.91c25.68-.31,54.48-.31,80.16,0-25.68.31-54.48.3-80.16,0Z" style="fill:#c7c7c7"></path><rect x="345.68" y="303.95" width="109.95" height="29.27" style="fill:#ebebeb"></rect><polygon points="351.54 310.99 352.11 311.83 353.09 312.11 352.46 312.91 352.5 313.92 351.54 313.57 350.59 313.92 350.62 312.91 350 312.11 350.98 311.83 351.54 310.99" style="fill:#c7c7c7"></polygon><path d="M355.13,314.11l.05-1.16-.72-.91,1.12-.32.64-1,.65,1L358,312l-.72.91.05,1.16-1.09-.4Zm1.09-.67.82.3,0-.87.54-.69-.84-.24-.49-.73-.49.73-.84.24.54.69,0,.87Z" style="fill:#c7c7c7"></path><path d="M362,314.11l-1.09-.4-1.09.4.05-1.16-.72-.91,1.12-.32.64-1,.65,1,1.11.32-.72.91Zm-2.42-1.93.54.69,0,.87.82-.3.82.3,0-.87.54-.69-.84-.24-.49-.73-.49.73Z" style="fill:#c7c7c7"></path><path d="M366.67,314.11l-1.09-.4-1.09.4.05-1.16-.72-.91,1.12-.32.64-1,.65,1,1.11.32-.72.91Zm-2.42-1.93.54.69,0,.87.82-.3.82.3,0-.87.54-.69-.84-.24-.49-.73-.49.73Z" style="fill:#c7c7c7"></path><path d="M371.35,314.11l-1.09-.4-1.09.4.05-1.16-.72-.91,1.12-.32.64-1,.65,1L372,312l-.72.91Zm-1.09-.67.82.3,0-.87.54-.69-.84-.24-.49-.73-.49.73-.84.24.54.69,0,.87Z" style="fill:#c7c7c7"></path><path d="M350,307.89c10.85-.32,22.79-.33,33.64,0-10.85.33-22.79.33-33.64,0Z" style="fill:#263238"></path><path d="M350.23,319.42c32.3-.31,68.54-.31,100.84,0-32.3.31-68.54.31-100.84,0Z" style="fill:#c7c7c7"></path><path d="M350.23,322.33c32.3-.31,68.54-.31,100.84,0-32.3.31-68.54.31-100.84,0Z" style="fill:#c7c7c7"></path><path d="M350.23,325.24c32.3-.31,68.54-.31,100.84,0-32.3.31-68.54.31-100.84,0Z" style="fill:#c7c7c7"></path><path d="M350.23,328.15c25.68-.31,54.48-.31,80.16,0-25.68.31-54.48.31-80.16,0Z" style="fill:#c7c7c7"></path><rect x="345.68" y="339.19" width="109.95" height="23.15" style="fill:#ebebeb"></rect><polygon points="351.54 346.23 352.11 347.07 353.09 347.35 352.46 348.15 352.5 349.17 351.54 348.82 350.59 349.17 350.62 348.15 350 347.35 350.98 347.07 351.54 346.23" style="fill:#c7c7c7"></polygon><polygon points="356.22 346.23 356.79 347.07 357.77 347.35 357.14 348.15 357.18 349.17 356.22 348.82 355.27 349.17 355.3 348.15 354.68 347.35 355.65 347.07 356.22 346.23" style="fill:#c7c7c7"></polygon><polygon points="360.9 346.23 361.47 347.07 362.45 347.35 361.82 348.15 361.86 349.17 360.9 348.82 359.95 349.17 359.98 348.15 359.36 347.35 360.33 347.07 360.9 346.23" style="fill:#c7c7c7"></polygon><polygon points="365.58 346.23 366.15 347.07 367.13 347.35 366.5 348.15 366.54 349.17 365.58 348.82 364.63 349.17 364.66 348.15 364.04 347.35 365.01 347.07 365.58 346.23" style="fill:#c7c7c7"></polygon><path d="M371.35,349.35l-1.09-.4-1.09.4.05-1.16-.72-.91,1.12-.31.64-1,.65,1,1.11.31-.72.91Zm-1.09-.67.82.31,0-.88.54-.69-.84-.24-.49-.73-.49.73-.84.24.54.69,0,.88Z" style="fill:#c7c7c7"></path><polygon points="370.26 348.82 370.26 346.23 369.69 347.07 368.72 347.35 369.34 348.15 369.31 349.17 370.26 348.82" style="fill:#c7c7c7"></polygon><path d="M350,343.14c10.85-.33,22.79-.33,33.64,0-10.85.33-22.79.32-33.64,0Z" style="fill:#263238"></path><path d="M350.23,354.66c32.3-.3,68.54-.31,100.84,0-32.3.31-68.54.31-100.84,0Z" style="fill:#c7c7c7"></path><path d="M350.23,357.57c32.3-.3,68.54-.31,100.84,0-32.3.31-68.54.31-100.84,0Z" style="fill:#c7c7c7"></path></g><g id="freepik--screen-2--inject-5"><path d="M313.52,99.93V327.58c0,6.43-4.82,11.64-10.76,11.64H196.51c-6,0-10.77-5.21-10.77-11.64V99.93c0-13.11,4.81-13.75,10.77-13.75H217.8c1.23,0,2.25,1.4,2.25,3.14v.76c0,4.08,2.23,4.09,5,4.09h49.22c2.76,0,5,0,5-4.09v-.76c0-1.74,1-3.14,2.26-3.14h21.28C308.7,86.18,313.52,87.92,313.52,99.93Z" style="fill:#fff"></path><path d="M313.52,99.93c-.16,30.83.44,202.85-.14,230-1.22,6.36-6.57,10.11-13,9.41-26.65.13-67.51-.06-94.34,0h-8.84a11.12,11.12,0,0,1-11.06-8.24,20.17,20.17,0,0,1-.5-5.89v-5.89c0-15.4,0-201.89.07-212.28.29-5.83-1.32-15.73,4-19.55,2.58-1.6,5.75-1.31,8.64-1.35,3.65,0,13.89,0,17.69,0,.9.06,2.14-.23,2.89.38,1.77,1.37.87,3.71,1.46,5.54.59,2.21,3.13,2.08,4.95,2.08h3c13.47,0,33.79,0,47.17,0,2.3.07,3.75-1.1,3.78-3.48,0-1.43-.08-3.11,1.18-4.1a2,2,0,0,1,1.39-.4H302.4c9.16-.45,11.13,5.82,11.12,13.76Zm0,0c0-7.79-1.9-14.23-11.12-13.75H281.76c-2.43-.07-2.59,2.66-2.54,4.47,0,2.43-1.49,3.55-3.81,3.51-13.35,0-33.72.06-47.17,0h-3c-1.84,0-4.43.1-5-2.12-.6-1.84.31-4.16-1.43-5.51a2,2,0,0,0-1.37-.36H216c-3.77,0-14,0-17.69,0-2.89,0-6-.25-8.59,1.34-5.24,3.75-3.63,13.74-3.92,19.47-.07,9.46.12,197.84.07,212.28.13,2.79-.38,8.89.48,11.71,1.3,4.73,5.83,8.41,10.83,8.08,1.76,0,7,0,8.84,0,26.88-.1,67.63.11,94.34,0,6.38.63,11.63-2.86,12.88-9.28.55-26,.13-200.07.29-229.93Z" style="fill:#263238"></path><g id="freepik--u5zjqx--inject-5"><path d="M214.12,91.29l-.2.2-.12.12a2.78,2.78,0,0,0-2-.82,2.73,2.73,0,0,0-2,.82l-.12-.11-.2-.21h0v0l.26-.23a3.38,3.38,0,0,1,.6-.38,2.91,2.91,0,0,1,.8-.27l.4,0h.35l.27,0a3.29,3.29,0,0,1,1.22.41,2.64,2.64,0,0,1,.47.33,2.09,2.09,0,0,1,.22.2Z" style="fill:#263238"></path><path d="M210.49,92.26l-.33-.32a2.27,2.27,0,0,1,1.32-.67,2.33,2.33,0,0,1,2,.66l-.32.33a1.88,1.88,0,0,0-2.66,0Z" style="fill:#263238"></path><path d="M212.82,92.58l-.32.33a.94.94,0,0,0-.68-.29.92.92,0,0,0-.68.29l-.33-.33A1.42,1.42,0,0,1,212.82,92.58Z" style="fill:#263238"></path><path d="M212.11,93.2a.29.29,0,1,1-.29-.29A.29.29,0,0,1,212.11,93.2Z" style="fill:#263238"></path></g><path d="M194.07,91.91a.85.85,0,1,1,.85.85A.85.85,0,0,1,194.07,91.91Z" style="fill:#263238"></path><path d="M196.74,91.91a.85.85,0,1,1,.84.85A.85.85,0,0,1,196.74,91.91Z" style="fill:#263238"></path><path d="M199.4,91.91a.85.85,0,1,1,.85.85A.85.85,0,0,1,199.4,91.91Z" style="fill:#263238"></path><path d="M202.07,91.91a.85.85,0,1,1,.85.85A.85.85,0,0,1,202.07,91.91Z" style="fill:#263238"></path><path d="M204.74,91.91a.85.85,0,1,1,.85.85A.85.85,0,0,1,204.74,91.91Z" style="fill:#263238"></path><path d="M303.94,93.76H297V90.57h6.9Zm-6.55-.35h6.2V90.92h-6.2Z" style="fill:#263238"></path><rect x="297.61" y="91.11" width="4.44" height="2.11" style="fill:#263238"></rect><rect x="303.94" y="91.31" width="0.61" height="1.71" style="fill:#263238"></rect><path d="M302.54,119.71a4.32,4.32,0,1,1,1.92-4.7A4.34,4.34,0,0,1,302.54,119.71Z" style="fill:#dbdbdb"></path><path d="M301.58,115.54a1.32,1.32,0,1,1-1.31-1.31A1.31,1.31,0,0,1,301.58,115.54Z" style="fill:#fff"></path><path d="M302.54,119.16v.55a4.32,4.32,0,0,1-4.54,0v-.54a2.27,2.27,0,0,1,4.54,0Z" style="fill:#fff"></path><polygon points="196.61 118.42 193.99 115.54 196.61 112.66 197.35 113.33 195.34 115.54 197.35 117.75 196.61 118.42" style="fill:#dbdbdb"></polygon><rect x="194.96" y="137.93" width="29.64" height="29.64" transform="translate(419.57 305.49) rotate(180)" style="fill:#ebebeb"></rect><rect x="196.71" y="139.67" width="26.15" height="26.15" transform="translate(419.57 305.49) rotate(180)" style="fill:#219015"></rect><path d="M200.92,145.91a2.47,2.47,0,0,0,2.9,2.9,2.44,2.44,0,0,0,1.94-1.94,2.47,2.47,0,1,0-4.84-1Z" style="fill:#020100;opacity:0.1"></path><polygon points="203.96 159.03 222.86 159.03 213.41 148.44 203.96 159.03" style="fill:#219015"></polygon><polygon points="203.96 159.03 222.86 159.03 213.41 148.44 203.96 159.03" style="fill:#020100;opacity:0.1"></polygon><polygon points="196.71 159.03 212.31 159.03 204.51 152.13 196.71 159.03" style="fill:#219015"></polygon><g style="opacity:0.2"><polygon points="196.71 159.03 212.31 159.03 204.51 152.13 196.71 159.03" style="fill:#020100"></polygon></g><rect x="196.71" y="159.03" width="26.15" height="6.79" style="fill:#219015"></rect><rect x="196.71" y="159.03" width="26.15" height="6.79" style="fill:#020100;opacity:0.2"></rect><path d="M229,138.75a402.08,402.08,0,0,1,40.49,0,402.08,402.08,0,0,1-40.49,0Z" style="fill:#263238"></path><path d="M229,143.31c11-.33,23.16-.33,34.19,0-11,.33-23.16.32-34.19,0Z" style="fill:#263238"></path><path d="M229,156.32c8.9-.32,18.69-.33,27.59,0-8.9.33-18.69.33-27.59,0Z" style="fill:#263238"></path><rect x="228.99" y="161.75" width="16.01" height="6.45" style="fill:#219015"></rect><path d="M234.92,165a.11.11,0,0,1-.12-.11.11.11,0,0,1,.12-.11h1a.11.11,0,0,1,.1.11V166a.12.12,0,0,1,0,.08,1.63,1.63,0,0,1-1,.35,1.6,1.6,0,1,1,0-3.2,1.67,1.67,0,0,1,1,.36.11.11,0,0,1,0,.15.11.11,0,0,1-.16,0,1.39,1.39,0,1,0-.88,2.45,1.45,1.45,0,0,0,.84-.27V165Z" style="fill:#fff"></path><path d="M236.91,165.33a1.07,1.07,0,1,1,2.13-.08h0v0a.1.1,0,0,1-.11.1h-1.81a.86.86,0,0,0,.86.84.83.83,0,0,0,.71-.4.1.1,0,0,1,.14,0,.11.11,0,0,1,0,.15,1.06,1.06,0,0,1-.89.5A1.08,1.08,0,0,1,236.91,165.33Zm.23-.17h1.67a.84.84,0,0,0-1.67,0Z" style="fill:#fff"></path><path d="M240.4,164.33a.12.12,0,0,1-.11.11H240v1.61a.17.17,0,0,0,.16.16.13.13,0,0,1,.11.11.12.12,0,0,1-.11.11.38.38,0,0,1-.39-.38v-1.61h-.27c-.11,0-.11-.05-.11-.11s0-.11.11-.11h.27v-.82a.11.11,0,0,1,.11-.1.12.12,0,0,1,.12.1v.82h.28A.13.13,0,0,1,240.4,164.33Z" style="fill:#fff"></path><polygon points="304.84 168.45 300.11 168.45 300.11 163.72 301.47 163.72 301.47 164.22 300.61 164.22 300.61 167.95 304.34 167.95 304.34 164.22 303.61 164.22 303.61 163.72 304.84 163.72 304.84 168.45" style="fill:#219015"></polygon><rect x="302.23" y="161.58" width="0.5" height="4.51" style="fill:#219015"></rect><polygon points="303.91 162.74 303.65 162.97 302.48 161.71 301.3 162.97 301.05 162.74 302.48 161.2 303.91 162.74" style="fill:#219015"></polygon><rect x="194.96" y="209.41" width="61.62" height="103.25" transform="translate(451.54 522.07) rotate(180)" style="fill:#219015"></rect><path d="M202.66,271.88a4.51,4.51,0,1,0,3.54-3.54A4.51,4.51,0,0,0,202.66,271.88Z" style="fill:#020100;opacity:0.1"></path><polygon points="212.05 300.26 256.58 300.26 234.31 280.89 212.05 300.26" style="fill:#219015"></polygon><polygon points="212.05 300.26 256.58 300.26 234.31 280.89 212.05 300.26" style="fill:#020100;opacity:0.1"></polygon><polygon points="194.96 300.26 231.73 300.26 213.35 287.64 194.96 300.26" style="fill:#219015"></polygon><g style="opacity:0.2"><polygon points="194.96 300.26 231.73 300.26 213.35 287.64 194.96 300.26" style="fill:#020100"></polygon></g><rect x="194.96" y="300.26" width="61.62" height="12.4" style="fill:#219015"></rect><rect x="194.96" y="300.26" width="61.62" height="12.4" style="fill:#020100;opacity:0.2"></rect><rect x="266.13" y="209.41" width="47.39" height="103.25" style="fill:#219015"></rect><path d="M273.83,271.88a4.51,4.51,0,1,0,3.54-3.54A4.46,4.46,0,0,0,273.83,271.88Z" style="fill:#020100;opacity:0.1"></path><polygon points="313.52 287.88 313.52 300.25 283.21 300.25 291.89 292.7 305.48 280.88 313.52 287.88" style="fill:#219015"></polygon><polygon points="313.52 287.88 313.52 300.25 283.21 300.25 291.89 292.7 305.48 280.88 313.52 287.88" style="fill:#020100;opacity:0.1"></polygon><polygon points="266.13 300.26 302.89 300.26 284.51 287.64 266.13 300.26" style="fill:#219015"></polygon><g style="opacity:0.2"><polygon points="266.13 300.26 302.89 300.26 284.51 287.64 266.13 300.26" style="fill:#020100"></polygon></g><rect x="266.13" y="300.25" width="47.39" height="12.41" style="fill:#219015"></rect><rect x="266.13" y="300.25" width="47.39" height="12.41" style="fill:#020100;opacity:0.2"></rect><path d="M203.56,116h-.7v1.24a.32.32,0,0,1-.32.32.33.33,0,0,1-.32-.32v-3.36a.32.32,0,0,1,.32-.32h1a1.22,1.22,0,1,1,0,2.44Zm-.7-.63h.7a.59.59,0,1,0,0-1.17h-.7Z" style="fill:#c7c7c7"></path><path d="M207.25,115a.3.3,0,0,1-.3.3.5.5,0,0,0-.34.11.87.87,0,0,0-.27.27,2,2,0,0,0-.23.48v1.08a.31.31,0,0,1-.32.31.31.31,0,0,1-.3-.31V115a.3.3,0,0,1,.3-.3.31.31,0,0,1,.32.3v0a.68.68,0,0,1,.12-.12,1.26,1.26,0,0,1,.72-.22A.29.29,0,0,1,207.25,115Z" style="fill:#c7c7c7"></path><path d="M208.12,117.15a1.39,1.39,0,0,1-.39-1,1.44,1.44,0,0,1,.39-1,1.34,1.34,0,0,1,1-.44,1.24,1.24,0,0,1,1,.44,1.41,1.41,0,0,1,.4,1,1.36,1.36,0,0,1-.4,1,1.23,1.23,0,0,1-1,.43A1.33,1.33,0,0,1,208.12,117.15Zm.23-1a.92.92,0,0,0,.2.6.77.77,0,0,0,.55.21.76.76,0,0,0,.53-.21.93.93,0,0,0,0-1.2.86.86,0,0,0-.53-.21.87.87,0,0,0-.55.21A.92.92,0,0,0,208.35,116.15Z" style="fill:#c7c7c7"></path><path d="M214,117.26a.31.31,0,0,1-.61.06,1.36,1.36,0,0,1-.77.25,1.43,1.43,0,0,1,0-2.86,1.32,1.32,0,0,1,.76.24v-1.07a.31.31,0,0,1,.31-.31.31.31,0,0,1,.31.31v2.26h0Zm-1.38-1.92a.73.73,0,0,0-.54.23.82.82,0,0,0-.23.58.81.81,0,0,0,.23.56.73.73,0,0,0,.54.23.7.7,0,0,0,.53-.23.77.77,0,0,0,.23-.56.78.78,0,0,0-.23-.58A.7.7,0,0,0,212.63,115.34Z" style="fill:#c7c7c7"></path><path d="M216.33,117.57a1.2,1.2,0,0,1-1.19-1.19V115a.31.31,0,1,1,.61,0v1.36a.57.57,0,0,0,.58.58.59.59,0,0,0,.6-.58V115a.3.3,0,0,1,.29-.31.33.33,0,0,1,.31.31v1.36A1.21,1.21,0,0,1,216.33,117.57Z" style="fill:#c7c7c7"></path><path d="M218.5,116.15a1.46,1.46,0,0,1,1.45-1.44,1.52,1.52,0,0,1,.91.32.31.31,0,0,1,.06.42.31.31,0,0,1-.43.06.91.91,0,0,0-.54-.19.86.86,0,0,0-.85.83.84.84,0,0,0,.85.81.92.92,0,0,0,.54-.18.3.3,0,1,1,.37.48,1.58,1.58,0,0,1-.91.31A1.44,1.44,0,0,1,218.5,116.15Z" style="fill:#c7c7c7"></path><path d="M223.25,115a.32.32,0,0,1-.32.31h-.15v1.59a.32.32,0,0,1,.32.32.32.32,0,0,1-.32.32.64.64,0,0,1-.63-.64v-1.59H222a.32.32,0,0,1,0-.63h.17v-.82a.32.32,0,0,1,.32-.32.31.31,0,0,1,.31.32v.82h.15A.32.32,0,0,1,223.25,115Z" style="fill:#c7c7c7"></path><path d="M224.11,116.75a.29.29,0,0,1,.43,0,1.11,1.11,0,0,0,.63.25.81.81,0,0,0,.38-.11.26.26,0,0,0,.11-.17.11.11,0,0,0,0-.06.19.19,0,0,0-.08-.07,1.26,1.26,0,0,0-.45-.16h0a1.87,1.87,0,0,1-.49-.15.85.85,0,0,1-.4-.33.71.71,0,0,1-.09-.36.81.81,0,0,1,.33-.63,1.28,1.28,0,0,1,.7-.21,1.43,1.43,0,0,1,.86.32.31.31,0,0,1,.09.42.29.29,0,0,1-.42.08,1,1,0,0,0-.53-.21.57.57,0,0,0-.34.1.18.18,0,0,0-.09.13.07.07,0,0,0,0,0l.06.06a1.22,1.22,0,0,0,.42.13h0a1.82,1.82,0,0,1,.53.16.9.9,0,0,1,.41.34.73.73,0,0,1,.11.38.84.84,0,0,1-.36.66,1.35,1.35,0,0,1-.74.23,1.65,1.65,0,0,1-1-.4A.3.3,0,0,1,224.11,116.75Z" style="fill:#c7c7c7"></path><path d="M195.39,184.85l-.3.17,0,0a.08.08,0,0,1-.07,0,.07.07,0,0,1,0-.1l.41-.25a.08.08,0,0,1,.1,0,.09.09,0,0,1,0,0v2a.08.08,0,0,1-.08.07.08.08,0,0,1-.07-.07Z" style="fill:#c7c7c7"></path><path d="M196.08,187a.22.22,0,0,0,.14-.23.11.11,0,0,1-.08-.11v-.06a.1.1,0,0,1,.2,0v.07a.48.48,0,0,1-.08.32.43.43,0,0,1-.16.1,0,0,0,0,1,0,0S196.06,187,196.08,187Z" style="fill:#c7c7c7"></path><path d="M196.8,186.54a.08.08,0,0,1,.11-.11.56.56,0,0,0,.4.17.6.6,0,0,0,.4-.17.58.58,0,0,0,0-.8.57.57,0,0,0-.4-.16.55.55,0,0,0-.4.16.08.08,0,0,1-.11,0l0,0h0v0h0l.1-.85a.09.09,0,0,1,0-.06l.05,0h1a.08.08,0,0,1,.07.08.07.07,0,0,1-.07.07H197l-.08.63a.74.74,0,0,1,.36-.09.69.69,0,0,1,.5.2.67.67,0,0,1,.21.51.69.69,0,0,1-.21.51.71.71,0,0,1-1,0Z" style="fill:#c7c7c7"></path><path d="M200.69,186.27a.39.39,0,0,0-.17-.32.78.78,0,0,0-.25-.11h-.53v.84a.08.08,0,0,1-.07.07.09.09,0,0,1-.08-.07v-2a.08.08,0,0,1,.07-.08h.6a.61.61,0,0,1,.61.61.6.6,0,0,1-.35.54l0,0a.53.53,0,0,1,.28.47.73.73,0,0,0,0,.25s0,0,0,0a.07.07,0,0,1,.08.05.08.08,0,0,1-.05.09h0a.16.16,0,0,1-.13-.09A.7.7,0,0,1,200.69,186.27Zm-.43-1.49h-.52v.91h.54a.45.45,0,0,0,.44-.45A.45.45,0,0,0,200.26,184.78Z" style="fill:#c7c7c7"></path><path d="M202.68,186.2h-1l-.19.5a.08.08,0,0,1-.07.05h0a.1.1,0,0,1,0-.1l.74-2a.07.07,0,0,1,.14,0l.74,2a.1.1,0,0,1,0,.1h0a.08.08,0,0,1-.07-.05Zm-.91-.15h.86l-.43-1.13Z" style="fill:#c7c7c7"></path><path d="M203.72,184.78h-.64a.07.07,0,0,1-.07-.07.08.08,0,0,1,.07-.08h1.42a.09.09,0,0,1,.08.08.08.08,0,0,1-.08.07h-.63v1.9a.09.09,0,0,1-.08.07.08.08,0,0,1-.07-.07Z" style="fill:#c7c7c7"></path><path d="M205.15,184.71a.09.09,0,0,1,.08-.08.08.08,0,0,1,.07.08v2a.08.08,0,0,1-.07.07.09.09,0,0,1-.08-.07Z" style="fill:#c7c7c7"></path><path d="M206.21,184.94v1.74a.08.08,0,0,1-.07.07.09.09,0,0,1-.08-.07v-1.94a.09.09,0,0,1,0-.09.08.08,0,0,1,.1,0l1.29,1.78v-1.72a.07.07,0,1,1,.14,0v2a.08.08,0,0,1-.07.07.06.06,0,0,1-.06,0h0Z" style="fill:#c7c7c7"></path><path d="M209.22,185.8a.07.07,0,0,1-.07-.08.07.07,0,0,1,.07-.07h.66a.07.07,0,0,1,.07.07v.73h0a.09.09,0,0,1,0,.06,1.11,1.11,0,0,1-.68.23,1.08,1.08,0,1,1,0-2.15,1.11,1.11,0,0,1,.69.24.09.09,0,0,1,0,.1.09.09,0,0,1-.11,0,.9.9,0,0,0-.59-.21.93.93,0,1,0,0,1.85,1,1,0,0,0,.56-.18v-.62Z" style="fill:#c7c7c7"></path><path d="M210.6,186.35a.06.06,0,0,1,.09,0,1.17,1.17,0,0,0,.7.28.81.81,0,0,0,.46-.14.4.4,0,0,0,.18-.32.33.33,0,0,0-.17-.29,1.46,1.46,0,0,0-.49-.17h0a1.35,1.35,0,0,1-.49-.18.43.43,0,0,1-.22-.37.48.48,0,0,1,.22-.39.84.84,0,0,1,.51-.16,1.13,1.13,0,0,1,.65.25.07.07,0,1,1-.07.11,1.06,1.06,0,0,0-.58-.22.78.78,0,0,0-.43.12.36.36,0,0,0-.17.29.29.29,0,0,0,.16.26,1.29,1.29,0,0,0,.45.16h0a1.56,1.56,0,0,1,.54.19.49.49,0,0,1,.23.4.56.56,0,0,1-.24.43.93.93,0,0,1-.54.16,1.26,1.26,0,0,1-.78-.3A.08.08,0,0,1,210.6,186.35Z" style="fill:#c7c7c7"></path><path d="M202.54,193.67a.37.37,0,0,1-.38.37h-.06v.52a.37.37,0,0,1-.38.37.36.36,0,0,1-.37-.37V194H199.2A.34.34,0,0,1,199,194a.36.36,0,0,1-.06-.52l2.52-3.13s0,0,0,0l0,0,0,0,0,0s0,0,0,0a0,0,0,0,1,0,0h.29l0,0s0,0,0,0h0a0,0,0,0,1,0,0l0,0,0,0,0,0a.1.1,0,0,0,0,0l0,0v0s0,0,0,0,0,0,0,0v2.77h.06A.37.37,0,0,1,202.54,193.67Zm-1.19-2.06L200,193.29h1.36Z" style="fill:#c7c7c7"></path><path d="M203.5,195.55a.6.6,0,0,0,.46-.62.48.48,0,0,1-.38-.46v-.05A.44.44,0,0,1,204,194c.3,0,.49.23.49.6v.08a1.32,1.32,0,0,1-.34,1,1,1,0,0,1-.63.29.19.19,0,1,1-.06-.37Z" style="fill:#c7c7c7"></path><path d="M207.49,192.05a1.65,1.65,0,0,1,.5,1.2,1.68,1.68,0,0,1-.5,1.19,1.66,1.66,0,0,1-1.19.49h0a1.65,1.65,0,0,1-1.18-.49.38.38,0,0,1,0-.55.38.38,0,0,1,.54,0,.88.88,0,0,0,.65.28.9.9,0,0,0,.65-.28.89.89,0,0,0,.27-.64.91.91,0,0,0-.27-.66.9.9,0,0,0-.65-.26.91.91,0,0,0-.65.26.38.38,0,0,1-.54,0,.73.73,0,0,1-.08-.09s0,0,0,0a0,0,0,0,0,0,0s0,0,0,0h0a.24.24,0,0,1,0-.12l.2-1.76a.41.41,0,0,1,.17-.27h0l0,0a.34.34,0,0,1,.18,0h2a.38.38,0,0,1,.39.39.39.39,0,0,1-.39.38h-1.67l-.08.67a1.74,1.74,0,0,1,.45-.06A1.67,1.67,0,0,1,207.49,192.05Z" style="fill:#c7c7c7"></path><polygon points="196.19 198.4 196.64 199.07 197.42 199.29 196.92 199.93 196.95 200.73 196.19 200.46 195.43 200.73 195.46 199.93 194.96 199.29 195.74 199.07 196.19 198.4" style="fill:#c7c7c7"></polygon><polygon points="199.91 198.4 200.37 199.07 201.14 199.29 200.64 199.93 200.68 200.73 199.91 200.46 199.16 200.73 199.19 199.93 198.69 199.29 199.47 199.07 199.91 198.4" style="fill:#c7c7c7"></polygon><polygon points="203.64 198.4 204.09 199.07 204.87 199.29 204.37 199.93 204.4 200.73 203.64 200.46 202.88 200.73 202.91 199.93 202.41 199.29 203.19 199.07 203.64 198.4" style="fill:#c7c7c7"></polygon><polygon points="207.36 198.4 207.81 199.07 208.59 199.29 208.09 199.93 208.12 200.73 207.36 200.46 206.6 200.73 206.63 199.93 206.13 199.29 206.91 199.07 207.36 198.4" style="fill:#c7c7c7"></polygon><path d="M210.19,200.92l0-.95-.59-.75.91-.26.53-.79.53.79.91.26-.58.75,0,.95-.89-.33Zm.89-.6.63.23,0-.67.41-.52-.65-.18-.37-.56-.37.56-.64.18.41.52,0,.67Z" style="fill:#c7c7c7"></path><polygon points="211.08 200.46 211.08 198.4 210.63 199.07 209.85 199.29 210.35 199.93 210.32 200.73 211.08 200.46" style="fill:#c7c7c7"></polygon><path d="M232.93,186.2h-1l-.19.5a.08.08,0,0,1-.07.05h0s-.06-.07,0-.1l.73-2a.1.1,0,0,1,.08-.05.08.08,0,0,1,.07.05l.73,2a.08.08,0,0,1,0,.1h0a.08.08,0,0,1-.07-.05Zm-.91-.15h.86l-.43-1.13Z" style="fill:#c7c7c7"></path><path d="M234.62,185.8a.07.07,0,0,1-.08-.08.07.07,0,0,1,.08-.07h.66a.07.07,0,0,1,.06.07v.73h0a.14.14,0,0,1,0,.06,1.17,1.17,0,0,1-.69.23,1.08,1.08,0,1,1,.69-1.91.07.07,0,0,1,0,.1.09.09,0,0,1-.11,0,.9.9,0,0,0-.59-.21.93.93,0,1,0,0,1.85,1,1,0,0,0,.56-.18v-.62Z" style="fill:#c7c7c7"></path><path d="M236.09,184.71a.08.08,0,0,1,.07-.08h1.09a.08.08,0,0,1,.07.08.07.07,0,0,1-.07.07h-1v.84h.88a.07.07,0,0,1,.07.07.08.08,0,0,1-.07.08h-.88v.83h1a.07.07,0,0,1,.07.08.08.08,0,0,1-.07.07h-1.09a.08.08,0,0,1-.07-.07Z" style="fill:#c7c7c7"></path><path d="M230.67,199.72l-.71-1a.08.08,0,0,1,0-.1.06.06,0,0,1,.1,0l.66.91.66-.91a.07.07,0,0,1,.11,0,.07.07,0,0,1,0,.1l-.7,1v.95a.07.07,0,0,1-.08.07.07.07,0,0,1-.07-.07Z" style="fill:#c7c7c7"></path><path d="M231.91,198.69a.08.08,0,0,1,.08-.07h1.09a.07.07,0,0,1,.07.07.08.08,0,0,1-.07.08h-1v.83H233a.08.08,0,0,1,.07.08.07.07,0,0,1-.07.07h-.89v.84h1a.07.07,0,0,1,0,.14H232a.08.08,0,0,1-.07-.07Z" style="fill:#c7c7c7"></path><path d="M234.86,200.19h-1l-.19.5a.07.07,0,0,1-.07,0h0a.08.08,0,0,1-.05-.1l.74-2a.08.08,0,0,1,.14,0l.74,2a.09.09,0,0,1,0,.1h0a.07.07,0,0,1-.07,0ZM234,200h.85l-.43-1.14Z" style="fill:#c7c7c7"></path><path d="M236.71,200.26a.38.38,0,0,0-.17-.32.78.78,0,0,0-.25-.11h-.52v.84a.08.08,0,0,1-.08.07.07.07,0,0,1-.07-.07v-2s0-.07.06-.07h.61a.6.6,0,0,1,.6.6.61.61,0,0,1-.35.55l0,0a.52.52,0,0,1,.29.47,1.1,1.1,0,0,0,0,.24l0,.05a.08.08,0,0,1,.08,0,.08.08,0,0,1,0,.1h0a.15.15,0,0,1-.13-.1A.68.68,0,0,1,236.71,200.26Zm-.42-1.49h-.52v.91h.53a.46.46,0,0,0,.44-.46A.45.45,0,0,0,236.29,198.77Z" style="fill:#c7c7c7"></path><path d="M237.45,200.34s.07,0,.09,0a1.17,1.17,0,0,0,.7.27.79.79,0,0,0,.47-.14.39.39,0,0,0,.18-.31.34.34,0,0,0-.18-.29,1.12,1.12,0,0,0-.49-.17h0a1.54,1.54,0,0,1-.5-.18.45.45,0,0,1-.22-.37.51.51,0,0,1,.22-.4.93.93,0,0,1,.51-.15,1.19,1.19,0,0,1,.66.24.07.07,0,0,1,0,.1.06.06,0,0,1-.09,0,1,1,0,0,0-.58-.23.73.73,0,0,0-.43.13.38.38,0,0,0-.16.29.33.33,0,0,0,.15.26,1.44,1.44,0,0,0,.46.16h0a1.38,1.38,0,0,1,.54.19.47.47,0,0,1,.23.4.5.5,0,0,1-.24.42.94.94,0,0,1-.54.17,1.39,1.39,0,0,1-.78-.31A.06.06,0,0,1,237.45,200.34Z" style="fill:#c7c7c7"></path><path d="M230.63,190.54v4a.38.38,0,0,1-.38.37.36.36,0,0,1-.37-.37v-3.35l-.28.16a.34.34,0,0,1-.19,0,.38.38,0,0,1-.2-.7l.84-.49,0,0,0,0h.29l0,0,0,0,0,0,0,0a0,0,0,0,1,0,0l0,0h0v0l0,0s0,0,0,0,0,0,0,0,0,0,0,0Z" style="fill:#c7c7c7"></path><path d="M231.49,192.55a2.92,2.92,0,0,1,.47-1.62,1.51,1.51,0,0,1,1.26-.76,1.54,1.54,0,0,1,1.26.76,2.91,2.91,0,0,1,.46,1.62,3,3,0,0,1-.46,1.63,1.55,1.55,0,0,1-1.26.75,1.52,1.52,0,0,1-1.26-.75A3,3,0,0,1,231.49,192.55Zm2.69,0a2.25,2.25,0,0,0-.33-1.21.78.78,0,0,0-.63-.41.83.83,0,0,0-.65.41,2.45,2.45,0,0,0,0,2.42.85.85,0,0,0,.65.42.79.79,0,0,0,.63-.42A2.25,2.25,0,0,0,234.18,192.55Z" style="fill:#c7c7c7"></path><path d="M237.65,192.91h-1a.37.37,0,0,1-.38-.37.39.39,0,0,1,.38-.38h1v-.94a.38.38,0,0,1,.39-.39.39.39,0,0,1,.39.39v.94h1a.38.38,0,0,1,.37.38.37.37,0,0,1-.37.37h-1v1a.39.39,0,0,1-.39.39.38.38,0,0,1-.39-.39Z" style="fill:#c7c7c7"></path><path d="M195,179.67c27.33-.12,82.31-.12,109.63,0-27.33.12-82.31.12-109.63,0Z" style="fill:#ebebeb"></path><path d="M220.47,198.62q-.25-5.85,0-11.7.25,5.85,0,11.7Z" style="fill:#ebebeb"></path><path d="M265.59,184.6a1.06,1.06,0,0,1,.68.24.07.07,0,0,1,0,.1.07.07,0,0,1-.1,0,.94.94,0,0,0-.59-.21.93.93,0,1,0,0,1.85.84.84,0,0,0,.58-.21.09.09,0,0,1,.11,0,.08.08,0,0,1,0,.11,1.11,1.11,0,0,1-.68.23,1.08,1.08,0,1,1,0-2.15Z" style="fill:#c7c7c7"></path><path d="M268.15,185.76h-1.09v.92a.08.08,0,0,1-.08.07.08.08,0,0,1-.07-.07v-2a.08.08,0,0,1,.07-.08.08.08,0,0,1,.08.08v.91h1.09v-.91a.07.07,0,1,1,.14,0v2a.07.07,0,1,1-.14,0Z" style="fill:#c7c7c7"></path><path d="M270,186.2h-1l-.19.5a.08.08,0,0,1-.07.05h0a.09.09,0,0,1,0-.1l.74-2a.07.07,0,0,1,.14,0l.74,2a.1.1,0,0,1,0,.1h0a.08.08,0,0,1-.07-.05Zm-.9-.15H270l-.43-1.13Z" style="fill:#c7c7c7"></path><path d="M271.86,186.27a.39.39,0,0,0-.17-.32.78.78,0,0,0-.25-.11h-.52v.84a.09.09,0,0,1-.08.07.08.08,0,0,1-.07-.07v-2a.09.09,0,0,1,.06-.08h.61a.6.6,0,0,1,.6.61.58.58,0,0,1-.35.54l0,0a.54.54,0,0,1,.29.47,1.29,1.29,0,0,0,0,.25s0,0,0,0a.06.06,0,0,1,.08.05.07.07,0,0,1,0,.09h-.05a.16.16,0,0,1-.13-.09A.7.7,0,0,1,271.86,186.27Zm-.42-1.49h-.52v.91h.53a.46.46,0,0,0,0-.91Z" style="fill:#c7c7c7"></path><path d="M273.18,184.78h-.63a.08.08,0,0,1-.08-.07.09.09,0,0,1,.08-.08H274a.08.08,0,0,1,.07.08.07.07,0,0,1-.07.07h-.64v1.9a.08.08,0,0,1-.07.07.09.09,0,0,1-.08-.07Z" style="fill:#c7c7c7"></path><path d="M263.09,200.19h-1l-.19.5a.07.07,0,0,1-.07,0h0a.09.09,0,0,1,0-.1l.74-2a.08.08,0,0,1,.14,0l.73,2a.07.07,0,0,1,0,.1h0a.07.07,0,0,1-.07,0Zm-.91-.15H263l-.43-1.14Z" style="fill:#c7c7c7"></path><path d="M265,200.45a.71.71,0,0,1-.57.28.72.72,0,0,1-.71-.73.73.73,0,0,1,.71-.75.71.71,0,0,1,.57.29v-.85a.07.07,0,0,1,.08-.07.07.07,0,0,1,.07.07v2a.07.07,0,0,1-.07.07.07.07,0,0,1-.08-.07Zm0-.43V200a.57.57,0,1,0-.57.62A.58.58,0,0,0,265,200Z" style="fill:#c7c7c7"></path><path d="M266.25,200.72l0,0-.55-1.32a.08.08,0,0,1,0-.1.08.08,0,0,1,.1,0l.49,1.17.49-1.17a.07.07,0,0,1,.09,0,.07.07,0,0,1,0,.1l-.55,1.31,0,0s0,0,0,0h0Z" style="fill:#c7c7c7"></path><path d="M267.33,200a.72.72,0,0,1,1.44-.06h0a.08.08,0,0,1-.08.07h-1.21a.58.58,0,0,0,.57.57.55.55,0,0,0,.48-.27.07.07,0,0,1,.1,0,.08.08,0,0,1,0,.1.71.71,0,0,1-.6.33A.73.73,0,0,1,267.33,200Zm.16-.12h1.12a.58.58,0,0,0-.56-.48A.57.57,0,0,0,267.49,199.88Z" style="fill:#c7c7c7"></path><path d="M270.34,199.86a.46.46,0,0,0-.46-.46.47.47,0,0,0-.46.46v.8h0s0,0,0,0l-.06,0h0a0,0,0,0,1,0,0h0v-1.35a.07.07,0,1,1,.14,0v.14a.6.6,0,0,1,1.06.39v.8a.07.07,0,1,1-.14,0Z" style="fill:#c7c7c7"></path><path d="M271.65,199.33a.08.08,0,0,1-.07.07h-.19v1.08a.12.12,0,0,0,.11.11.07.07,0,0,1,0,.14.25.25,0,0,1-.26-.25V199.4h-.19c-.07,0-.07,0-.07-.07s0-.08.07-.08h.19v-.55a.08.08,0,0,1,.07-.07.09.09,0,0,1,.08.07v.55h.19A.09.09,0,0,1,271.65,199.33Z" style="fill:#c7c7c7"></path><path d="M272.31,199.32a.07.07,0,0,1,.07-.07.08.08,0,0,1,.08.07v.81a.46.46,0,0,0,.45.46.47.47,0,0,0,.46-.46v-.81a.07.07,0,0,1,.07-.07.08.08,0,0,1,.08.07v.81a.61.61,0,0,1-1.21,0Z" style="fill:#c7c7c7"></path><path d="M274.19,199.33a.08.08,0,0,1,.08-.07.07.07,0,0,1,.07.07v.33a.05.05,0,0,1,0,0,.7.7,0,0,1,.59-.36.07.07,0,0,1,0,.14.56.56,0,0,0-.43.24,1.94,1.94,0,0,0-.18.35v.67a.07.07,0,0,1-.07.07.08.08,0,0,1-.08-.07Z" style="fill:#c7c7c7"></path><path d="M275.26,200a.72.72,0,0,1,1.44-.06h0a.08.08,0,0,1-.08.07h-1.21a.58.58,0,0,0,.57.57.55.55,0,0,0,.48-.27.07.07,0,0,1,.1,0,.08.08,0,0,1,0,.1.71.71,0,0,1-.6.33A.73.73,0,0,1,275.26,200Zm.16-.12h1.12a.58.58,0,0,0-.56-.48A.57.57,0,0,0,275.42,199.88Z" style="fill:#c7c7c7"></path><path d="M260,194.56a.38.38,0,0,1-.37.37.37.37,0,0,1-.37-.37v-3.95h0a.35.35,0,0,1,.15-.31.36.36,0,0,1,.51.08l2.2,3v-2.8a.38.38,0,0,1,.75,0v3.95a.38.38,0,0,1-.38.37.37.37,0,0,1-.28-.13s0,0,0,0l-2.18-3Z" style="fill:#c7c7c7"></path><path d="M264.74,194.44a1.71,1.71,0,0,1-.47-1.2,1.78,1.78,0,0,1,.47-1.19,1.6,1.6,0,0,1,1.17-.52,1.51,1.51,0,0,1,1.14.52,1.74,1.74,0,0,1,.48,1.19,1.68,1.68,0,0,1-.48,1.2,1.51,1.51,0,0,1-1.14.52A1.6,1.6,0,0,1,264.74,194.44Zm.27-1.2a1.09,1.09,0,0,0,.25.72.92.92,0,0,0,.65.25.91.91,0,0,0,.63-.25,1.11,1.11,0,0,0,0-1.43,1,1,0,0,0-.63-.26,1,1,0,0,0-.65.26A1.08,1.08,0,0,0,265,193.24Z" style="fill:#c7c7c7"></path><path d="M269,194a.51.51,0,0,1,.51.51.5.5,0,0,1-.51.5.5.5,0,0,1-.5-.5A.5.5,0,0,1,269,194Z" style="fill:#c7c7c7"></path><path d="M275,194.56a.36.36,0,0,1-.37.37h-2.43a.34.34,0,0,1-.27-.12.37.37,0,0,1,0-.53l2-1.82a.86.86,0,0,0,.29-.66.89.89,0,0,0-.23-.59.83.83,0,0,0-.65-.28.88.88,0,0,0-.59.22l-.21.19a.38.38,0,0,1-.54,0,.39.39,0,0,1,0-.53l.21-.19a1.65,1.65,0,0,1,1.1-.42,1.62,1.62,0,0,1,1.21.54,1.57,1.57,0,0,1,.42,1.09,1.63,1.63,0,0,1-.54,1.22l-1.28,1.16h1.45A.37.37,0,0,1,275,194.56Z" style="fill:#c7c7c7"></path><path d="M279.4,193.67a.37.37,0,0,1-.38.37H279v.52a.37.37,0,0,1-.38.37.36.36,0,0,1-.37-.37V194h-2.15a.34.34,0,0,1-.23-.08.36.36,0,0,1-.06-.52l2.52-3.13v0l0,0,0,0,0,0s0,0,0,0l0,0h.29l0,0s0,0,0,0h0a0,0,0,0,1,0,0l0,0,0,0,0,0s0,0,0,0a.06.06,0,0,1,0,0s0,0,0,0,0,0,0,0,0,0,0,0v2.77H279A.38.38,0,0,1,279.4,193.67Zm-1.19-2.06-1.36,1.68h1.36Z" style="fill:#c7c7c7"></path><path d="M249.23,198.62q-.25-5.85,0-11.7.26,5.85,0,11.7Z" style="fill:#ebebeb"></path><path d="M289,198.62c-.16-3.9-.17-7.8,0-11.7q.25,5.85,0,11.7Z" style="fill:#ebebeb"></path></g><g id="freepik--screen-1--inject-5"><path d="M163.65,69.93V297.58c0,6.43-4.82,11.64-10.76,11.64H46.64c-6,0-10.78-5.21-10.78-11.64V69.93c0-13.11,4.82-13.75,10.78-13.75H67.93c1.23,0,2.24,1.4,2.24,3.14v.76c0,4.08,2.24,4.09,5,4.09h49.22c2.76,0,5,0,5-4.09v-.76c0-1.74,1-3.14,2.26-3.14h21.28C158.83,56.18,163.65,57.92,163.65,69.93Z" style="fill:#fff"></path><path d="M163.65,69.93c-.17,30.83.44,202.85-.14,230-1.22,6.36-6.57,10.11-13,9.41-26.65.13-67.52-.06-94.34,0H47.29a11.12,11.12,0,0,1-11-8.24,20.17,20.17,0,0,1-.5-5.89v-5.89c0-15.4,0-201.89.07-212.28.29-5.83-1.32-15.73,4-19.55,2.58-1.6,5.75-1.31,8.64-1.35,3.65,0,13.89,0,17.69,0,.9.06,2.14-.23,2.89.38,1.77,1.37.87,3.71,1.46,5.54.59,2.21,3.13,2.08,5,2.08h3c13.47,0,33.79,0,47.17,0,2.3.07,3.75-1.1,3.78-3.48,0-1.43-.08-3.11,1.18-4.1a2,2,0,0,1,1.39-.4h20.64c9.16-.45,11.13,5.82,11.12,13.76Zm0,0c0-7.79-1.9-14.23-11.12-13.75H131.89c-2.43-.07-2.59,2.66-2.54,4.47,0,2.43-1.49,3.55-3.81,3.51-13.35,0-33.73.06-47.17,0h-3c-1.84,0-4.43.1-5-2.12-.6-1.84.31-4.16-1.44-5.51a1.92,1.92,0,0,0-1.36-.36H66.12c-3.77,0-14,0-17.69,0-2.89,0-6-.25-8.59,1.34C34.6,61.31,36.21,71.3,35.92,77c-.07,9.46.12,197.84.07,212.28.13,2.79-.38,8.89.48,11.71,1.3,4.73,5.83,8.41,10.83,8.08,1.76,0,7,0,8.84,0,26.88-.1,67.63.11,94.34,0,6.38.63,11.63-2.86,12.88-9.28.55-26,.13-200.07.29-229.93Z" style="fill:#263238"></path><g id="freepik--u5zjqx--inject-5"><path d="M64.25,61.29l-.2.2-.12.12a2.81,2.81,0,0,0-4,0l-.11-.11-.2-.21h0l0,0,.26-.23a3.38,3.38,0,0,1,.6-.38,2.8,2.8,0,0,1,.8-.27l.4,0h.34l.28,0a3.29,3.29,0,0,1,1.22.41,2.64,2.64,0,0,1,.47.33,2.09,2.09,0,0,1,.22.2Z" style="fill:#263238"></path><path d="M60.62,62.26l-.33-.32a2.27,2.27,0,0,1,1.32-.67,2.33,2.33,0,0,1,2,.66l-.32.33a1.88,1.88,0,0,0-2.66,0Z" style="fill:#263238"></path><path d="M63,62.58l-.32.33a.94.94,0,0,0-.68-.29.91.91,0,0,0-.68.29l-.33-.33A1.42,1.42,0,0,1,63,62.58Z" style="fill:#263238"></path><path d="M62.24,63.2a.29.29,0,1,1-.29-.29A.29.29,0,0,1,62.24,63.2Z" style="fill:#263238"></path></g><path d="M44.2,61.91a.85.85,0,1,1,.85.85A.85.85,0,0,1,44.2,61.91Z" style="fill:#263238"></path><path d="M46.87,61.91a.85.85,0,1,1,.84.85A.85.85,0,0,1,46.87,61.91Z" style="fill:#263238"></path><path d="M49.53,61.91a.85.85,0,1,1,.85.85A.85.85,0,0,1,49.53,61.91Z" style="fill:#263238"></path><path d="M52.2,61.91a.85.85,0,1,1,.85.85A.85.85,0,0,1,52.2,61.91Z" style="fill:#263238"></path><path d="M54.87,61.91a.85.85,0,1,1,.85.85A.85.85,0,0,1,54.87,61.91Z" style="fill:#263238"></path><path d="M154.07,63.76h-6.9V60.57h6.9Zm-6.55-.35h6.19V60.92h-6.19Z" style="fill:#263238"></path><rect x="147.74" y="61.11" width="4.44" height="2.11" style="fill:#263238"></rect><rect x="154.07" y="61.31" width="0.61" height="1.71" style="fill:#263238"></rect><path d="M152.67,89.48a4.34,4.34,0,0,1-1.25.52,4.26,4.26,0,0,1-3.29-.52,4.31,4.31,0,1,1,4.54,0Z" style="fill:#dbdbdb"></path><path d="M151.71,85.31A1.32,1.32,0,1,1,150.4,84,1.32,1.32,0,0,1,151.71,85.31Z" style="fill:#fff"></path><path d="M152.67,88.94v.54a4.34,4.34,0,0,1-1.25.52,4.26,4.26,0,0,1-3.29-.52v-.54a2.27,2.27,0,1,1,4.54,0Z" style="fill:#fff"></path><rect x="44.8" y="95.68" width="109.92" height="8.65" style="fill:#ebebeb"></rect><path d="M51.25,101.88l-.54.41-1-1.31-.36-.48a.82.82,0,0,0,.2-.12.86.86,0,0,0,.28-.35l.38.51Z" style="fill:#c7c7c7"></path><path d="M50.19,98.8a1.46,1.46,0,1,0-.47,2.18,1.37,1.37,0,0,0,.2-.13,1.46,1.46,0,0,0,.27-2Zm-.63,1.58a.82.82,0,0,1-.2.12.87.87,0,1,1,.37-1.34.88.88,0,0,1,.11.87A.86.86,0,0,1,49.56,100.38Z" style="fill:#c7c7c7"></path><path d="M54,101a.1.1,0,0,1,.14,0,1.78,1.78,0,0,0,1,.41,1.15,1.15,0,0,0,.69-.21.56.56,0,0,0,.27-.47.51.51,0,0,0-.26-.43,2,2,0,0,0-.72-.25h0a2.13,2.13,0,0,1-.75-.27.66.66,0,0,1-.32-.55.74.74,0,0,1,.33-.59,1.32,1.32,0,0,1,.76-.23,1.77,1.77,0,0,1,1,.37.1.1,0,0,1,0,.14.1.1,0,0,1-.14,0,1.53,1.53,0,0,0-.86-.33,1.1,1.1,0,0,0-.64.19.55.55,0,0,0-.25.43.44.44,0,0,0,.23.38,1.74,1.74,0,0,0,.68.24h0a2.22,2.22,0,0,1,.8.29.72.72,0,0,1,.34.59.77.77,0,0,1-.35.63,1.35,1.35,0,0,1-.81.25,2,2,0,0,1-1.16-.45A.11.11,0,0,1,54,101Z" style="fill:#c7c7c7"></path><path d="M57,100.5A1.09,1.09,0,0,1,58,99.39a1.07,1.07,0,0,1,1.06,1h0v0a.1.1,0,0,1-.1.09H57.18a.86.86,0,0,0,.85.85.83.83,0,0,0,.71-.4.12.12,0,0,1,.15,0,.12.12,0,0,1,0,.16,1,1,0,0,1-.89.5A1.09,1.09,0,0,1,57,100.5Zm.23-.18h1.67a.85.85,0,0,0-.83-.71A.86.86,0,0,0,57.19,100.32Z" style="fill:#c7c7c7"></path><path d="M61.71,99.5v2a.11.11,0,0,1-.22,0v-.33a1,1,0,0,1-.83.44,1.11,1.11,0,0,1,0-2.21,1,1,0,0,1,.83.43V99.5a.11.11,0,0,1,.22,0Zm-.22,1a.83.83,0,1,0-.83.89A.86.86,0,0,0,61.49,100.49Z" style="fill:#c7c7c7"></path><path d="M62.64,99.5c0-.06,0-.1.12-.1a.1.1,0,0,1,.1.1V100l0,0a1.07,1.07,0,0,1,.88-.54.1.1,0,0,1,.11.1.11.11,0,0,1-.11.11.81.81,0,0,0-.64.36,2.22,2.22,0,0,0-.26.52,0,0,0,0,0,0,0v1a.11.11,0,0,1-.1.11.11.11,0,0,1-.12-.11Z" style="fill:#c7c7c7"></path><path d="M64.35,100.49a1.11,1.11,0,0,1,1.13-1.1,1.09,1.09,0,0,1,.7.25.09.09,0,0,1,0,.14.11.11,0,0,1-.15,0,1,1,0,0,0-.57-.2.89.89,0,1,0,0,1.78,1,1,0,0,0,.57-.19.11.11,0,0,1,.15,0,.11.11,0,0,1,0,.16,1.14,1.14,0,0,1-.7.24A1.11,1.11,0,0,1,64.35,100.49Z" style="fill:#c7c7c7"></path><path d="M68.69,100.26a.7.7,0,0,0-1.39,0v1.23h0a0,0,0,0,1,0,0s0,0,0,0a.1.1,0,0,1-.06,0h0a.12.12,0,0,1-.08,0,.05.05,0,0,1,0,0v-3a.11.11,0,0,1,.1-.11.11.11,0,0,1,.12.11v1.16a.91.91,0,0,1,1.61.54v1.23a.1.1,0,0,1-.11.11.11.11,0,0,1-.11-.11Z" style="fill:#c7c7c7"></path><path d="M151.41,101.18h-1.58V98.76a.78.78,0,0,1,.79-.78h0a.78.78,0,0,1,.79.78Z" style="fill:#c7c7c7"></path><path d="M150.62,102.67a.09.09,0,0,1-.09-.09v-1.12a.09.09,0,0,1,.09-.1.09.09,0,0,1,.1.1v1.12A.09.09,0,0,1,150.62,102.67Z" style="fill:#c7c7c7"></path><path d="M151.82,101.46a.1.1,0,0,1-.1.09h-2.2a.09.09,0,0,1-.1-.09.09.09,0,0,1,.1-.1h2.2A.1.1,0,0,1,151.82,101.46Z" style="fill:#c7c7c7"></path><path d="M149.52,100.07a.1.1,0,0,1,.09.1v1.29a.09.09,0,0,1-.09.09.09.09,0,0,1-.1-.09v-1.29A.1.1,0,0,1,149.52,100.07Z" style="fill:#c7c7c7"></path><path d="M151.72,100.07a.11.11,0,0,1,.1.1v1.29a.1.1,0,0,1-.1.09.09.09,0,0,1-.09-.09v-1.29A.1.1,0,0,1,151.72,100.07Z" style="fill:#c7c7c7"></path><path d="M151.23,102.67H150a.09.09,0,0,1-.1-.09.09.09,0,0,1,.1-.1h1.22a.1.1,0,0,1,.1.1A.1.1,0,0,1,151.23,102.67Z" style="fill:#c7c7c7"></path><path d="M45.39,117.25v-3.36a.31.31,0,0,1,.31-.32h.68a2,2,0,0,1,0,4H45.7A.31.31,0,0,1,45.39,117.25Zm.63-.31h.36a1.37,1.37,0,0,0,1.35-1.37,1.35,1.35,0,0,0-1.35-1.36H46Z" style="fill:#263238"></path><path d="M50.06,114a.31.31,0,1,1-.62,0v-.12a.31.31,0,0,1,.62,0Zm0,1v2.22a.31.31,0,0,1-.62,0V115a.31.31,0,1,1,.62,0Z" style="fill:#263238"></path><path d="M50.9,116.75a.3.3,0,0,1,.43,0A1.14,1.14,0,0,0,52,117a.78.78,0,0,0,.39-.11.24.24,0,0,0,.1-.17.11.11,0,0,0,0-.06s0,0-.07-.07a1.48,1.48,0,0,0-.46-.16h0a1.94,1.94,0,0,1-.5-.15.9.9,0,0,1-.4-.33.69.69,0,0,1-.09-.36.8.8,0,0,1,.33-.62,1.21,1.21,0,0,1,.71-.21,1.42,1.42,0,0,1,.85.31.31.31,0,0,1,.09.42.29.29,0,0,1-.42.08,1,1,0,0,0-.52-.21.66.66,0,0,0-.35.1.2.2,0,0,0-.09.13.07.07,0,0,0,0,0l.07.06a1.09,1.09,0,0,0,.41.13h0a2,2,0,0,1,.54.17.84.84,0,0,1,.4.33.76.76,0,0,1,.11.38.81.81,0,0,1-.36.66,1.32,1.32,0,0,1-.74.23,1.7,1.7,0,0,1-1-.39A.32.32,0,0,1,50.9,116.75Z" style="fill:#263238"></path><path d="M53.65,116.15a1.44,1.44,0,0,1,1.45-1.43A1.51,1.51,0,0,1,56,115a.31.31,0,0,1,.06.42.31.31,0,0,1-.43.06.9.9,0,0,0-.54-.18.82.82,0,1,0,0,1.63.92.92,0,0,0,.54-.18.32.32,0,0,1,.43.06.33.33,0,0,1-.06.43,1.65,1.65,0,0,1-.91.3A1.44,1.44,0,0,1,53.65,116.15Z" style="fill:#263238"></path><path d="M57.29,117.15a1.4,1.4,0,0,1-.4-1,1.45,1.45,0,0,1,.4-1,1.31,1.31,0,0,1,1-.43,1.23,1.23,0,0,1,.95.43,1.41,1.41,0,0,1,.4,1,1.36,1.36,0,0,1-.4,1,1.24,1.24,0,0,1-.95.44A1.32,1.32,0,0,1,57.29,117.15Zm.23-1a.92.92,0,0,0,.2.6.75.75,0,0,0,.55.21.72.72,0,0,0,.52-.21.9.9,0,0,0,0-1.2.81.81,0,0,0-.52-.21.85.85,0,0,0-.55.21A.92.92,0,0,0,57.52,116.15Z" style="fill:#263238"></path><path d="M62.68,115.17l-.94,2.22a.08.08,0,0,1,0,0h0l0,0a0,0,0,0,1,0,0l0,0h0l0,0h-.24l-.05,0h0l0,0s0,0,0,0l0,0h0s0,0,0,0l-.92-2.22a.29.29,0,0,1,.16-.39.3.3,0,0,1,.38.17l.66,1.55.66-1.55a.3.3,0,0,1,.38-.17A.29.29,0,0,1,62.68,115.17Z" style="fill:#263238"></path><path d="M63.38,116.14a1.41,1.41,0,0,1,1.39-1.42A1.37,1.37,0,0,1,66.15,116v0s0,0,0,.05a.28.28,0,0,1-.3.23H64a.73.73,0,0,0,.19.37.92.92,0,0,0,1.14.12.32.32,0,0,1,.43,0,.26.26,0,0,1,0,.37,1.44,1.44,0,0,1-2.41-1Zm.62-.28h1.62a.94.94,0,0,0-.85-.6A.8.8,0,0,0,64,115.86Z" style="fill:#263238"></path><path d="M68.69,115a.3.3,0,0,1-.3.3.51.51,0,0,0-.34.11.84.84,0,0,0-.26.27,1.88,1.88,0,0,0-.24.48v1.09a.31.31,0,0,1-.31.3.3.3,0,0,1-.3-.3V115a.29.29,0,0,1,.3-.3.3.3,0,0,1,.31.3v0a1,1,0,0,1,.84-.34A.29.29,0,0,1,68.69,115Z" style="fill:#263238"></path><path d="M45.39,125.21c12.41-.33,26.08-.33,38.49,0-12.41.33-26.08.33-38.49,0Z" style="fill:#263238"></path><path d="M45.39,131.53c17.85-.33,37.49-.33,55.34,0-17.85.33-37.49.32-55.34,0Z" style="fill:#263238"></path><path d="M45.39,137.84c14.7-.32,30.88-.33,45.58,0-14.7.33-30.88.33-45.58,0Z" style="fill:#263238"></path><path d="M45.39,144.16c12.41-.33,26.08-.33,38.49,0-12.41.33-26.08.33-38.49,0Z" style="fill:#263238"></path><path d="M45.39,150.48c15.06-.33,31.63-.33,46.69,0-15.06.33-31.63.32-46.69,0Z" style="fill:#263238"></path><rect x="45.09" y="161.35" width="16.63" height="16.63" style="fill:#455a64"></rect><path d="M66.78,161.35c14.7-.33,30.88-.33,45.58,0-14.7.33-30.88.32-45.58,0Z" style="fill:#263238"></path><path d="M66.78,164.45c12.41-.33,26.07-.33,38.49,0-12.42.33-26.08.33-38.49,0Z" style="fill:#263238"></path><rect x="138.41" y="161.23" width="16.01" height="6.45" style="fill:#ebebeb"></rect><path d="M144.34,164.49a.11.11,0,0,1-.12-.11.12.12,0,0,1,.12-.12h1a.12.12,0,0,1,.1.12v1.1a.12.12,0,0,1,0,.08,1.65,1.65,0,0,1-2.65-1.26,1.61,1.61,0,0,1,1.63-1.59,1.66,1.66,0,0,1,1,.35.11.11,0,1,1-.15.17,1.39,1.39,0,1,0-.88,2.45,1.45,1.45,0,0,0,.84-.27v-.92Z" style="fill:#c7c7c7"></path><path d="M146.33,164.81a1.07,1.07,0,0,1,2.13-.09h0a.1.1,0,0,1-.11.1h-1.81a.87.87,0,0,0,.86.85.85.85,0,0,0,.71-.4.1.1,0,0,1,.14,0,.12.12,0,0,1,0,.15,1,1,0,0,1-.89.5A1.08,1.08,0,0,1,146.33,164.81Zm.23-.18h1.67a.87.87,0,0,0-.83-.72A.86.86,0,0,0,146.56,164.63Z" style="fill:#c7c7c7"></path><path d="M149.82,163.81a.12.12,0,0,1-.11.1h-.28v1.61a.16.16,0,0,0,.16.16.13.13,0,0,1,.11.12.12.12,0,0,1-.11.1.38.38,0,0,1-.39-.38v-1.61h-.27c-.11,0-.11,0-.11-.1s0-.11.11-.11h.27v-.82a.11.11,0,0,1,.11-.11.12.12,0,0,1,.12.11v.82h.28A.12.12,0,0,1,149.82,163.81Z" style="fill:#c7c7c7"></path><rect x="45.09" y="185.6" width="16.63" height="16.63" style="fill:#219015"></rect><path d="M66.78,185.6c14.7-.32,30.88-.33,45.58,0-14.7.33-30.88.33-45.58,0Z" style="fill:#263238"></path><path d="M66.78,188.71c12.41-.33,26.07-.33,38.49,0-12.42.33-26.08.32-38.49,0Z" style="fill:#263238"></path><rect x="138.41" y="185.48" width="16.01" height="6.45" style="fill:#ebebeb"></rect><path d="M144.34,188.74a.11.11,0,0,1-.12-.11.11.11,0,0,1,.12-.11h1a.12.12,0,0,1,.1.11v1.1a.1.1,0,0,1,0,.08,1.63,1.63,0,0,1-1,.35,1.6,1.6,0,1,1,0-3.2,1.67,1.67,0,0,1,1,.36.11.11,0,0,1,0,.15.11.11,0,0,1-.16,0,1.42,1.42,0,0,0-2.29,1.07,1.4,1.4,0,0,0,1.41,1.38,1.45,1.45,0,0,0,.84-.27v-.93Z" style="fill:#c7c7c7"></path><path d="M146.33,189.06a1.07,1.07,0,0,1,2.13-.08h0a.1.1,0,0,1-.11.1h-1.81a.86.86,0,0,0,.86.84.83.83,0,0,0,.71-.4.1.1,0,0,1,.14,0,.11.11,0,0,1,0,.15,1.06,1.06,0,0,1-.89.5A1.08,1.08,0,0,1,146.33,189.06Zm.23-.17h1.67a.84.84,0,0,0-1.67,0Z" style="fill:#c7c7c7"></path><path d="M149.82,188.06a.12.12,0,0,1-.11.11h-.28v1.61a.16.16,0,0,0,.16.16.13.13,0,0,1,.11.11.12.12,0,0,1-.11.11.38.38,0,0,1-.39-.38v-1.61h-.27c-.11,0-.11,0-.11-.11s0-.1.11-.1h.27v-.82a.11.11,0,0,1,.11-.11.12.12,0,0,1,.12.11V188h.28A.12.12,0,0,1,149.82,188.06Z" style="fill:#c7c7c7"></path><rect x="45.09" y="209.86" width="16.63" height="16.63" style="fill:#263238"></rect><path d="M66.78,209.86c14.7-.33,30.88-.33,45.58,0-14.7.33-30.88.33-45.58,0Z" style="fill:#263238"></path><path d="M66.78,213c12.41-.32,26.07-.33,38.49,0-12.42.33-26.08.33-38.49,0Z" style="fill:#263238"></path><rect x="138.41" y="209.74" width="16.01" height="6.45" style="fill:#ebebeb"></rect><path d="M144.34,213a.11.11,0,1,1,0-.22h1a.1.1,0,0,1,.1.11V214a.12.12,0,0,1,0,.08,1.64,1.64,0,0,1-2.65-1.26,1.62,1.62,0,0,1,1.63-1.59,1.67,1.67,0,0,1,1,.36.11.11,0,0,1,0,.15.13.13,0,0,1-.16,0,1.39,1.39,0,1,0-.88,2.45,1.45,1.45,0,0,0,.84-.27V213Z" style="fill:#c7c7c7"></path><path d="M146.33,213.32a1.07,1.07,0,1,1,2.13-.08h0v0a.1.1,0,0,1-.11.09h-1.81a.86.86,0,0,0,.86.85.83.83,0,0,0,.71-.4.11.11,0,0,1,.14,0,.13.13,0,0,1,0,.16,1.06,1.06,0,0,1-.89.5A1.08,1.08,0,0,1,146.33,213.32Zm.23-.18h1.67a.85.85,0,0,0-1.67,0Z" style="fill:#c7c7c7"></path><path d="M149.82,212.32a.13.13,0,0,1-.11.11h-.28V214a.17.17,0,0,0,.16.17.11.11,0,1,1,0,.22.38.38,0,0,1-.39-.39v-1.6h-.27c-.11,0-.11-.06-.11-.11s0-.11.11-.11h.27v-.82a.12.12,0,0,1,.11-.11.13.13,0,0,1,.12.11v.82h.28A.13.13,0,0,1,149.82,212.32Z" style="fill:#c7c7c7"></path><rect x="45.09" y="234.12" width="16.63" height="16.63" style="fill:#455a64"></rect><path d="M66.78,234.12c14.7-.33,30.88-.33,45.58,0-14.7.33-30.88.33-45.58,0Z" style="fill:#263238"></path><path d="M66.78,237.22c12.41-.33,26.07-.33,38.49,0-12.42.33-26.08.33-38.49,0Z" style="fill:#263238"></path><rect x="138.41" y="234" width="16.01" height="6.45" style="fill:#ebebeb"></rect><path d="M144.34,237.26a.11.11,0,1,1,0-.22h1a.1.1,0,0,1,.1.11v1.1a.12.12,0,0,1,0,.08,1.65,1.65,0,0,1-2.65-1.26,1.61,1.61,0,0,1,1.63-1.59,1.66,1.66,0,0,1,1,.35.11.11,0,1,1-.15.17,1.44,1.44,0,0,0-.88-.3,1.38,1.38,0,1,0,0,2.75,1.45,1.45,0,0,0,.84-.27v-.92Z" style="fill:#c7c7c7"></path><path d="M146.33,237.58a1.07,1.07,0,0,1,2.13-.09h0a.1.1,0,0,1-.11.1h-1.81a.87.87,0,0,0,.86.85.83.83,0,0,0,.71-.4.1.1,0,0,1,.14,0,.12.12,0,0,1,0,.15,1,1,0,0,1-.89.5A1.08,1.08,0,0,1,146.33,237.58Zm.23-.18h1.67a.87.87,0,0,0-.83-.72A.86.86,0,0,0,146.56,237.4Z" style="fill:#c7c7c7"></path><path d="M149.82,236.58a.12.12,0,0,1-.11.1h-.28v1.61a.16.16,0,0,0,.16.16.13.13,0,0,1,.11.12.12.12,0,0,1-.11.1.38.38,0,0,1-.39-.38v-1.61h-.27c-.11,0-.11-.05-.11-.1s0-.11.11-.11h.27v-.82a.12.12,0,0,1,.11-.11.13.13,0,0,1,.12.11v.82h.28A.12.12,0,0,1,149.82,236.58Z" style="fill:#c7c7c7"></path><rect x="45.09" y="258.38" width="16.63" height="16.63" style="fill:#219015"></rect><path d="M66.78,258.38c14.7-.33,30.88-.33,45.58,0-14.7.33-30.88.32-45.58,0Z" style="fill:#263238"></path><path d="M66.78,261.48c12.41-.33,26.07-.33,38.49,0-12.42.33-26.08.33-38.49,0Z" style="fill:#263238"></path><rect x="138.41" y="258.25" width="16.01" height="6.45" style="fill:#ebebeb"></rect><path d="M144.34,261.51c-.07,0-.12,0-.12-.1a.12.12,0,0,1,.12-.12h1a.12.12,0,0,1,.1.12v1.08h0a.09.09,0,0,1,0,.08,1.58,1.58,0,0,1-1,.35,1.6,1.6,0,1,1,0-3.19,1.66,1.66,0,0,1,1,.35.11.11,0,0,1,0,.15.11.11,0,0,1-.16,0,1.42,1.42,0,0,0-2.29,1.07,1.4,1.4,0,0,0,1.41,1.38,1.45,1.45,0,0,0,.84-.27v-.93Z" style="fill:#c7c7c7"></path><path d="M146.33,261.83a1.07,1.07,0,0,1,2.13-.08h0a.1.1,0,0,1-.11.1h-1.81a.87.87,0,0,0,.86.85.85.85,0,0,0,.71-.4.1.1,0,0,1,.14,0,.12.12,0,0,1,0,.15,1.06,1.06,0,0,1-.89.5A1.08,1.08,0,0,1,146.33,261.83Zm.23-.17h1.67a.84.84,0,0,0-1.67,0Z" style="fill:#c7c7c7"></path><path d="M149.82,260.83a.12.12,0,0,1-.11.11h-.28v1.61a.16.16,0,0,0,.16.16.13.13,0,0,1,.11.11.12.12,0,0,1-.11.11.38.38,0,0,1-.39-.38v-1.61h-.27c-.11,0-.11-.05-.11-.11s0-.1.11-.1h.27v-.82a.11.11,0,0,1,.11-.11.12.12,0,0,1,.12.11v.82h.28A.12.12,0,0,1,149.82,260.83Z" style="fill:#c7c7c7"></path><rect x="45.09" y="282.63" width="16.63" height="16.63" style="fill:#455a64"></rect><path d="M66.78,282.63c14.7-.32,30.88-.33,45.58,0-14.7.33-30.88.33-45.58,0Z" style="fill:#263238"></path><path d="M66.78,285.73c12.41-.32,26.07-.33,38.49,0-12.42.33-26.08.33-38.49,0Z" style="fill:#263238"></path><rect x="138.41" y="282.51" width="16.01" height="6.45" style="fill:#ebebeb"></rect><path d="M144.34,285.77a.11.11,0,0,1-.12-.11.11.11,0,0,1,.12-.11h1a.1.1,0,0,1,.1.11v1.1a.12.12,0,0,1,0,.08,1.63,1.63,0,0,1-1,.35,1.6,1.6,0,1,1,0-3.2,1.67,1.67,0,0,1,1,.36.11.11,0,0,1,0,.15.11.11,0,0,1-.16,0,1.39,1.39,0,1,0-.88,2.45,1.45,1.45,0,0,0,.84-.27v-.93Z" style="fill:#c7c7c7"></path><path d="M146.33,286.09a1.07,1.07,0,1,1,2.13-.08h0v0a.1.1,0,0,1-.11.1h-1.81a.86.86,0,0,0,.86.84.83.83,0,0,0,.71-.4.1.1,0,0,1,.14,0,.11.11,0,0,1,0,.15,1.06,1.06,0,0,1-.89.5A1.08,1.08,0,0,1,146.33,286.09Zm.23-.18h1.67a.85.85,0,0,0-1.67,0Z" style="fill:#c7c7c7"></path><path d="M149.82,285.09a.12.12,0,0,1-.11.11h-.28v1.61a.17.17,0,0,0,.16.16.11.11,0,0,1,0,.22.38.38,0,0,1-.39-.38V285.2h-.27c-.11,0-.11-.05-.11-.11s0-.11.11-.11h.27v-.82a.11.11,0,0,1,.11-.1.12.12,0,0,1,.12.1V285h.28A.13.13,0,0,1,149.82,285.09Z" style="fill:#c7c7c7"></path><path d="M47.47,85.71h-1v1.71a.44.44,0,0,1-.45.43.43.43,0,0,1-.43-.43V82.76a.44.44,0,0,1,.43-.44h1.42a1.7,1.7,0,1,1,0,3.39Zm-1-.88h1a.82.82,0,1,0,0-1.63h-1Z" style="fill:#263238"></path><path d="M52.57,84.32a.42.42,0,0,1-.42.42.75.75,0,0,0-.47.15,1.34,1.34,0,0,0-.37.38,2.35,2.35,0,0,0-.32.66v1.51a.43.43,0,0,1-.44.41.41.41,0,0,1-.41-.41V84.32a.41.41,0,0,1,.41-.41.43.43,0,0,1,.44.41v.06a.85.85,0,0,1,.17-.16,1.74,1.74,0,0,1,1-.31A.41.41,0,0,1,52.57,84.32Z" style="fill:#263238"></path><path d="M53.77,87.28a2,2,0,0,1-.55-1.39,2.06,2.06,0,0,1,.55-1.39,1.83,1.83,0,0,1,1.36-.6,1.76,1.76,0,0,1,1.32.6A2,2,0,0,1,57,85.89a1.94,1.94,0,0,1-.55,1.39,1.76,1.76,0,0,1-1.32.6A1.83,1.83,0,0,1,53.77,87.28Zm.32-1.39a1.26,1.26,0,0,0,.28.83,1.08,1.08,0,0,0,.76.3,1.06,1.06,0,0,0,.73-.3,1.22,1.22,0,0,0,.3-.83,1.24,1.24,0,0,0-.3-.83,1.16,1.16,0,0,0-.73-.3,1.18,1.18,0,0,0-.76.3A1.28,1.28,0,0,0,54.09,85.89Z" style="fill:#263238"></path><path d="M61.92,87.43a.42.42,0,0,1-.43.42.41.41,0,0,1-.41-.33,2,2,0,0,1-1.08.33,2,2,0,0,1,0-3.95,1.9,1.9,0,0,1,1.06.33V82.75a.43.43,0,0,1,.86,0v3.13h0ZM60,84.76a1,1,0,0,0-.74.33,1.12,1.12,0,0,0-.32.8,1.1,1.1,0,0,0,.32.78A1,1,0,0,0,60,87a1,1,0,0,0,.74-.32,1.1,1.1,0,0,0,.32-.78,1.12,1.12,0,0,0-.32-.8A1,1,0,0,0,60,84.76Z" style="fill:#263238"></path><path d="M65.12,87.85a1.66,1.66,0,0,1-1.65-1.64V84.32a.43.43,0,0,1,.42-.42.42.42,0,0,1,.42.42v1.89a.81.81,0,0,0,.81.81.82.82,0,0,0,.83-.81V84.32a.41.41,0,0,1,.41-.42.45.45,0,0,1,.43.42v1.89A1.67,1.67,0,0,1,65.12,87.85Z" style="fill:#263238"></path><path d="M68.12,85.89a2,2,0,0,1,2-2,2.09,2.09,0,0,1,1.26.44.44.44,0,0,1,.09.58.42.42,0,0,1-.59.08,1.28,1.28,0,0,0-.76-.25,1.14,1.14,0,1,0,0,2.27,1.31,1.31,0,0,0,.76-.26.43.43,0,0,1,.59.09.45.45,0,0,1-.09.59,2.2,2.2,0,0,1-1.26.41A2,2,0,0,1,68.12,85.89Z" style="fill:#263238"></path><path d="M74.68,84.34a.44.44,0,0,1-.44.43H74V87a.44.44,0,0,1,.44.44.42.42,0,0,1-.44.43.88.88,0,0,1-.88-.87V84.77h-.23a.44.44,0,0,1,0-.87h.23V82.76a.44.44,0,0,1,.45-.44.43.43,0,0,1,.43.44V83.9h.2A.44.44,0,0,1,74.68,84.34Z" style="fill:#263238"></path><path d="M75.87,86.72a.42.42,0,0,1,.59-.06,1.44,1.44,0,0,0,.87.35,1,1,0,0,0,.54-.15c.11-.1.14-.17.14-.24a.11.11,0,0,0,0-.08.3.3,0,0,0-.1-.09,1.72,1.72,0,0,0-.64-.22h0a2.79,2.79,0,0,1-.69-.21,1.34,1.34,0,0,1-.55-.46,1,1,0,0,1-.13-.5,1.09,1.09,0,0,1,.47-.86,1.67,1.67,0,0,1,1-.3,2,2,0,0,1,1.18.44.43.43,0,0,1,.13.58A.42.42,0,0,1,78,85a1.38,1.38,0,0,0-.72-.29.83.83,0,0,0-.48.14.25.25,0,0,0-.12.18.15.15,0,0,0,0,.07.24.24,0,0,0,.09.08,1.68,1.68,0,0,0,.58.19h0a3,3,0,0,1,.74.23,1.33,1.33,0,0,1,.56.47,1.08,1.08,0,0,1,.15.52,1.14,1.14,0,0,1-.5.92,1.77,1.77,0,0,1-1,.31,2.24,2.24,0,0,1-1.4-.54A.42.42,0,0,1,75.87,86.72Z" style="fill:#263238"></path></g><g id="freepik--Lines--inject-5"><polygon points="174.91 194.45 110.07 194.45 110.07 193.95 174.41 193.95 174.41 154.44 189.04 154.44 189.04 154.94 174.91 154.94 174.91 194.45" style="fill:#219015"></polygon><circle cx="110.14" cy="194.2" r="1.32" style="fill:#219015"></circle><path d="M189,156a1.32,1.32,0,1,0-1.32-1.32A1.32,1.32,0,0,0,189,156Z" style="fill:#219015"></path><polygon points="325.56 193.45 214.07 193.45 214.07 192.95 325.06 192.95 325.06 138.5 338.86 138.5 338.86 139 325.56 139 325.56 193.45" style="fill:#219015"></polygon><path d="M214.14,194.52a1.32,1.32,0,1,1,1.31-1.32A1.32,1.32,0,0,1,214.14,194.52Z" style="fill:#219015"></path><path d="M338.79,140.07a1.32,1.32,0,1,0-1.32-1.32A1.32,1.32,0,0,0,338.79,140.07Z" style="fill:#219015"></path><rect x="447.34" y="102.98" width="0.5" height="37.85" style="fill:#219015"></rect><path d="M448.91,140.76a1.32,1.32,0,1,1-1.31-1.31A1.32,1.32,0,0,1,448.91,140.76Z" style="fill:#219015"></path><path d="M448.91,103a1.32,1.32,0,1,0-1.31,1.32A1.31,1.31,0,0,0,448.91,103Z" style="fill:#219015"></path></g><g id="freepik--Character--inject-5"><path d="M303.35,385.84s-2.46,47.44-2.46,47.47c.11,8.76.37,16.45.87,20.41a.13.13,0,0,0,0,.06,6.14,6.14,0,0,0,.68,2.7s0,0,.05.06c2.63,1.73,72.72,2.86,75.18,2.08s.41-7.85-2.27-10.06-29.33-14.65-29.33-14.65l.3-47.41Z" style="fill:#ad6359"></path><path d="M300.71,423.9s.18,9.38.18,9.41c.11,8.76.37,16.45.87,20.41a.13.13,0,0,0,0,.06,11.77,11.77,0,0,0,.68,2.7s0,0,.05.06c2.63,1.73,72.72,2.86,75.18,2.08s.41-7.85-2.27-10.06-29.33-14.65-29.33-14.65l-.05-9.55Z" style="fill:#fff"></path><path d="M350.37,433.89c-4.68-.72-10.34.17-13.78,3.59-.14.13.05.32.2.27a65.12,65.12,0,0,1,13.58-3.27A.3.3,0,0,0,350.37,433.89Z" style="fill:#263238"></path><path d="M353.79,435.81c-4.68-.72-10.34.17-13.79,3.59-.13.13.06.32.21.27a65.12,65.12,0,0,1,13.58-3.27A.3.3,0,0,0,353.79,435.81Z" style="fill:#263238"></path><path d="M357.2,437.73c-4.67-.73-10.33.16-13.78,3.59-.13.13.06.32.21.26a65.82,65.82,0,0,1,13.57-3.27A.29.29,0,0,0,357.2,437.73Z" style="fill:#263238"></path><path d="M377.68,458.62c-2.46.79-72.54-.34-75.18-2.08-1-.65-1.45-10.87-1.61-23.23v-.39l45.22.23,0,.76s26.63,12.43,29.33,14.65S380.14,457.85,377.68,458.62Z" style="fill:#37474f"></path><path d="M300.88,432.91v.4c.18,12.36.6,22.59,1.62,23.23,1.19.79,16.39,1.45,32.81,1.88,19.64.5,41,.63,42.37.21,2.46-.79.4-7.86-2.27-10.07s-29.33-14.65-29.33-14.65l0-.76L331,433.07Z" style="fill:#455a64"></path><path d="M376.93,455.89c-11.81-.48-59.48-1.3-71.19-.88-.1,0-.1.07,0,.07,11.69.74,59.37,1.17,71.19,1C377.17,456.08,377.18,455.9,376.93,455.89Z" style="fill:#263238"></path><path d="M297.05,433.31l53.32.6s1.17-86.48,1.12-114c-.06-31.44-4.77-125.28-4.77-125.28l-37.9.38a120,120,0,0,0-8.25,29.61c-.61,4.39.08,17.16,1.59,23L303.52,324Z" style="fill:#263238"></path><path d="M343.33,378.7c.45-13.66.72-30.42,1-44.08q.72-41-.22-82c-.34-15.33-.9-30.65-1.51-46,0-.18.26-.17.27,0,1.72,27.42,2.54,54.91,2.85,82.38.3,27.32,0,57.76-1.05,85.07-.6,15.33-1.39,30.67-2.68,45.95a.11.11,0,0,1-.21,0C342.22,406.28,342.87,392.49,343.33,378.7Z" style="fill:#37474f"></path><path d="M343.64,425.74c-10.19-.69-20.43-.7-30.64-.51-2.88.06-5.77.14-8.65.28a.08.08,0,0,0,0,.16c10.18.63,20.43.75,30.63.55,2.89-.06,5.77-.15,8.65-.31A.09.09,0,0,0,343.64,425.74Z" style="fill:#37474f"></path><path d="M371,390.54s.17,44,.17,44c.11,8.77.37,16.45.87,20.41a.17.17,0,0,0,0,.07,6.19,6.19,0,0,0,.68,2.7l.05.05c2.64,1.74,72.72,2.87,75.18,2.08s.42-7.85-2.27-10.06-29.33-14.65-29.33-14.65l-2.58-44.5Z" style="fill:#ad6359"></path><path d="M371,425.16s.17,9.38.17,9.41c.11,8.77.37,16.45.87,20.41a.17.17,0,0,0,0,.07,12.12,12.12,0,0,0,.68,2.7l.05.05c2.64,1.74,72.72,2.87,75.18,2.08s.42-7.85-2.27-10.06-29.33-14.65-29.33-14.65l-.05-9.55Z" style="fill:#fff"></path><path d="M420.68,435.15c-4.67-.72-10.34.17-13.78,3.59-.14.14.05.32.2.27a65.12,65.12,0,0,1,13.58-3.27A.3.3,0,0,0,420.68,435.15Z" style="fill:#263238"></path><path d="M424.1,437.07c-4.68-.72-10.34.17-13.79,3.59-.13.13.06.32.21.27a65.12,65.12,0,0,1,13.58-3.27A.3.3,0,0,0,424.1,437.07Z" style="fill:#263238"></path><path d="M427.51,439c-4.67-.72-10.33.17-13.78,3.59-.13.13.06.32.21.27a65.18,65.18,0,0,1,13.57-3.27A.3.3,0,0,0,427.51,439Z" style="fill:#263238"></path><path d="M448,459.88c-2.46.79-72.54-.34-75.18-2.08-1-.64-1.44-10.86-1.61-23.23v-.39l45.22.23,0,.76s26.63,12.44,29.33,14.65S450.45,459.11,448,459.88Z" style="fill:#455a64"></path><path d="M447.24,457.15c-11.81-.48-59.48-1.3-71.19-.88-.1,0-.1.07,0,.08,11.69.73,59.37,1.17,71.19,1C447.49,457.34,447.49,457.16,447.24,457.15Z" style="fill:#263238"></path><path d="M331.29,243.31s25.71,66.33,28.19,76.94c2.34,10,6.48,114.32,6.48,114.32l52.25-.39S410.86,328.74,409.93,318C408.72,304,396.48,272,383.52,237.7,378,223.19,370.64,209,366.76,194.43L310,195s.75,25.63,12.59,44.06C322.58,239.05,327.89,241.44,331.29,243.31Z" style="fill:#263238"></path><path d="M413.81,425.74c-10.19-.69-20.43-.7-30.64-.51-2.88.06-5.77.14-8.65.28a.08.08,0,0,0,0,.16c10.19.63,20.44.75,30.64.55,2.89-.06,5.77-.15,8.65-.31A.09.09,0,0,0,413.81,425.74Z" style="fill:#37474f"></path><path d="M399.56,375.34l-1.32-23.26c-.44-7.72-.64-15.49-1.37-23.18-.7-7.39-3.71-14.11-6.38-20.95-2.81-7.19-5.62-14.38-8.55-21.52-5.58-13.6-11.85-26.89-17.47-40.47-5.41-13.06-10.19-26.81-11.45-41-.15-1.73-.3-3.46-.4-5.19a.11.11,0,0,0-.22,0c-.36,14.06,3.68,27.89,8.69,40.88,5.23,13.55,11.56,26.66,17.15,40.06q4.45,10.69,8.72,21.46L391.22,313a87,87,0,0,1,3.72,10.36,60.11,60.11,0,0,1,1.31,11.29l.66,11.51,1.35,23.48c.89,15.65,1.71,31.32,2.88,46.95q.21,2.88.44,5.76c0,.21.34.2.33,0C401.38,406.64,400.44,391,399.56,375.34Z" style="fill:#37474f"></path><path d="M344.32,244.44a46.72,46.72,0,0,1-7.83-.63,73.82,73.82,0,0,1-7.59-2,61.85,61.85,0,0,0-7.44-1.14,25.67,25.67,0,0,1-7.3-2.09c-.11-.06-.2.11-.09.16a45.76,45.76,0,0,0,7,3c2.51.76,5.12.84,7.66,1.44a65.14,65.14,0,0,0,7.81,1.72,28.38,28.38,0,0,0,7.81-.21C344.45,244.6,344.42,244.44,344.32,244.44Z" style="fill:#37474f"></path><path d="M349.46,290.36c-.55-1.71-1.08-3.43-1.67-5.14-1.19-3.45-2.39-6.9-3.71-10.32-2.61-6.8-5.08-13.64-7.85-20.4-1.56-3.84-3-7.72-4.8-11.48,0-.09-.21-.05-.18,0,.93,3.51,2.24,6.94,3.42,10.4s2.43,6.89,3.69,10.33c2.5,6.83,4.95,13.67,7.68,20.44.76,1.9,1.54,3.8,2.37,5.68s1.51,3.91,2.51,5.78c.06.1.23.05.2-.05C350.73,293.86,350,292.12,349.46,290.36Z" style="fill:#37474f"></path><path d="M350.43,131.23c-3.39,0-6.36-5.48-6.38-9.84,0-.32,1-3.1,2.17-6.54.7-2.1,1.42-4.44,1.93-6.64l13,6.54a36,36,0,0,0-3.29,8.11,4.27,4.27,0,0,0-.11.92s0,.09,0,.15C357.58,125.7,353.72,131.22,350.43,131.23Z" style="fill:#eb9481"></path><path d="M345.91,88c-2.92,5.5-3.37,20.6,0,25.18,5,6.63,14.74,9.07,20.79,2.73,5.86-6.15,6.19-25.25,2.21-29.58C363.1,80,350.23,79.87,345.91,88Z" style="fill:#eb9481"></path><path d="M347.25,85.18s-4.05,3-4.87,5-2,10.15.53,16c.9,2.1.09,6,1.9,7.71s12.27-1.92,13.22-3.41.28-7,.36-9.28,2.7-2.2,3.31-1.7c3.86,3.11,3.28,8.93,3.86,8s2.49-3.56,3-5.64S366.49,92.7,367,91.06s2.62,0,4.21,0c1,0,1.81-5.69.73-6.93s-4-1.26-5.12-1.57-2.31-2.09-5.43-2.77-7.23.34-8.87.64C349.91,80.9,347.25,85.18,347.25,85.18Z" style="fill:#263238"></path><path d="M364.57,104.27s-2.56-5.94-5.18-5.12S358,108,360.51,109.64a2.87,2.87,0,0,0,4.07-.74Z" style="fill:#eb9481"></path><path d="M359.78,101.45s-.06,0,0,.07c1.78,1.19,2.43,3.19,2.77,5.21a1.6,1.6,0,0,0-2.24-.91.06.06,0,0,0,0,.12,1.76,1.76,0,0,1,1.78,1,8.64,8.64,0,0,1,.6,1.73c.05.19.38.16.36,0v0C363.6,106.1,362.39,102.25,359.78,101.45Z" style="fill:#263238"></path><path d="M336,122.38c-14.82,7.5-41,30.35-40.34,37.56,1.28,13.29,32.4,28.49,38.53,32,2.62,1.49,11.77-22.15,9-23.8-2.41-1.43-19.9-7.88-19.88-10.28,0-1,9.38-12.64,17.35-26.67C346.72,120.42,340.34,120.17,336,122.38Z" style="fill:#eb9481"></path><path d="M337.86,165.75s2.6,1.43,9.67,2.92c5.52,1.17,17.69,7.75,20.68,23.33,1.15,6-2.54,9.38-4.83,3.39-1.61-4.22-2.37-7.28-3.28-8.51,0,0-2.09,6.59-5.91,7.82A75,75,0,0,1,344,197.19a14.9,14.9,0,0,1-.64-1.87,8.43,8.43,0,0,1-8.46-3l-5.47-2.88Z" style="fill:#eb9481"></path><path d="M352,171.16c1.84,2.32,5.65,7.3,7.35,12.46,1.88,5.73,4,17.28-.27,18.63-3.11,1-4.29-3.35-4.29-3.35s-.15,5-3.15,5.24c-2.74.25-3.46-3.16-3.46-3.16s-.6,3-3.29,2.73c-3.23-.32-1.44-6.54-4.43-9.68C339.73,193.32,352,171.16,352,171.16Z" style="fill:#eb9481"></path><path d="M352.91,184.61a24.05,24.05,0,0,1,1.91,14.2c0,.12-.13.17-.13.05a59.48,59.48,0,0,0-1.83-14.23S352.89,184.58,352.91,184.61Z" style="fill:#263238"></path><path d="M347.18,186.68c1,2.25,2.4,8.92,1.06,14.29,0,.12-.14.16-.13.05a63.92,63.92,0,0,0-1-14.32A0,0,0,1,1,347.18,186.68Z" style="fill:#263238"></path><path d="M337.86,165.75l-9.6,25.72s-34.62-19.85-33.07-32.77c1-8.46,26.41-29,37.75-35.34s14-3.22,8.16,8.52-17.06,25.9-17,26.21S337.86,165.75,337.86,165.75Z" style="fill:#219015"></path><path d="M336,164.77l-12.41,27.35s-30-20.5-28.44-33.42c1-8.46,26.41-29,37.75-35.34s14-3.22,8.16,8.52-17.06,25.9-17,26.21S336,164.77,336,164.77Z" style="fill:#37474f"></path><path d="M341.1,131.88c-5.8,11.72-17,25.84-17,26.2s12,6.69,12,6.69l-12.41,27.36s-14.17-9.69-22.52-19.93l40.1-52C345.1,120,345,123.93,341.1,131.88Z" style="fill:#263238"></path><path d="M298.6,208.15l76.88,6.43c1.24-14.74-3.4-73.91-16.36-88.85-3.19-3.68-13.25-7.9-16.91-5.49C321.48,133.87,298.82,207.27,298.6,208.15Z" style="fill:#37474f"></path><polygon points="343.12 120.52 344.36 115.93 359.29 123.18 359.1 125.94 343.12 120.52" style="fill:#219015"></polygon><polygon points="342.21 120.24 343.45 116.49 359.52 123.7 359.53 126.08 342.21 120.24" style="fill:#37474f"></polygon><path d="M353.57,133.12c-2.35,19.14,4.95,59.11,11.82,63.95,10.62,7.48,46.77-13.61,54.1-17.28,3.12-1.56-14.2-24.41-17.58-22.81-2.94,1.4-20,12.85-22.33,11.28-.95-.65-6.13-17.22-14.52-34C358.63,121.46,354.26,127.45,353.57,133.12Z" style="fill:#eb9481"></path><path d="M396,161.23s2.87-1.91,8.18-8.4c4.15-5.07,17.44-14.1,35.1-8.86,6.77,2,8.31,7.63.91,6.8-5.21-.59-8.77-1.45-10.52-1.17,0,0,5.68,5.68,4.9,10.27a85.74,85.74,0,0,1-2.88,11.84,18,18,0,0,1-2.27-.34,9.76,9.76,0,0,1-7.6,7.12l-5.57,3Z" style="fill:#eb9481"></path><path d="M409.15,149.6c3.37-.65,10.55-1.92,16.77-.91,6.92,1.11,19.94,5.13,19.06,10.22-.64,3.74-5.75,2.64-5.75,2.64s5,2.8,3.72,6c-1.2,3-5.1,1.87-5.1,1.87s2.76,2.22,1,4.85c-2,3.16-7.5-2-12.35-.6C425.46,174,409.15,149.6,409.15,149.6Z" style="fill:#eb9481"></path><path d="M423.52,155.8a27.85,27.85,0,0,1,15.67,5.62c.11.09.1.22,0,.16a69.12,69.12,0,0,0-15.66-5.72A0,0,0,0,1,423.52,155.8Z" style="fill:#263238"></path><path d="M422.6,162.81c2.83.21,10.47,2.3,15.3,6.55.11.09.09.22,0,.16a73.23,73.23,0,0,0-15.28-6.64A0,0,0,0,1,422.6,162.81Z" style="fill:#263238"></path><path d="M396.65,159.3l18.41,26.61S371,207.92,364,201s-12.67-49.34-11.41-64.35,5.92-15.55,13.49-2.36,14,33.19,14.28,33.36S396.65,159.3,396.65,159.3Z" style="fill:#37474f"></path><path d="M396.65,159.3a233.33,233.33,0,0,1-24.68,13,161.56,161.56,0,0,1,24.68-13Z" style="fill:#263238"></path><path d="M352.63,149c1.45,11.51,4.31,43.1,11,51.1,6.64,5.59,31-5.2,38.72-8.31-9.47,4.41-26.26,12.37-36.6,10.45-5.9-1.16-7.67-13.12-8.93-18.14a257.28,257.28,0,0,1-4.22-35.1Z" style="fill:#263238"></path><path d="M351.76,153c1,2.58,1.35,5.33,2.18,7.93-1.77-2.17-2.24-5.19-2.18-7.93Z" style="fill:#263238"></path></g><g id="freepik--speech-bubble--inject-5"><polygon points="463.89 58.75 463.89 91.34 450.32 91.34 447.59 96.81 444.87 91.34 431.3 91.34 431.3 58.75 463.89 58.75" style="fill:#219015"></polygon><polygon points="445.68 84.68 438.48 77.39 440.9 75 445.11 79.26 453.84 65.56 456.71 67.39 445.68 84.68" style="fill:#fff"></polygon></g></svg>
