<svg xmlns="http://www.w3.org/2000/svg" viewBox="0 0 750 500"><g id="freepik--background-complete--inject-56"><path d="M677.74,318.78l-13.13.28-6.66.11c-2.22.05-4.46,0-6.69.06h-.44v-.45l0-11.19v-.5h.5l13.24.07c4.41,0,8.83.11,13.24.16H678v.27c0,1.9-.08,3.79-.13,5.66Zm0,0-.14-5.65c-.05-1.86-.11-3.7-.13-5.54l.27.28c-4.41.05-8.83.16-13.24.16l-13.24.06.5-.5-.06,11.19-.44-.44c2.18,0,4.36,0,6.54.05l6.58.11Z" style="fill:#ebebeb"></path><path d="M663,332.89l-13.13.28-6.66.11c-2.22.05-4.46,0-6.69.06H636v-.45l0-11.19v-.5h.5l13.24.07c4.41,0,8.82.11,13.24.16h.27v.27c0,1.9-.09,3.79-.13,5.66Zm0,0-.14-5.65c-.05-1.86-.12-3.71-.13-5.54l.27.28c-4.42,0-8.83.16-13.24.16l-13.24.06.5-.5-.06,11.19-.44-.44c2.18,0,4.36,0,6.54.05l6.58.11Z" style="fill:#ebebeb"></path><path d="M692.51,332.89l-13.12.28-6.66.11c-2.23.05-4.47,0-6.7.06h-.44v-.45l-.06-11.19v-.5h.5l13.24.07c4.41,0,8.83.11,13.24.16h.28v.27c0,1.9-.08,3.79-.13,5.66Zm0,0-.14-5.65c0-1.86-.11-3.71-.13-5.54l.27.28c-4.41,0-8.83.16-13.24.16L666,322.2l.5-.5,0,11.19-.45-.44c2.18,0,4.36,0,6.55.05l6.58.11Z" style="fill:#ebebeb"></path><path d="M300.16,195.63,287,195.9l-6.67.12c-2.22,0-4.46,0-6.69,0h-.44v-.45l-.05-11.19v-.51h.5l13.24.06c4.41,0,8.83.11,13.24.16h.28v.27c0,1.9-.08,3.78-.13,5.65Zm0,0L300,190c0-1.86-.11-3.7-.13-5.53l.27.27c-4.41,0-8.83.16-13.24.16l-13.24.07.5-.5-.05,11.19-.45-.45c2.18,0,4.36,0,6.55.06l6.57.11Z" style="fill:#ebebeb"></path><path d="M285.39,209.74l-13.13.27-6.66.12c-2.22,0-4.46,0-6.69.05h-.45v-.45l0-11.19V198h.5l13.24.06c4.41,0,8.82.11,13.24.16h.27v.27c0,1.89-.08,3.78-.13,5.65Zm0,0-.14-5.66c-.05-1.86-.12-3.7-.13-5.53l.27.27c-4.42.05-8.83.16-13.24.16l-13.24.07.5-.5-.06,11.19-.44-.45c2.18,0,4.36,0,6.54.06l6.58.11Z" style="fill:#ebebeb"></path><path d="M314.93,209.74l-13.12.27-6.66.12c-2.23,0-4.47,0-6.7.05H288v-.45L288,198.55V198h.5l13.24.06c4.41,0,8.83.11,13.24.16h.28v.27c0,1.89-.08,3.78-.13,5.65Zm0,0-.14-5.66c-.05-1.86-.11-3.7-.13-5.53l.27.27c-4.41.05-8.83.16-13.24.16l-13.24.07.5-.5-.05,11.19-.45-.45c2.18,0,4.36,0,6.55.06l6.58.11Z" style="fill:#ebebeb"></path><path d="M124.25,279.67l-13.13.27-6.66.12c-2.22,0-4.46,0-6.69.05h-.45v-.45l0-11.19V268h.5L111,268c4.41,0,8.82.11,13.24.16h.27v.27c0,1.89-.08,3.78-.13,5.65Zm0,0-.14-5.66c0-1.86-.12-3.7-.13-5.53l.27.27c-4.42.05-8.83.16-13.24.16L97.77,269l.5-.5-.06,11.19-.44-.45c2.18,0,4.36,0,6.54.06l6.58.11Z" style="fill:#ebebeb"></path><path d="M676.21,185.62l-13.13.28-6.66.11c-2.22.05-4.46,0-6.69.05h-.45v-.45l0-11.19v-.5h.5L663,174c4.41,0,8.82.11,13.24.17h.27v.27c0,1.9-.08,3.79-.13,5.65Zm0,0-.14-5.66c-.05-1.86-.12-3.7-.13-5.53l.27.27c-4.42.05-8.83.16-13.24.16l-13.24.07.5-.5-.06,11.19-.44-.45c2.18,0,4.36,0,6.54.06l6.58.11Z" style="fill:#ebebeb"></path><path d="M676.21,76.94l-13.13.28-6.66.11c-2.22,0-4.46,0-6.69,0h-.45v-.45l0-11.19v-.5h.5l13.24.06c4.41,0,8.82.11,13.24.17h.27v.27c0,1.9-.08,3.79-.13,5.65Zm0,0-.14-5.65c-.05-1.87-.12-3.71-.13-5.54l.27.27c-4.42,0-8.83.16-13.24.17l-13.24.06.5-.5-.06,11.19-.44-.45c2.18,0,4.36,0,6.54.06l6.58.11Z" style="fill:#ebebeb"></path><path d="M691,91.05l-13.12.28-6.67.11c-2.22,0-4.46,0-6.69,0h-.44v-.45l0-11.19v-.5h.5l13.24.06c4.41,0,8.83.11,13.24.17h.28v.27c0,1.9-.08,3.79-.13,5.65Zm0,0-.14-5.66c-.05-1.86-.11-3.7-.13-5.53l.27.27c-4.41.05-8.83.16-13.24.17l-13.24.06.5-.5-.06,11.19-.44-.45c2.18,0,4.36,0,6.54.06l6.58.11Z" style="fill:#ebebeb"></path><path d="M94.7,77l-13.12.28-6.66.11c-2.23,0-4.46,0-6.7.06h-.44V77l-.06-11.19v-.5h.5l13.24.06c4.42,0,8.83.12,13.24.17H95v.27c0,1.9-.09,3.79-.13,5.65Zm0,0-.14-5.65c0-1.87-.11-3.71-.13-5.54l.27.27c-4.41.06-8.82.16-13.24.17l-13.24.06.5-.5,0,11.19-.45-.44c2.19,0,4.36,0,6.55,0l6.58.11Z" style="fill:#ebebeb"></path><rect x="337.24" y="75.03" width="277.01" height="153.06" style="fill:#fff"></rect><polygon points="614.25 113.14 614.25 228.09 337.24 228.09 337.24 126.31 361.27 126.31 361.27 155.5 367.46 155.5 367.46 138.98 398.02 138.98 398.02 165.14 402.06 165.14 402.06 103.74 428.62 103.74 428.62 120.59 442.24 120.59 442.24 141.56 446.36 141.56 446.36 128.37 470.51 128.37 470.51 167.72 477.57 167.72 477.57 135.74 499.65 135.74 499.65 111.43 514.66 111.43 514.66 97.6 532.03 97.6 532.03 158.97 537.88 158.97 537.88 133.36 566.48 133.36 566.48 170.02 570.44 170.02 570.44 140.1 599.46 140.1 599.46 113.14 614.25 113.14" style="fill:#ebebeb"></polygon><rect x="340.19" y="129.98" width="4.07" height="5.58" style="fill:#fff"></rect><rect x="347.24" y="129.98" width="4.07" height="5.58" style="fill:#fff"></rect><rect x="354.28" y="129.98" width="4.07" height="5.58" style="fill:#fff"></rect><rect x="340.19" y="138.38" width="4.07" height="5.58" style="fill:#fff"></rect><rect x="347.24" y="138.38" width="4.07" height="5.58" style="fill:#fff"></rect><rect x="354.28" y="138.38" width="4.07" height="5.58" style="fill:#fff"></rect><rect x="340.19" y="146.77" width="4.07" height="5.58" style="fill:#fff"></rect><rect x="347.24" y="146.77" width="4.07" height="5.58" style="fill:#fff"></rect><rect x="354.28" y="146.77" width="4.07" height="5.58" style="fill:#fff"></rect><rect x="340.19" y="155.17" width="4.07" height="5.58" style="fill:#fff"></rect><rect x="347.24" y="155.17" width="4.07" height="5.58" style="fill:#fff"></rect><rect x="354.28" y="155.17" width="4.07" height="5.58" style="fill:#fff"></rect><rect x="480.96" y="139.72" width="4.07" height="4.65" style="fill:#fff"></rect><rect x="488.01" y="139.72" width="4.07" height="4.65" style="fill:#fff"></rect><rect x="495.05" y="139.72" width="4.07" height="4.65" style="fill:#fff"></rect><rect x="480.96" y="146.72" width="4.07" height="4.65" style="fill:#fff"></rect><rect x="488.01" y="146.72" width="4.07" height="4.65" style="fill:#fff"></rect><rect x="495.05" y="146.72" width="4.07" height="4.65" style="fill:#fff"></rect><rect x="480.96" y="153.73" width="4.07" height="4.65" style="fill:#fff"></rect><rect x="488.01" y="153.73" width="4.07" height="4.65" style="fill:#fff"></rect><rect x="495.05" y="153.73" width="4.07" height="4.65" style="fill:#fff"></rect><rect x="480.96" y="160.73" width="4.07" height="4.66" style="fill:#fff"></rect><rect x="488.01" y="160.73" width="4.07" height="4.66" style="fill:#fff"></rect><rect x="495.05" y="160.73" width="4.07" height="4.66" style="fill:#fff"></rect><rect x="480.96" y="167.91" width="4.07" height="4.65" style="fill:#fff"></rect><rect x="488.01" y="167.91" width="4.07" height="4.65" style="fill:#fff"></rect><rect x="495.05" y="167.91" width="4.07" height="4.65" style="fill:#fff"></rect><rect x="480.96" y="175.09" width="4.07" height="4.66" style="fill:#fff"></rect><rect x="488.01" y="175.09" width="4.07" height="4.66" style="fill:#fff"></rect><rect x="495.05" y="175.09" width="4.07" height="4.66" style="fill:#fff"></rect><rect x="480.96" y="182.26" width="4.07" height="4.65" style="fill:#fff"></rect><rect x="488.01" y="182.26" width="4.07" height="4.65" style="fill:#fff"></rect><rect x="495.05" y="182.26" width="4.07" height="4.65" style="fill:#fff"></rect><rect x="480.96" y="189.44" width="4.07" height="4.65" style="fill:#fff"></rect><rect x="488.01" y="189.44" width="4.07" height="4.65" style="fill:#fff"></rect><rect x="495.05" y="189.44" width="4.07" height="4.65" style="fill:#fff"></rect><rect x="370.93" y="142.55" width="23.41" height="3.49" style="fill:#fff"></rect><rect x="370.93" y="149.32" width="23.41" height="3.49" style="fill:#fff"></rect><rect x="370.93" y="156.09" width="23.41" height="3.49" style="fill:#fff"></rect><rect x="370.93" y="162.86" width="23.41" height="3.49" style="fill:#fff"></rect><rect x="370.93" y="169.64" width="23.41" height="3.49" style="fill:#fff"></rect><rect x="370.93" y="176.41" width="23.41" height="3.49" style="fill:#fff"></rect><rect x="370.93" y="183.18" width="23.41" height="3.49" style="fill:#fff"></rect><rect x="370.93" y="189.95" width="23.41" height="3.49" style="fill:#fff"></rect><rect x="541.33" y="136.61" width="21.52" height="3.49" style="fill:#fff"></rect><rect x="541.33" y="143.39" width="21.52" height="3.49" style="fill:#fff"></rect><rect x="541.33" y="150.16" width="21.52" height="3.49" style="fill:#fff"></rect><rect x="541.33" y="156.93" width="21.52" height="3.49" style="fill:#fff"></rect><rect x="541.33" y="163.7" width="21.52" height="3.49" style="fill:#fff"></rect><rect x="541.33" y="170.47" width="21.52" height="3.49" style="fill:#fff"></rect><rect x="541.33" y="177.24" width="21.52" height="3.49" style="fill:#fff"></rect><rect x="541.33" y="184.01" width="21.52" height="3.49" style="fill:#fff"></rect><rect x="541.33" y="190.44" width="21.52" height="3.49" style="fill:#fff"></rect><rect x="541.33" y="196.88" width="21.52" height="3.49" style="fill:#fff"></rect><rect x="541.33" y="203.31" width="21.52" height="3.49" style="fill:#fff"></rect><rect x="541.33" y="209.75" width="21.52" height="3.49" style="fill:#fff"></rect><rect x="541.33" y="216.18" width="21.52" height="3.49" style="fill:#fff"></rect><rect x="574.92" y="144.79" width="22.73" height="3.49" style="fill:#fff"></rect><rect x="574.92" y="151.56" width="22.73" height="3.49" style="fill:#fff"></rect><rect x="574.92" y="158.33" width="22.73" height="3.49" style="fill:#fff"></rect><rect x="574.92" y="165.11" width="22.73" height="3.49" style="fill:#fff"></rect><rect x="574.92" y="171.88" width="22.73" height="3.49" style="fill:#fff"></rect><rect x="574.92" y="178.65" width="22.73" height="3.49" style="fill:#fff"></rect><rect x="574.92" y="185.42" width="22.73" height="3.49" style="fill:#fff"></rect><rect x="574.92" y="192.19" width="22.73" height="3.49" style="fill:#fff"></rect><rect x="574.92" y="198.25" width="22.73" height="3.49" style="fill:#fff"></rect><rect x="574.92" y="204.31" width="22.73" height="3.49" style="fill:#fff"></rect><rect x="574.92" y="210.37" width="22.73" height="3.49" style="fill:#fff"></rect><rect x="453.42" y="131.53" width="7.23" height="3.37" style="fill:#fff"></rect><rect x="453.42" y="138.07" width="7.23" height="3.37" style="fill:#fff"></rect><rect x="453.42" y="144.61" width="7.23" height="3.37" style="fill:#fff"></rect><rect x="453.42" y="151.15" width="7.23" height="3.37" style="fill:#fff"></rect><rect x="453.42" y="157.69" width="7.23" height="3.37" style="fill:#fff"></rect><rect x="453.42" y="164.23" width="7.23" height="3.37" style="fill:#fff"></rect><rect x="453.42" y="170.76" width="7.23" height="3.37" style="fill:#fff"></rect><rect x="453.42" y="177.3" width="7.23" height="3.37" style="fill:#fff"></rect><rect x="463.26" y="131.53" width="7.23" height="3.37" style="fill:#fff"></rect><rect x="463.26" y="138.07" width="7.23" height="3.37" style="fill:#fff"></rect><rect x="463.26" y="144.61" width="7.23" height="3.37" style="fill:#fff"></rect><rect x="463.26" y="151.15" width="7.23" height="3.37" style="fill:#fff"></rect><rect x="463.26" y="157.69" width="7.23" height="3.37" style="fill:#fff"></rect><rect x="463.26" y="164.23" width="7.23" height="3.37" style="fill:#fff"></rect><rect x="463.26" y="170.76" width="7.23" height="3.37" style="fill:#fff"></rect><rect x="463.26" y="177.3" width="7.23" height="3.37" style="fill:#fff"></rect><rect x="406.09" y="107.27" width="7.53" height="5.31" style="fill:#fff"></rect><rect x="417.32" y="107.27" width="7.53" height="5.31" style="fill:#fff"></rect><rect x="406.09" y="115.08" width="7.53" height="5.31" style="fill:#fff"></rect><rect x="417.32" y="115.08" width="7.53" height="5.31" style="fill:#fff"></rect><rect x="406.09" y="122.89" width="7.53" height="5.31" style="fill:#fff"></rect><rect x="417.32" y="122.89" width="7.53" height="5.31" style="fill:#fff"></rect><rect x="406.09" y="130.69" width="7.53" height="5.31" style="fill:#fff"></rect><rect x="417.32" y="130.69" width="7.53" height="5.31" style="fill:#fff"></rect><rect x="406.09" y="138.5" width="7.53" height="5.31" style="fill:#fff"></rect><rect x="417.32" y="138.5" width="7.53" height="5.31" style="fill:#fff"></rect><rect x="406.09" y="146.31" width="7.53" height="5.31" style="fill:#fff"></rect><rect x="417.32" y="146.31" width="7.53" height="5.31" style="fill:#fff"></rect><rect x="406.09" y="154.11" width="7.53" height="5.31" style="fill:#fff"></rect><rect x="417.32" y="154.11" width="7.53" height="5.31" style="fill:#fff"></rect><rect x="406.09" y="161.92" width="7.53" height="5.31" style="fill:#fff"></rect><rect x="417.32" y="161.92" width="7.53" height="5.31" style="fill:#fff"></rect><rect x="431.23" y="122.89" width="7.53" height="5.31" style="fill:#fff"></rect><rect x="431.23" y="130.69" width="7.53" height="5.31" style="fill:#fff"></rect><rect x="431.23" y="138.5" width="7.53" height="5.31" style="fill:#fff"></rect><rect x="431.23" y="146.31" width="7.53" height="5.31" style="fill:#fff"></rect><rect x="431.23" y="154.11" width="7.53" height="5.31" style="fill:#fff"></rect><rect x="431.23" y="161.92" width="7.53" height="5.31" style="fill:#fff"></rect><rect x="406.09" y="169.64" width="7.53" height="5.31" style="fill:#fff"></rect><rect x="417.32" y="169.64" width="7.53" height="5.31" style="fill:#fff"></rect><rect x="431.23" y="169.64" width="7.53" height="5.31" style="fill:#fff"></rect><rect x="406.09" y="177.35" width="7.53" height="5.31" style="fill:#fff"></rect><rect x="417.32" y="177.35" width="7.53" height="5.31" style="fill:#fff"></rect><rect x="431.23" y="177.35" width="7.53" height="5.31" style="fill:#fff"></rect><rect x="406.09" y="185.06" width="7.53" height="5.31" style="fill:#fff"></rect><rect x="417.32" y="185.06" width="7.53" height="5.31" style="fill:#fff"></rect><rect x="431.23" y="185.06" width="7.53" height="5.31" style="fill:#fff"></rect><rect x="406.09" y="192.78" width="7.53" height="5.31" style="fill:#fff"></rect><rect x="417.32" y="192.78" width="7.53" height="5.31" style="fill:#fff"></rect><rect x="431.23" y="192.78" width="7.53" height="5.31" style="fill:#fff"></rect><rect x="406.09" y="200.49" width="7.53" height="5.31" style="fill:#fff"></rect><rect x="417.32" y="200.49" width="7.53" height="5.31" style="fill:#fff"></rect><rect x="431.23" y="200.49" width="7.53" height="5.31" style="fill:#fff"></rect><rect x="502.72" y="114.86" width="4.07" height="4.65" style="fill:#fff"></rect><rect x="509.76" y="114.86" width="4.07" height="4.65" style="fill:#fff"></rect><rect x="502.72" y="121.86" width="4.07" height="4.65" style="fill:#fff"></rect><rect x="509.76" y="121.86" width="4.07" height="4.65" style="fill:#fff"></rect><rect x="502.72" y="128.87" width="4.07" height="4.66" style="fill:#fff"></rect><rect x="509.76" y="128.87" width="4.07" height="4.66" style="fill:#fff"></rect><rect x="502.72" y="135.87" width="4.07" height="4.65" style="fill:#fff"></rect><rect x="509.76" y="135.87" width="4.07" height="4.65" style="fill:#fff"></rect><rect x="502.72" y="143.05" width="4.07" height="4.65" style="fill:#fff"></rect><rect x="509.76" y="143.05" width="4.07" height="4.65" style="fill:#fff"></rect><rect x="502.72" y="150.23" width="4.07" height="4.65" style="fill:#fff"></rect><rect x="509.76" y="150.23" width="4.07" height="4.65" style="fill:#fff"></rect><rect x="502.72" y="157.4" width="4.07" height="4.66" style="fill:#fff"></rect><rect x="509.76" y="157.4" width="4.07" height="4.66" style="fill:#fff"></rect><rect x="502.72" y="164.58" width="4.07" height="4.65" style="fill:#fff"></rect><rect x="509.76" y="164.58" width="4.07" height="4.65" style="fill:#fff"></rect><rect x="502.72" y="171.83" width="4.07" height="4.65" style="fill:#fff"></rect><rect x="509.76" y="171.83" width="4.07" height="4.65" style="fill:#fff"></rect><rect x="502.72" y="179.09" width="4.07" height="4.65" style="fill:#fff"></rect><rect x="509.76" y="179.09" width="4.07" height="4.65" style="fill:#fff"></rect><rect x="502.72" y="186.34" width="4.07" height="4.65" style="fill:#fff"></rect><rect x="509.76" y="186.34" width="4.07" height="4.65" style="fill:#fff"></rect><rect x="502.72" y="193.59" width="4.07" height="4.66" style="fill:#fff"></rect><rect x="509.76" y="193.59" width="4.07" height="4.66" style="fill:#fff"></rect><rect x="602" y="115.61" width="4.07" height="5.48" style="fill:#fff"></rect><rect x="609.05" y="115.61" width="4.07" height="5.48" style="fill:#fff"></rect><rect x="602" y="123.87" width="4.07" height="5.48" style="fill:#fff"></rect><rect x="609.05" y="123.87" width="4.07" height="5.48" style="fill:#fff"></rect><rect x="602" y="132.12" width="4.07" height="5.48" style="fill:#fff"></rect><rect x="609.05" y="132.12" width="4.07" height="5.48" style="fill:#fff"></rect><rect x="602" y="140.37" width="4.07" height="5.48" style="fill:#fff"></rect><rect x="609.05" y="140.37" width="4.07" height="5.48" style="fill:#fff"></rect><rect x="602" y="148.83" width="4.07" height="5.48" style="fill:#fff"></rect><rect x="609.05" y="148.83" width="4.07" height="5.48" style="fill:#fff"></rect><rect x="602" y="157.28" width="4.07" height="5.48" style="fill:#fff"></rect><rect x="609.05" y="157.28" width="4.07" height="5.48" style="fill:#fff"></rect><rect x="602" y="165.74" width="4.07" height="5.48" style="fill:#fff"></rect><rect x="609.05" y="165.74" width="4.07" height="5.48" style="fill:#fff"></rect><rect x="602" y="174.19" width="4.07" height="5.48" style="fill:#fff"></rect><rect x="609.05" y="174.19" width="4.07" height="5.48" style="fill:#fff"></rect><rect x="602" y="182.74" width="4.07" height="5.48" style="fill:#fff"></rect><rect x="609.05" y="182.74" width="4.07" height="5.48" style="fill:#fff"></rect><rect x="602" y="191.28" width="4.07" height="5.48" style="fill:#fff"></rect><rect x="609.05" y="191.28" width="4.07" height="5.48" style="fill:#fff"></rect><rect x="602" y="199.83" width="4.07" height="5.48" style="fill:#fff"></rect><rect x="609.05" y="199.83" width="4.07" height="5.48" style="fill:#fff"></rect><rect x="602" y="208.38" width="4.07" height="5.48" style="fill:#fff"></rect><rect x="609.05" y="208.38" width="4.07" height="5.48" style="fill:#fff"></rect><rect x="517.79" y="114.86" width="4.07" height="4.65" style="fill:#fff"></rect><rect x="524.83" y="114.86" width="4.07" height="4.65" style="fill:#fff"></rect><rect x="517.79" y="107.68" width="4.07" height="4.66" style="fill:#fff"></rect><rect x="524.83" y="107.68" width="4.07" height="4.66" style="fill:#fff"></rect><rect x="517.79" y="100.49" width="4.07" height="4.66" style="fill:#fff"></rect><rect x="524.83" y="100.49" width="4.07" height="4.66" style="fill:#fff"></rect><rect x="517.79" y="121.86" width="4.07" height="4.65" style="fill:#fff"></rect><rect x="524.83" y="121.86" width="4.07" height="4.65" style="fill:#fff"></rect><rect x="517.79" y="128.87" width="4.07" height="4.66" style="fill:#fff"></rect><rect x="524.83" y="128.87" width="4.07" height="4.66" style="fill:#fff"></rect><rect x="517.79" y="135.87" width="4.07" height="4.65" style="fill:#fff"></rect><rect x="524.83" y="135.87" width="4.07" height="4.65" style="fill:#fff"></rect><rect x="517.79" y="143.05" width="4.07" height="4.65" style="fill:#fff"></rect><rect x="524.83" y="143.05" width="4.07" height="4.65" style="fill:#fff"></rect><rect x="517.79" y="150.23" width="4.07" height="4.65" style="fill:#fff"></rect><rect x="524.83" y="150.23" width="4.07" height="4.65" style="fill:#fff"></rect><rect x="517.79" y="157.4" width="4.07" height="4.66" style="fill:#fff"></rect><rect x="524.83" y="157.4" width="4.07" height="4.66" style="fill:#fff"></rect><rect x="517.79" y="164.58" width="4.07" height="4.65" style="fill:#fff"></rect><rect x="524.83" y="164.58" width="4.07" height="4.65" style="fill:#fff"></rect><rect x="517.79" y="171.83" width="4.07" height="4.65" style="fill:#fff"></rect><rect x="524.83" y="171.83" width="4.07" height="4.65" style="fill:#fff"></rect><rect x="517.79" y="179.09" width="4.07" height="4.65" style="fill:#fff"></rect><rect x="524.83" y="179.09" width="4.07" height="4.65" style="fill:#fff"></rect><rect x="517.79" y="186.34" width="4.07" height="4.65" style="fill:#fff"></rect><rect x="524.83" y="186.34" width="4.07" height="4.65" style="fill:#fff"></rect><rect x="517.79" y="193.59" width="4.07" height="4.66" style="fill:#fff"></rect><rect x="524.83" y="193.59" width="4.07" height="4.66" style="fill:#fff"></rect><polygon points="337.24 228.09 136.61 228.09 136.61 126.31 160.64 126.31 160.64 155.5 166.82 155.5 166.82 138.98 197.38 138.98 197.38 165.14 201.43 165.14 201.43 103.74 227.98 103.74 227.98 120.59 241.6 120.59 241.6 141.56 245.72 141.56 245.72 128.37 269.87 128.37 269.87 167.72 276.93 167.72 276.93 135.74 299.01 135.74 299.01 111.43 314.02 111.43 331.39 111.52 331.39 158.97 337.24 158.97 337.24 228.09" style="fill:#ebebeb"></polygon><rect x="139.55" y="129.98" width="4.07" height="5.58" style="fill:#fff"></rect><rect x="146.6" y="129.98" width="4.07" height="5.58" style="fill:#fff"></rect><rect x="153.65" y="129.98" width="4.07" height="5.58" style="fill:#fff"></rect><rect x="139.55" y="138.38" width="4.07" height="5.58" style="fill:#fff"></rect><rect x="146.6" y="138.38" width="4.07" height="5.58" style="fill:#fff"></rect><rect x="153.65" y="138.38" width="4.07" height="5.58" style="fill:#fff"></rect><rect x="139.55" y="146.77" width="4.07" height="5.58" style="fill:#fff"></rect><rect x="146.6" y="146.77" width="4.07" height="5.58" style="fill:#fff"></rect><rect x="153.65" y="146.77" width="4.07" height="5.58" style="fill:#fff"></rect><rect x="139.55" y="155.17" width="4.07" height="5.58" style="fill:#fff"></rect><rect x="146.6" y="155.17" width="4.07" height="5.58" style="fill:#fff"></rect><rect x="153.65" y="155.17" width="4.07" height="5.58" style="fill:#fff"></rect><rect x="280.32" y="139.72" width="4.07" height="4.65" style="fill:#fff"></rect><rect x="287.37" y="139.72" width="4.07" height="4.65" style="fill:#fff"></rect><rect x="294.42" y="139.72" width="4.07" height="4.65" style="fill:#fff"></rect><rect x="280.32" y="146.72" width="4.07" height="4.65" style="fill:#fff"></rect><rect x="287.37" y="146.72" width="4.07" height="4.65" style="fill:#fff"></rect><rect x="294.42" y="146.72" width="4.07" height="4.65" style="fill:#fff"></rect><rect x="280.32" y="153.73" width="4.07" height="4.65" style="fill:#fff"></rect><rect x="287.37" y="153.73" width="4.07" height="4.65" style="fill:#fff"></rect><rect x="294.42" y="153.73" width="4.07" height="4.65" style="fill:#fff"></rect><rect x="280.32" y="160.73" width="4.07" height="4.66" style="fill:#fff"></rect><rect x="287.37" y="160.73" width="4.07" height="4.66" style="fill:#fff"></rect><rect x="294.42" y="160.73" width="4.07" height="4.66" style="fill:#fff"></rect><rect x="280.32" y="167.91" width="4.07" height="4.65" style="fill:#fff"></rect><rect x="287.37" y="167.91" width="4.07" height="4.65" style="fill:#fff"></rect><rect x="294.42" y="167.91" width="4.07" height="4.65" style="fill:#fff"></rect><rect x="280.32" y="175.09" width="4.07" height="4.66" style="fill:#fff"></rect><rect x="287.37" y="175.09" width="4.07" height="4.66" style="fill:#fff"></rect><rect x="294.42" y="175.09" width="4.07" height="4.66" style="fill:#fff"></rect><rect x="280.32" y="182.26" width="4.07" height="4.65" style="fill:#fff"></rect><rect x="287.37" y="182.26" width="4.07" height="4.65" style="fill:#fff"></rect><rect x="294.42" y="182.26" width="4.07" height="4.65" style="fill:#fff"></rect><rect x="280.32" y="189.44" width="4.07" height="4.65" style="fill:#fff"></rect><rect x="287.37" y="189.44" width="4.07" height="4.65" style="fill:#fff"></rect><rect x="294.42" y="189.44" width="4.07" height="4.65" style="fill:#fff"></rect><rect x="170.29" y="142.55" width="23.41" height="3.49" style="fill:#fff"></rect><rect x="170.29" y="149.32" width="23.41" height="3.49" style="fill:#fff"></rect><rect x="170.29" y="156.09" width="23.41" height="3.49" style="fill:#fff"></rect><rect x="170.29" y="162.86" width="23.41" height="3.49" style="fill:#fff"></rect><rect x="170.29" y="169.64" width="23.41" height="3.49" style="fill:#fff"></rect><rect x="170.29" y="176.41" width="23.41" height="3.49" style="fill:#fff"></rect><rect x="170.29" y="183.18" width="23.41" height="3.49" style="fill:#fff"></rect><rect x="170.29" y="189.95" width="23.41" height="3.49" style="fill:#fff"></rect><rect x="252.79" y="131.53" width="7.23" height="3.37" style="fill:#fff"></rect><rect x="252.79" y="138.07" width="7.23" height="3.37" style="fill:#fff"></rect><rect x="252.79" y="144.61" width="7.23" height="3.37" style="fill:#fff"></rect><rect x="252.79" y="151.15" width="7.23" height="3.37" style="fill:#fff"></rect><rect x="252.79" y="157.69" width="7.23" height="3.37" style="fill:#fff"></rect><rect x="252.79" y="164.23" width="7.23" height="3.37" style="fill:#fff"></rect><rect x="252.79" y="170.76" width="7.23" height="3.37" style="fill:#fff"></rect><rect x="252.79" y="177.3" width="7.23" height="3.37" style="fill:#fff"></rect><rect x="262.62" y="131.53" width="7.23" height="3.37" style="fill:#fff"></rect><rect x="262.62" y="138.07" width="7.23" height="3.37" style="fill:#fff"></rect><rect x="262.62" y="144.61" width="7.23" height="3.37" style="fill:#fff"></rect><rect x="262.62" y="151.15" width="7.23" height="3.37" style="fill:#fff"></rect><rect x="262.62" y="157.69" width="7.23" height="3.37" style="fill:#fff"></rect><rect x="262.62" y="164.23" width="7.23" height="3.37" style="fill:#fff"></rect><rect x="262.62" y="170.76" width="7.23" height="3.37" style="fill:#fff"></rect><rect x="262.62" y="177.3" width="7.23" height="3.37" style="fill:#fff"></rect><rect x="205.45" y="107.27" width="7.53" height="5.31" style="fill:#fff"></rect><rect x="216.68" y="107.27" width="7.53" height="5.31" style="fill:#fff"></rect><rect x="205.45" y="115.08" width="7.53" height="5.31" style="fill:#fff"></rect><rect x="216.68" y="115.08" width="7.53" height="5.31" style="fill:#fff"></rect><rect x="205.45" y="122.89" width="7.53" height="5.31" style="fill:#fff"></rect><rect x="216.68" y="122.89" width="7.53" height="5.31" style="fill:#fff"></rect><rect x="205.45" y="130.69" width="7.53" height="5.31" style="fill:#fff"></rect><rect x="216.68" y="130.69" width="7.53" height="5.31" style="fill:#fff"></rect><rect x="205.45" y="138.5" width="7.53" height="5.31" style="fill:#fff"></rect><rect x="216.68" y="138.5" width="7.53" height="5.31" style="fill:#fff"></rect><rect x="205.45" y="146.31" width="7.53" height="5.31" style="fill:#fff"></rect><rect x="216.68" y="146.31" width="7.53" height="5.31" style="fill:#fff"></rect><rect x="205.45" y="154.11" width="7.53" height="5.31" style="fill:#fff"></rect><rect x="216.68" y="154.11" width="7.53" height="5.31" style="fill:#fff"></rect><rect x="205.45" y="161.92" width="7.53" height="5.31" style="fill:#fff"></rect><rect x="216.68" y="161.92" width="7.53" height="5.31" style="fill:#fff"></rect><rect x="230.6" y="122.89" width="7.53" height="5.31" style="fill:#fff"></rect><rect x="230.6" y="130.69" width="7.53" height="5.31" style="fill:#fff"></rect><rect x="230.6" y="138.5" width="7.53" height="5.31" style="fill:#fff"></rect><rect x="230.6" y="146.31" width="7.53" height="5.31" style="fill:#fff"></rect><rect x="230.6" y="154.11" width="7.53" height="5.31" style="fill:#fff"></rect><rect x="230.6" y="161.92" width="7.53" height="5.31" style="fill:#fff"></rect><rect x="205.45" y="169.64" width="7.53" height="5.31" style="fill:#fff"></rect><rect x="216.68" y="169.64" width="7.53" height="5.31" style="fill:#fff"></rect><rect x="230.6" y="169.64" width="7.53" height="5.31" style="fill:#fff"></rect><rect x="205.45" y="177.35" width="7.53" height="5.31" style="fill:#fff"></rect><rect x="216.68" y="177.35" width="7.53" height="5.31" style="fill:#fff"></rect><rect x="230.6" y="177.35" width="7.53" height="5.31" style="fill:#fff"></rect><rect x="205.45" y="185.06" width="7.53" height="5.31" style="fill:#fff"></rect><rect x="216.68" y="185.06" width="7.53" height="5.31" style="fill:#fff"></rect><rect x="230.6" y="185.06" width="7.53" height="5.31" style="fill:#fff"></rect><rect x="205.45" y="192.78" width="7.53" height="5.31" style="fill:#fff"></rect><rect x="216.68" y="192.78" width="7.53" height="5.31" style="fill:#fff"></rect><rect x="230.6" y="192.78" width="7.53" height="5.31" style="fill:#fff"></rect><rect x="205.45" y="200.49" width="7.53" height="5.31" style="fill:#fff"></rect><rect x="216.68" y="200.49" width="7.53" height="5.31" style="fill:#fff"></rect><rect x="230.6" y="200.49" width="7.53" height="5.31" style="fill:#fff"></rect><rect x="302.08" y="114.86" width="4.07" height="4.65" style="fill:#fff"></rect><rect x="309.13" y="114.86" width="4.07" height="4.65" style="fill:#fff"></rect><rect x="302.08" y="121.86" width="4.07" height="4.65" style="fill:#fff"></rect><rect x="309.13" y="121.86" width="4.07" height="4.65" style="fill:#fff"></rect><rect x="302.08" y="128.87" width="4.07" height="4.66" style="fill:#fff"></rect><rect x="309.13" y="128.87" width="4.07" height="4.66" style="fill:#fff"></rect><rect x="302.08" y="135.87" width="4.07" height="4.65" style="fill:#fff"></rect><rect x="309.13" y="135.87" width="4.07" height="4.65" style="fill:#fff"></rect><rect x="302.08" y="143.05" width="4.07" height="4.65" style="fill:#fff"></rect><rect x="309.13" y="143.05" width="4.07" height="4.65" style="fill:#fff"></rect><rect x="302.08" y="150.23" width="4.07" height="4.65" style="fill:#fff"></rect><rect x="309.13" y="150.23" width="4.07" height="4.65" style="fill:#fff"></rect><rect x="302.08" y="157.4" width="4.07" height="4.66" style="fill:#fff"></rect><rect x="309.13" y="157.4" width="4.07" height="4.66" style="fill:#fff"></rect><rect x="302.08" y="164.58" width="4.07" height="4.65" style="fill:#fff"></rect><rect x="309.13" y="164.58" width="4.07" height="4.65" style="fill:#fff"></rect><rect x="302.08" y="171.83" width="4.07" height="4.65" style="fill:#fff"></rect><rect x="309.13" y="171.83" width="4.07" height="4.65" style="fill:#fff"></rect><rect x="302.08" y="179.09" width="4.07" height="4.65" style="fill:#fff"></rect><rect x="309.13" y="179.09" width="4.07" height="4.65" style="fill:#fff"></rect><rect x="302.08" y="186.34" width="4.07" height="4.65" style="fill:#fff"></rect><rect x="309.13" y="186.34" width="4.07" height="4.65" style="fill:#fff"></rect><rect x="302.08" y="193.59" width="4.07" height="4.66" style="fill:#fff"></rect><rect x="309.13" y="193.59" width="4.07" height="4.66" style="fill:#fff"></rect><rect x="317.15" y="114.86" width="4.07" height="4.65" style="fill:#fff"></rect><rect x="324.2" y="114.86" width="4.07" height="4.65" style="fill:#fff"></rect><rect x="317.15" y="121.86" width="4.07" height="4.65" style="fill:#fff"></rect><rect x="324.2" y="121.86" width="4.07" height="4.65" style="fill:#fff"></rect><rect x="317.15" y="128.87" width="4.07" height="4.66" style="fill:#fff"></rect><rect x="324.2" y="128.87" width="4.07" height="4.66" style="fill:#fff"></rect><rect x="317.15" y="135.87" width="4.07" height="4.65" style="fill:#fff"></rect><rect x="324.2" y="135.87" width="4.07" height="4.65" style="fill:#fff"></rect><rect x="317.15" y="143.05" width="4.07" height="4.65" style="fill:#fff"></rect><rect x="324.2" y="143.05" width="4.07" height="4.65" style="fill:#fff"></rect><rect x="317.15" y="150.23" width="4.07" height="4.65" style="fill:#fff"></rect><rect x="324.2" y="150.23" width="4.07" height="4.65" style="fill:#fff"></rect><rect x="317.15" y="157.4" width="4.07" height="4.66" style="fill:#fff"></rect><rect x="324.2" y="157.4" width="4.07" height="4.66" style="fill:#fff"></rect><rect x="317.15" y="164.58" width="4.07" height="4.65" style="fill:#fff"></rect><rect x="324.2" y="164.58" width="4.07" height="4.65" style="fill:#fff"></rect><rect x="317.15" y="171.83" width="4.07" height="4.65" style="fill:#fff"></rect><rect x="324.2" y="171.83" width="4.07" height="4.65" style="fill:#fff"></rect><rect x="317.15" y="179.09" width="4.07" height="4.65" style="fill:#fff"></rect><rect x="324.2" y="179.09" width="4.07" height="4.65" style="fill:#fff"></rect><rect x="317.15" y="186.34" width="4.07" height="4.65" style="fill:#fff"></rect><rect x="324.2" y="186.34" width="4.07" height="4.65" style="fill:#fff"></rect><rect x="317.15" y="193.59" width="4.07" height="4.66" style="fill:#fff"></rect><rect x="324.2" y="193.59" width="4.07" height="4.66" style="fill:#fff"></rect><path d="M616.72,230.55H133.28v-158H616.72Zm-478.51-4.93H611.79V77.49H138.21Z" style="fill:#dbdbdb"></path><rect x="372.54" y="77.49" width="4.93" height="148.13" style="fill:#dbdbdb"></rect></g><g id="freepik--Table--inject-56"><polygon points="54.71 396.85 134.78 396.61 214.85 396.52 375 396.35 535.15 396.52 615.22 396.61 695.29 396.85 615.22 397.1 535.15 397.19 375 397.35 214.85 397.18 134.78 397.1 54.71 396.85" style="fill:#263238"></polygon></g><g id="freepik--Shadow--inject-56"><ellipse cx="375" cy="422.49" rx="264.15" ry="24.53" style="fill:#ebebeb"></ellipse></g><g id="freepik--character-1--inject-56"><path d="M276.77,225.28c11.28,8.82,52.2,43,67,44.56s71.71-6.87,77.61-3.52,24.68,31.42,22.29,37.39-79.77,19-104,14.47S283.54,273.73,267.83,250C254.36,229.64,254.93,208.2,276.77,225.28Z" style="fill:#f7a9a0"></path><path d="M302.43,298.2l24.8-38.33s-30.38-23-46.21-33.47c-20.17-13.31-33.82-12.24-18.16,18.81A195.54,195.54,0,0,0,302.43,298.2Z" style="fill:#c7c7c7"></path><path d="M316.75,258.54c-1.41,1.66-2.67,3.48-3.92,5.25l-4,5.62q-3.89,5.52-7.72,11.08c-1.46,2.12-2.84,4.31-4.37,6.37-.06.08.07.17.13.09,1.34-1.82,2.81-3.54,4.18-5.33s2.74-3.58,4.07-5.4c2.67-3.62,10.62-15.28,11.8-17.51C317,258.59,316.85,258.42,316.75,258.54Z" style="fill:#263238"></path><path d="M314.69,279.25,302.43,298.2a195.31,195.31,0,0,1-39.57-53,76.18,76.18,0,0,1-6-14.88C270.81,242.42,299.81,266.78,314.69,279.25Z" style="fill:#a6a6a6"></path><path d="M302,396.51h-77.8c-9-39.68-16.38-72-16.38-72h72.52S290.19,356.81,302,396.51Z" style="fill:#37474f"></path><path d="M234.49,396.51h-1.44c-4.55-18-9-36-13.06-54.08a.19.19,0,0,1,.37-.09C225.4,360.3,230,378.41,234.49,396.51Z" style="fill:#263238"></path><path d="M271.2,324.47s-10,61.26-11.59,68.51c-.07.33-.13.55-.15.65s-2.16,1-6.17,2.88h-84l.24-2.19s-6.74-46.44,9.75-69.85Z" style="fill:#37474f"></path><path d="M263.53,392.54c-2.47,1.37-5,2.69-7.51,4h-3.76c2.42-1.26,4.87-2.43,7.35-3.53,1.14-.5,2.27-1,3.42-1.43A.55.55,0,0,1,263.53,392.54Z" style="fill:#263238"></path><path d="M259.87,353.16c-1.35,8-2.11,16.16-3,24.24-.22,1.94-.45,3.88-.66,5.82a11.28,11.28,0,0,1-1.39,5.1c-1.75,2.7-4.87,4-7.7,5.21-.32.14-.19.66.17.54,2.87-.9,6.05-2.08,8.17-4.32,2.58-2.73,2.5-6.86,2.9-10.37a225,225,0,0,0,1.88-26.18C260.23,353,259.9,353,259.87,353.16Z" style="fill:#263238"></path><path d="M250.12,355.62c-.29,5.78-.93,11.55-1.41,17.32-.24,2.84-.44,5.69-.62,8.54s-.51,5.86-.42,8.76c0,.2.32.25.35,0,.48-2.74.54-5.59.77-8.37s.44-5.84.6-8.77c.33-5.83.49-11.7,1-17.53C250.42,355.43,250.13,355.44,250.12,355.62Z" style="fill:#263238"></path><path d="M200,368q-1.34,14.26-2.71,28.53h-.95q1.72-14.26,3.41-28.53C199.79,367.82,200,367.82,200,368Z" style="fill:#263238"></path><path d="M294.48,354.81l-128.75,2.91s26.48-104.79,71.79-143.93c5.6-4.84,18.08-3.58,26.19.57,2.89,1.48,13.17,16.23,16,30.09S294.81,354.41,294.48,354.81Z" style="fill:#c7c7c7"></path><path d="M287.33,293q-.58-6-1.35-12c-.92-7.19-1.9-14.39-3.18-21.53a92,92,0,0,0-.43-10.49,0,0,0,1,0-.09,0c.09,3,.19,5.93.24,8.9-.06-.31-.11-.62-.17-.93-.42-2.25-.85-4.51-1.28-6.76s-1-4.49-1.4-6.74c0-.08-.16-.06-.14,0,.32,2,.53,4.06.83,6.08s.6,4.06.87,6.09c.53,4,1.11,8,1.69,12,1.17,8,2.2,16,3.33,24,.65,4.56,1.39,9.13,1.92,13.71,0,.1.16.1.15,0C288,301.19,287.72,297.09,287.33,293Z" style="fill:#263238"></path><path d="M260.39,235.35c-7.16.8-17.82-11.3-21.49-20.5-.25-.63,1.41-6.75,3.08-14.29,1-4.57,2-9.69,2.58-14.43L273.39,197s-4.13,9.58-5.08,17.84a10.91,10.91,0,0,0,0,2c0,.09,0,.2,0,.33C268.43,220.87,267.32,234.57,260.39,235.35Z" style="fill:#f7a9a0"></path><path d="M268.31,214.81a10.77,10.77,0,0,0,0,2c0,.1,0,.21,0,.33a20.09,20.09,0,0,1-3.08-.21c-17.89-2.44-19.44-23.86-19.49-30.32l8,3L273.39,197S269.26,206.53,268.31,214.81Z" style="fill:#263238"></path><path d="M241.56,151c-3.38,10.57,1.81,41.3,9.27,48.24,10.81,10.06,28.71,11.25,37.3-1.79,8.34-12.64.86-52.57-7.48-58.9C268.35,129.21,246.56,135.37,241.56,151Z" style="fill:#f7a9a0"></path><path d="M279.11,185.34a8.5,8.5,0,0,1-3,3,3.92,3.92,0,0,1-2.28.43c-1.72-.24-2-1.76-1.81-3.1a8.7,8.7,0,0,1,.5-2.09A11,11,0,0,0,279.11,185.34Z" style="fill:#fff"></path><path d="M277,187.76l-.21.17a7,7,0,0,1-1.42-.42C275.93,187.59,276.47,187.69,277,187.76Z" style="fill:#dbdbdb"></path><path d="M273.68,186.76a4.12,4.12,0,0,1-.74-.34,6.17,6.17,0,0,1-.66-.48,3.58,3.58,0,0,1-.29-.27,2.64,2.64,0,0,0,0-.28C272.55,185.87,273.11,186.3,273.68,186.76Z" style="fill:#dbdbdb"></path><path d="M265.33,166.08c.95,0,1.83-.15,2.77-.24a4.5,4.5,0,0,0,2.78-.78,1.42,1.42,0,0,0,.21-1.74,3.53,3.53,0,0,0-3.37-1.25,5.24,5.24,0,0,0-3.48,1.43A1.53,1.53,0,0,0,265.33,166.08Z" style="fill:#263238"></path><path d="M287,163.32c-.95,0-1.82-.23-2.76-.36a4.47,4.47,0,0,1-2.74-.91,1.41,1.41,0,0,1-.13-1.74,3.55,3.55,0,0,1,3.43-1.1,5.22,5.22,0,0,1,3.41,1.59A1.53,1.53,0,0,1,287,163.32Z" style="fill:#263238"></path><path d="M270.44,189.4c.38.59.72,1.36,1.45,1.6a5.67,5.67,0,0,0,2.32,0,.07.07,0,0,1,.06.12,2.84,2.84,0,0,1-2.85.52,2.24,2.24,0,0,1-1.19-2.18C270.22,189.32,270.39,189.31,270.44,189.4Z" style="fill:#263238"></path><path d="M272.47,183.66a7.11,7.11,0,0,0,5.12,2.57,8.57,8.57,0,0,0,2.57-.2,2.4,2.4,0,0,0,.48-.11l.45-.13a.52.52,0,0,0,.36-.52h0a1.29,1.29,0,0,0-.05-.21v0l0-.18c-.15-1.61-.61-4-.61-4,.62.22,3.78,1.19,3.62.36-1.27-6.88-2.69-14.54-5.41-21.13a.19.19,0,0,0-.37.1c1,6.67,3.09,13.12,4.16,19.8a12.72,12.72,0,0,0-3.47-.6c-.22.1,1,4.66,1,5.39a.45.45,0,0,1,0,.08c-2.65.68-4.78.12-7.62-1.37C272.47,183.35,272.32,183.51,272.47,183.66Z" style="fill:#263238"></path><path d="M272.6,172.56c0-.05-.22.05-.2.1.39,1.22.33,2.6-2.28,2.86-.08,0-.06.07,0,.07C273.42,175.57,273.45,173.74,272.6,172.56Z" style="fill:#263238"></path><path d="M269.62,171.15c-1.61-.14-3,.39-3.1,1.42s.94,1.9,3,2C274,174.88,273.73,171.5,269.62,171.15Z" style="fill:#263238"></path><path d="M273,173.57c0,.26-8.94-1.15-9-1.34s2.85-1.94,6-1.4A3.66,3.66,0,0,1,273,173.57Z" style="fill:#263238"></path><path d="M284.08,171.17s.19,0,.19.05c0,1.28.42,2.63,2.52,2.36.07,0,.06,0,0,.07C284.24,174.3,283.73,172.5,284.08,171.17Z" style="fill:#263238"></path><path d="M286,169.16c1.85-.65,2.74-.18,3.07.49s-.2,2.17-2.09,2.93C283.65,173.92,282.9,170.26,286,169.16Z" style="fill:#263238"></path><path d="M284,172.24c.06.25,6.61-3.05,6.6-3.24a5.48,5.48,0,0,0-5-.06A3.4,3.4,0,0,0,284,172.24Z" style="fill:#263238"></path><path d="M288.4,152c-10.32,7.62-25.18-2.84-25.18-2.84a11.5,11.5,0,0,1-11.41,7.69s-1.45,18-6.17,18.1c-7.19.21-10.27-24.12-8.17-29s8.16-6.32,8.16-6.32.31-3.73,4.64-7.29c4.78-3.93,21.9.54,21.9.54a15.74,15.74,0,0,1,4.14-6,4.44,4.44,0,0,1,6.42.36,10.54,10.54,0,0,0-1.57,4.48c-.67,5.27,3.61,5.11,3.41.36a7.48,7.48,0,0,0-1.84-4.84c2-3.18,5.41-4.31,7.57-2.72C294.2,127.4,297,145.67,288.4,152Z" style="fill:#263238"></path><path d="M250.36,176.44s-7-9.87-11.48-7.37.83,16.84,6.12,18.77a5.37,5.37,0,0,0,7.18-2.93Z" style="fill:#f7a9a0"></path><path d="M240.5,173.14a.07.07,0,0,0,0,.14c3.71,1.48,5.68,4.9,7.07,8.45-1.11-1.36-2.61-2.1-4.44-.78-.1.07,0,.22.1.2a3.3,3.3,0,0,1,3.65,1.13,16,16,0,0,1,1.76,2.93c.17.33.77.15.64-.23l0-.09C249.29,180.17,245.58,173.58,240.5,173.14Z" style="fill:#263238"></path><path d="M230.17,220c-34.79,36.22-85.52,127.93-91.79,141.08-4.25,8.93,42.42,32.46,44.4,26,2.54-8.31,43.19-110.95,54-149.68C242.72,216,237.36,212.5,230.17,220Z" style="fill:#f7a9a0"></path><path d="M185,380.89c-1.63,4.45-7.17,23.33-11,25.69s-24.21,1.85-34.47,1.85-12.26-2.86-12.1-6.39,21.68-4.2,21.68-4.2-28.72,8.23-35.95,9.58S89.21,413,86.8,407c-1.08-2.7,3.48-5.43,3.48-5.43s-7,2-8.1-1.44c-1.26-4,4.29-6.13,4.29-6.13s-4.37.88-4.47-2.34c-.22-7.2,27.1-10.74,27.1-10.74s-20.92,10.19-21.59,4.31c-.93-8.13,41.94-17.05,46.41-20.59a30.51,30.51,0,0,0,7.15-8.83Z" style="fill:#f7a9a0"></path><path d="M127.52,403.83a3.11,3.11,0,0,1,1-2.74,9,9,0,0,1,2.5-1.63,34.11,34.11,0,0,1,5.87-1.9c4-1,8.19-1.75,12.31-2.82a50.1,50.1,0,0,0-12.66,1.43,22.9,22.9,0,0,0-6,2.31,8,8,0,0,0-2.52,2.16A3.28,3.28,0,0,0,127.52,403.83Z" style="fill:#263238"></path><path d="M90.28,401.54c3-.73,5.87-1.56,8.78-2.4s5.8-1.73,8.69-2.61l8.65-2.71c2.89-.9,5.77-1.8,8.69-2.67a68.08,68.08,0,0,0-9,1.6c-3,.68-5.88,1.53-8.78,2.41s-5.78,1.86-8.62,2.93S93,400.25,90.28,401.54Z" style="fill:#263238"></path><path d="M118.15,384a56.6,56.6,0,0,0-8.29,1.14,78.44,78.44,0,0,0-8.11,2.09,73.14,73.14,0,0,0-7.84,2.93A58.7,58.7,0,0,0,86.47,394c2.64-.91,5.21-1.92,7.84-2.8s5.23-1.78,7.87-2.59,5.29-1.61,7.94-2.39S115.46,384.71,118.15,384Z" style="fill:#263238"></path><path d="M113.92,377.12a51.78,51.78,0,0,0-13.19,2.78,51.21,51.21,0,0,0-12.14,5.88c4.25-1.51,8.38-3.11,12.6-4.52S109.64,378.5,113.92,377.12Z" style="fill:#263238"></path><path d="M181.16,282,220,292.83s13.16-35.87,17.37-54.35,5.32-35.33-17.07-8.73A609.88,609.88,0,0,0,181.16,282Z" style="fill:#c7c7c7"></path><path d="M235,254.72q-1.19,2.18-2.22,4.42c-.34.74-.7,1.48-1.05,2.22.26-.84.53-1.68.78-2.53,1-3.28,1.88-6.59,2.68-9.92,0-.12-.14-.15-.19,0-2.17,5.65-4.17,11.38-6.08,17.13s-3.87,11.28-5.77,16.93c-1.08,3.2-3.07,9.66-3.14,9.65s-1.53-.19-1.7-.23-.13.12,0,.15l2,.55a62.22,62.22,0,0,0,3.47-8.45c1.06-2.83,2.07-5.68,3.06-8.54,1.49-4.31,3-8.61,4.35-12.95.69-1.26,1.29-2.59,1.93-3.88q1.08-2.18,2-4.43C235.15,254.71,235,254.63,235,254.72Z" style="fill:#263238"></path><path d="M220.53,284.91c-2-.76-4.18-1.32-6.28-1.89l-6.64-1.8q-6.53-1.75-13.06-3.45c-2.49-.64-5-1.19-7.49-1.91-.09,0-.13.12,0,.14,2.16.64,4.28,1.43,6.43,2.11s4.31,1.33,6.47,2c4.33,1.26,18,4.73,20.51,5.07C220.57,285.16,220.67,285,220.53,284.91Z" style="fill:#263238"></path><path d="M270.05,223.81a.19.19,0,0,0-.37,0c-.26,3.78-.53,7.86-2.38,11.25-1.67,3.05-4.45,5.23-8,5.23-3.8,0-7.2-2.11-10.15-4.31a42.83,42.83,0,0,1-7.55-7.25,42,42,0,0,1-6.17-10.12c0-.09-.19-.05-.15,0a44.11,44.11,0,0,0,5.22,9.74,43.62,43.62,0,0,0,7.59,8.12c3,2.46,6.42,4.69,10.37,5a9.83,9.83,0,0,0,9.19-4.67C270.15,233,270.11,228.25,270.05,223.81Z" style="fill:#263238"></path><path d="M425.58,309.93c5.55-.14,34.82-2.39,41.7-4.77s26.18-10.68,24.88-16.13-7.13-3.48-7.13-3.48,7.6-4.79,5.8-10.16-10.79-2-10.79-2,7.44-5.49,5.26-10.72-10.65-.32-10.65-.32,7-4.71,3.43-8.26C473.74,249.82,461.75,260,454,262c-1.77.47-36.54,6.94-36.54,6.94Z" style="fill:#f7a9a0"></path><path d="M475.38,261.94c-8.83,7.43-14,9.16-25.25,10.7-.22,0-.23.36,0,.35,11.16-.5,17.94-1.73,25.63-10.64C476.14,261.91,475.81,261.59,475.38,261.94Z" style="fill:#263238"></path><path d="M480.73,272.79c-9.86,6.92-15.43,8.83-27.11,11.32-.16,0-.12.32.05.29,11.66-1.47,18.39-2.86,27.33-11.06C481.4,273,481.18,272.47,480.73,272.79Z" style="fill:#263238"></path><path d="M484.43,285.66c-10,6-16,8.38-27.69,9.33a.22.22,0,0,0,0,.43c12,.18,19.51-2.72,27.83-9.44C485.15,285.53,485.06,285.28,484.43,285.66Z" style="fill:#263238"></path><path d="M410.27,270.25s9.21-11.17,14.34-15.18,29.73-11.93,31.74-6.72c2.6,6.74-10.7,14.11-17.69,16.87,0,0,6,15.58-2.38,22.93S410.27,270.25,410.27,270.25Z" style="fill:#f7a9a0"></path><path d="M456.46,250.44c-2.06,7.85-11.47,10.88-18,14.06a.67.67,0,0,0-.22,1.08c2.09,6.7,3.09,16.76-1.45,22.6a.17.17,0,1,0,.25.23c5.72-5.61,5.54-15.57,2.79-22.76,6.79-3.16,16.09-6.61,16.76-15.19C456.54,250.41,456.47,250.39,456.46,250.44Z" style="fill:#263238"></path></g><g id="freepik--character-4--inject-56"><path d="M560.93,396.51h-81L478,383.7l-.47-3.2-5.23-35.18,0-.16H548l0,.14v.05h0l0,.12,0,.25.18.69.11.45Z" style="fill:#37474f"></path><path d="M496.05,396.51h-1.52q-3.19-12.36-6.21-24.75l-.54-2.23c-.22-.92-.45-1.85-.66-2.77q-1.75-7.27-3.49-14.57a.22.22,0,0,1,.42-.11c1.25,4.46,2.47,8.92,3.69,13.38.24.85.48,1.7.71,2.56Q492.34,382.24,496.05,396.51Z" style="fill:#455a64"></path><path d="M548.11,345.09l0,.26h0a379.08,379.08,0,0,1-9.29,51.15H431.33a104.62,104.62,0,0,1,14.49-51.42Z" style="fill:#37474f"></path><path d="M523,358.4a143.62,143.62,0,0,1,.33,29.68q-.36,4.23-.92,8.43h-1.9a286.53,286.53,0,0,0,2-38.08A.25.25,0,0,1,523,358.4Z" style="fill:#455a64"></path><path d="M535.05,396.51h-2c.83-4.11,1.29-7.67,1.42-9.12a289.1,289.1,0,0,0,1.48-29.45c0-.32.53-.26.56.05C537.45,370.6,537.36,384,535.05,396.51Z" style="fill:#455a64"></path><path d="M449.44,388.68c7.44-.75,15.09-.65,22-4s11.46-10,15-16.69a54.77,54.77,0,0,0,4.94-13.09.19.19,0,0,1,.37.06,36.49,36.49,0,0,1-3,12.35,55.23,55.23,0,0,1-5.9,10.94,26.78,26.78,0,0,1-8.5,8,29.28,29.28,0,0,1-11.16,3.36,62.07,62.07,0,0,1-13.76-.08A.43.43,0,0,1,449.44,388.68Z" style="fill:#455a64"></path><path d="M451.23,349.43c-6.52,12.71-12.27,26.29-13.54,40.67a62.32,62.32,0,0,0-.24,6.41H436a71.94,71.94,0,0,1,4.65-25.84A148.62,148.62,0,0,1,451,349.27.16.16,0,0,1,451.23,349.43Z" style="fill:#455a64"></path><path d="M528.83,164.84c14,22.58,20.13,74.34,3.08,100.94-20.32,31.69-55.82,41.29-79,26.47-21.06-13.45-25.11-39.34-12.15-54.42,12.52-14.57,29.69-16.62,36.46-30.72,3.24-6.75,3.35-19.38,7.32-29.74C489.36,164.74,517.89,147.26,528.83,164.84Z" style="fill:#d85645"></path><path d="M436.61,241a38.08,38.08,0,0,1,7.21-9.06,47,47,0,0,1,9-6.67c3.26-1.83,6.47-3.76,9.65-5.83a49.71,49.71,0,0,0,8.94-7.29,34.59,34.59,0,0,0,3.75-4.66,25.43,25.43,0,0,0,2.55-5.59,110.43,110.43,0,0,0,2.79-11.81,52.24,52.24,0,0,1,3.57-11.33c1.63-3.59,4.53-6.55,7.21-9.32-2.88,2.51-5.94,5.42-7.79,9a51.4,51.4,0,0,0-4,11.41c-1,3.92-1.69,7.89-3,11.61a23.89,23.89,0,0,1-2.44,5.21,33.32,33.32,0,0,1-3.61,4.38c-5.2,5.55-11.81,9.19-18.14,13.18a47.87,47.87,0,0,0-9,7.17A36.54,36.54,0,0,0,436.61,241Z" style="fill:#d85645"></path><path d="M515.59,254.58c16.12,18.77,47.68,41,71.26,46.49,11.36,2.64,27.75-7.3,30.55-9.85,17.5-15.89,37.52-47.57,44.43-68.7,2.06-6.29-34.9-21.32-38.93-15.5-9.43,13.63-35.31,49.28-37.26,49.36-7.19.3-33.77-11.51-59.25-21.2C499.58,225,506.36,243.84,515.59,254.58Z" style="fill:#ffc4c0"></path><path d="M600.64,152.44l48.28-22.7c1.39-.84,2.74-.32,3,1.14l5.11,26.2a4.3,4.3,0,0,1-2,4.16L606.79,184c-1.39.83-2.74.32-3-1.15l-5.12-26.2A4.34,4.34,0,0,1,600.64,152.44Z" style="fill:#37474f"></path><path d="M601.22,155.56l48.28-22.71c1.39-.83,2.74-.32,3,1.15l5.11,26.2a4.3,4.3,0,0,1-2,4.16l-48.28,22.7c-1.39.84-2.74.32-3-1.14l-5.12-26.2A4.33,4.33,0,0,1,601.22,155.56Z" style="fill:#455a64"></path><path d="M605,162.29a2.27,2.27,0,1,0-2.7-1.74A2.28,2.28,0,0,0,605,162.29Z" style="fill:#263238"></path><path d="M666.9,183.93c-2.41-13.44-5.09-16.52-1.1-28.94,2.62-8.16-1.46-13.33-7.81-7.09-10.4,10.21-10.93,28.2-9.32,34.49Z" style="fill:#ffc4c0"></path><path d="M661.83,222.52s7.2-18,6-32.56c-.79-10.08-5-31.82-32.09-45.06-6.43-3.15-17.83-3.06-9.18,5.89,6.14,6.35,11.95,8.53,14.85,12.87,0,0-14.48,1.83-17.38,8.4a132.46,132.46,0,0,0-6.34,17.7,28.69,28.69,0,0,0,3.2,1.49s-2.12,6.39,2,15.77Z" style="fill:#ffc4c0"></path><path d="M665.59,180.46c-3.79-3.7-12-11.43-20.82-15.42-9.86-4.44-30-10.32-33.24-3-2.35,5.36,5.16,8.29,5.16,8.29s-8.85-.68-9.91,4.63c-1,4.83,5,6.75,5,6.75s-5.44.51-5.47,5.35c0,5.81,11.37,3.78,16.42,9.71C623.83,198.08,665.59,180.46,665.59,180.46Z" style="fill:#ffc4c0"></path><path d="M641.81,176.24c-4.13-2.91-15.21-7.09-24.94-6.07-.22,0-.32.21-.12.23a105.9,105.9,0,0,1,25,5.93A0,0,0,0,0,641.81,176.24Z" style="fill:#263238"></path><path d="M637.05,186.05c-3.83-2.13-15.44-5.93-25.26-4.56-.22,0-.31.22-.11.23A113.55,113.55,0,0,1,637,186.15C637.07,186.17,637.1,186.08,637.05,186.05Z" style="fill:#263238"></path><path d="M616.72,213.27l38.45,45s-35.1,39.47-50.51,44.45C588.3,308,549.59,293,517.41,257.86c-24.52-26.79-5.61-30.6,13.39-22.55,12.74,5.4,53.31,19.5,54.59,19S616.72,213.27,616.72,213.27Z" style="fill:#219015"></path><path d="M611.85,226.8c5.33,6,10.47,12.16,15.57,18.36,2.51,3,12,15.5,14.7,19,.11.14-.27.44-.39.31-2.77-3.08-12.92-15.43-15.37-18.51-5-6.28-9.94-12.59-14.68-19C611.59,226.82,611.76,226.7,611.85,226.8Z" style="fill:#263238"></path><path d="M616.51,295.63c-4.49,3.42-8.61,6-11.86,7.05C588.3,308,549.59,293,517.4,257.86c-9-9.81-12.13-16.54-11.59-20.73Z" style="opacity:0.1"></path><path d="M540.24,313.58l12.87,41.23H438.28s9.64-92,42-119.06c17.67-14.79,31.38-8.46,40.73,1.33,2.31,2.44,27.15,36.64,28.22,51.12C550.1,301,540.24,313.58,540.24,313.58Z" style="fill:#219015"></path><path d="M546.23,275.68c-.73-1.56-1.54-3.09-2.38-4.59a8.52,8.52,0,0,0-.2-1c-.2-.73-.43-1.46-.7-2.17a22.57,22.57,0,0,0-2.1-4.09.09.09,0,0,0-.15.09,32.08,32.08,0,0,1,1.9,4.18c.21.58.4,1.16.57,1.75-1.06-1.84-2.18-3.65-3.3-5.45a53.5,53.5,0,0,0-4.28-6.07s-.09,0-.06,0a105,105,0,0,1,6.26,11.22A108.38,108.38,0,0,1,547.1,281c.85,2.21,1.55,4.47,2.2,6.74,0,.08.15.06.15,0A30.32,30.32,0,0,0,546.23,275.68Z" style="fill:#263238"></path><path d="M490,235.9c.7,1.94,11.75,13.74,20.81,12.23,2.95-.5.95-16.71.95-16.71l.13-1.23L513.63,213l-21.22-10.31-3.05-1.33s-.17,4.74-.32,10.65c0,.28,0,.55,0,.85s0,.65,0,1c0,.88-.07,1.78-.08,2.68,0,.68,0,1.35,0,2.07s0,1.42,0,2.14A112.09,112.09,0,0,0,490,235.9Z" style="fill:#ffc4c0"></path><path d="M489,212a34.77,34.77,0,0,0,22.83,18.22L513.63,213l-21.22-10.31-3.05-1.33S489.19,206.06,489,212Z" style="fill:#263238"></path><path d="M533.48,183.71c5.95,29.8-11.23,36.73-17.65,38C510,222.88,490,226.09,481,197.06s3-41.22,16.17-44.58S527.52,153.9,533.48,183.71Z" style="fill:#ffc4c0"></path><path d="M527.89,178.74a21,21,0,0,1-2.1-.07,3.32,3.32,0,0,1-2.12-.48,1.07,1.07,0,0,1-.23-1.3,2.65,2.65,0,0,1,2.49-1.07,3.89,3.89,0,0,1,2.68.94A1.15,1.15,0,0,1,527.89,178.74Z" style="fill:#263238"></path><path d="M508.57,182.89c.69-.21,1.29-.51,1.95-.78a3.42,3.42,0,0,0,1.83-1.18,1.08,1.08,0,0,0-.23-1.3,2.68,2.68,0,0,0-2.71-.16,3.91,3.91,0,0,0-2.19,1.8A1.15,1.15,0,0,0,508.57,182.89Z" style="fill:#263238"></path><path d="M514.21,189.7c0-.07-.14.13-.12.21.47,2,.67,4.41-1,5.45,0,0,0,.13,0,.11C515.28,194.7,515,191.54,514.21,189.7Z" style="fill:#263238"></path><path d="M512,188c-3.32.4-2.26,7,.81,6.62S514.75,187.61,512,188Z" style="fill:#263238"></path><path d="M510.74,188.5c-.52.47-1,1.22-1.66,1.4s-1.51-.39-2.14-1c-.07-.06-.11,0-.1.1.18,1.26.88,2.48,2.26,2.45s2-1.28,2.08-2.61C511.21,188.63,511,188.31,510.74,188.5Z" style="fill:#263238"></path><path d="M525.26,186.9c0-.08.17.07.18.15.25,2.06.88,4.37,2.83,4.77.06,0,.07.12,0,.12C526,192,525.16,188.88,525.26,186.9Z" style="fill:#263238"></path><path d="M526.76,184.48c3.25-.75,4.51,5.81,1.5,6.51S524,185.11,526.76,184.48Z" style="fill:#263238"></path><path d="M528.21,184.65c.59.25,1.22.78,1.85.7s1.12-.9,1.45-1.67c0-.08.09,0,.11,0,.28,1.25.11,2.64-1,3.11s-2.07-.49-2.6-1.68C527.87,184.94,528,184.55,528.21,184.65Z" style="fill:#263238"></path><path d="M516.2,206.13c.55.43,1.12,1,1.87,1a5.46,5.46,0,0,0,2.15-.77.07.07,0,0,1,.1.1,2.77,2.77,0,0,1-2.48,1.41,2.19,2.19,0,0,1-1.82-1.63C516,206.13,516.12,206.07,516.2,206.13Z" style="fill:#263238"></path><path d="M523.38,196.55s1,3.44,1.3,4.88c0,.14-4.94,1.24-8-1.49-.13-.12,0-.31.18-.24a10.4,10.4,0,0,0,6.52.87c0-.42-1.77-5.19-1.54-5.25a12.9,12.9,0,0,1,3.39.18c-1.79-6.25-4.57-12.17-6.26-18.42-.06-.22.26-.35.36-.16,3.35,6,5.57,13.14,7.58,19.55C527.14,197.27,524,196.7,523.38,196.55Z" style="fill:#263238"></path><path d="M523.42,201.23a8.53,8.53,0,0,1-2.89,3.18,3.74,3.74,0,0,1-2.25.54c-1.73-.14-2-1.65-2-3a8.61,8.61,0,0,1,.39-2.11A11,11,0,0,0,523.42,201.23Z" style="fill:#263238"></path><path d="M520.53,204.41a3.74,3.74,0,0,1-2.25.54c-1.73-.14-2-1.65-2-3C518.12,201.82,520.08,202.71,520.53,204.41Z" style="fill:#ff98b9"></path><path d="M481.79,197.6c5-.07,5.21-10.63,5.21-10.63s10.14-.9,12.14-15.77a22.48,22.48,0,0,1-3.38,12.46s17.69-3.53,23.85-19.17c0,0-2.3,7.89-4.87,10.85,0,0,7.3-2.77,10.4-9.19,0,0,3.92,8.34,6.54,10.51,0,0-3.59-31.2-32.25-25.22,0,0-18,2.86-23.22,17.81S481.79,197.6,481.79,197.6Z" style="fill:#d85645"></path><path d="M486.16,198.4s-7.64-8.69-11.65-5.87,2.46,15.95,7.69,17.26a5.14,5.14,0,0,0,6.54-3.51Z" style="fill:#ffc4c0"></path><path d="M476.46,196.25a.07.07,0,0,0,0,.13c3.68,1,5.9,4.1,7.58,7.34-1.2-1.19-2.7-1.74-4.31-.3-.08.07,0,.21.12.18a3.16,3.16,0,0,1,3.58.71,15.27,15.27,0,0,1,2,2.61c.19.3.74.07.58-.28l0-.08C485.52,202.06,481.33,196.16,476.46,196.25Z" style="fill:#263238"></path><path d="M506.79,197.6a.52.52,0,1,1-.52-.51A.52.52,0,0,1,506.79,197.6Z" style="opacity:0.1"></path><circle cx="504.01" cy="195.99" r="0.52" style="opacity:0.1"></circle><path d="M503.24,199.32a.52.52,0,1,1-.52-.51A.52.52,0,0,1,503.24,199.32Z" style="opacity:0.1"></path><path d="M509.77,200.87a.52.52,0,1,1-.51-.52A.51.51,0,0,1,509.77,200.87Z" style="opacity:0.1"></path><path d="M531.68,193.54a.52.52,0,1,1-.51-.51A.51.51,0,0,1,531.68,193.54Z" style="opacity:0.1"></path><path d="M534.12,194.78a.52.52,0,0,1-.52.52.52.52,0,1,1,0-1A.51.51,0,0,1,534.12,194.78Z" style="opacity:0.1"></path><path d="M528.84,194.06a.52.52,0,1,1-.52-.52A.51.51,0,0,1,528.84,194.06Z" style="opacity:0.1"></path><path d="M517.11,196a.52.52,0,1,1-.51-.52A.51.51,0,0,1,517.11,196Z" style="opacity:0.1"></path><path d="M533.6,190.75a.52.52,0,1,1-.52-.52A.51.51,0,0,1,533.6,190.75Z" style="opacity:0.1"></path><path d="M513,198.4a.52.52,0,1,1-.51-.51A.51.51,0,0,1,513,198.4Z" style="opacity:0.1"></path><path d="M507.76,150.1a46.71,46.71,0,0,0-13.36-2.56c-5.09-.13-20.81,2.7-24.29,6.25s-3,18.59-2.86,20.79,2.43,15.29,7.53,18,3.3-19.76,10.1-28S507.76,150.1,507.76,150.1Z" style="fill:#219015"></path><path d="M507.76,150.1s-16.09,6.31-22.88,14.51-5,30.67-10.1,28c-2.25-1.19-3.48-3.18-4.7-6.6.34-6.65,2-17.08,6.71-24.67C481.24,154.19,489.71,150,499,148A53.25,53.25,0,0,1,507.76,150.1Z" style="opacity:0.1"></path><path d="M477.43,205.75c-.17-6,4.29-22.62,9.74-32.44s23.64-17.06,26.28-17.17c6.39-.27,8.74,1.43,9.69.76s-6.08-4.79-8-5.68-7-2.93-9.73-2.59-19.63,3.76-25.1,11.66-12.17,29.15-10,34.21c.51,1.21,2.26,1.85,3,3.57.93,2.26,1.69,4.9,2.56,6.46C476.53,205.79,477.45,206.28,477.43,205.75Z" style="fill:#219015"></path><path d="M488.22,169.05a30.38,30.38,0,0,1-4.44-2.61,22.43,22.43,0,0,1-3.92-3.42c-.08-.1-.24,0-.16.11a16.92,16.92,0,0,0,3.64,3.91,14.41,14.41,0,0,0,4.77,2.33C488.3,169.42,488.39,169.13,488.22,169.05Z" style="fill:#263238"></path><path d="M476.77,199.79c-.21-.41-.53-.77-.78-1.16a7.49,7.49,0,0,1-.7-1.42,13.7,13.7,0,0,0-1-2.83,10.54,10.54,0,0,0-1.61-1.85,4,4,0,0,1-1.42-2.31.1.1,0,0,0-.2,0c.18,1.82,1.53,3,2.47,4.43a18.58,18.58,0,0,1,1.14,3,4.64,4.64,0,0,0,1.82,2.33C476.65,200.08,476.85,199.94,476.77,199.79Z" style="fill:#263238"></path><path d="M478.18,193.12c-.63-.62-1.3-1.17-1.88-1.86a19.59,19.59,0,0,1-1.51-2.1c-.45-.72-.85-1.47-1.29-2.2s-1.14-1.67-1.62-2.56c-.06-.11-.22,0-.16.12.49.91.83,1.92,1.29,2.85a19.62,19.62,0,0,0,1.39,2.33,13,13,0,0,0,1.62,2,6.43,6.43,0,0,0,2.1,1.52A.06.06,0,0,0,478.18,193.12Z" style="fill:#263238"></path><path d="M479.76,187.06a17.12,17.12,0,0,1-3.62-3.34c-1-1.26-1.93-2.58-2.85-3.91-.06-.09-.23,0-.18.09a20.33,20.33,0,0,0,2.52,4.33,10.48,10.48,0,0,0,1.72,1.74,11.71,11.71,0,0,0,2.3,1.27C479.75,187.28,479.87,187.13,479.76,187.06Z" style="fill:#263238"></path><path d="M481.57,181.23a5.79,5.79,0,0,1-1.75-1.44c-.58-.61-1.16-1.25-1.71-1.9s-1.07-1.23-1.59-1.85a5.84,5.84,0,0,1-1.3-2.09.1.1,0,0,0-.19.05,6,6,0,0,0,.92,2.26,15,15,0,0,0,1.59,2.2,21.18,21.18,0,0,0,1.88,1.91,3.82,3.82,0,0,0,2.06,1.12C481.63,181.51,481.72,181.3,481.57,181.23Z" style="fill:#263238"></path><path d="M482.56,174c-.61-.49-1.22-1-1.78-1.51s-1.11-1.1-1.64-1.66-1.14-1.18-1.65-1.81a.1.1,0,0,0-.17.11,16.5,16.5,0,0,0,1.32,2.07,19.76,19.76,0,0,0,1.64,1.78,20.68,20.68,0,0,0,1.82,1.55,6.28,6.28,0,0,0,2.08,1.16c.11,0,.22-.12.14-.21A11.89,11.89,0,0,0,482.56,174Z" style="fill:#263238"></path><path d="M492.46,165.19c-.67-.67-1.31-1.33-2-1.94a27.94,27.94,0,0,0-2.32-1.73,25.89,25.89,0,0,0-5-2.65c-.1,0-.21.1-.11.16,3.07,2.14,6.23,4.15,9.29,6.31A.1.1,0,0,0,492.46,165.19Z" style="fill:#263238"></path><path d="M495.55,159.71a12.43,12.43,0,0,0-2.22-1.72,27.6,27.6,0,0,0-5.41-2.33.1.1,0,0,0-.08.18c1.65.88,3.32,1.72,4.92,2.69a23.68,23.68,0,0,1,2.31,1.53c.74.57,1.33,1.27,2,1.86a.08.08,0,0,0,.12-.08A7,7,0,0,0,495.55,159.71Z" style="fill:#263238"></path><path d="M500.29,156.87a13.19,13.19,0,0,0-2.07-1.73A14.91,14.91,0,0,0,493.6,153c-.11,0-.16.14-.06.18a30,30,0,0,1,4.42,2.57c.7.49,1.37,1,2.05,1.54a23.85,23.85,0,0,0,2,1.64c.06,0,.11,0,.08-.1A14.06,14.06,0,0,0,500.29,156.87Z" style="fill:#263238"></path><path d="M503.59,153.53c-.68-.45-1.38-.86-2.09-1.27a7.36,7.36,0,0,0-2.19-.95c-.12,0-.15.13-.06.18,1.32.85,2.62,1.73,3.93,2.61a21.14,21.14,0,0,1,3.12,3,.07.07,0,0,0,.11-.07A7.72,7.72,0,0,0,503.59,153.53Z" style="fill:#263238"></path><path d="M508,152.11a12.52,12.52,0,0,0-4.24-2.08c-.1,0-.16.15-.06.19a15.1,15.1,0,0,1,3.9,2.36,20.68,20.68,0,0,1,3.22,3.26s.16,0,.13-.07A10.28,10.28,0,0,0,508,152.11Z" style="fill:#263238"></path><path d="M514.12,154.19a7.31,7.31,0,0,0-.61-.85,10,10,0,0,0-1.49-1.49,21.5,21.5,0,0,0-3.66-2.27c-.11-.06-.2.12-.08.18a17.5,17.5,0,0,1,3.44,2.36,14.18,14.18,0,0,1,1.44,1.46c.22.25.42.52.62.79a4.67,4.67,0,0,0,.58.8.1.1,0,0,0,.16-.08A2.79,2.79,0,0,0,514.12,154.19Z" style="fill:#263238"></path><path d="M517.74,154.15a15.86,15.86,0,0,0-1.23-1.23,12.8,12.8,0,0,0-1.36-1.07c-.49-.33-1-.65-1.47-1a.1.1,0,1,0-.11.16,9.41,9.41,0,0,1,1.39,1.13l1.25,1.13,1.24,1.15c.42.38.8.84,1.25,1.18a.08.08,0,0,0,.12-.11A7.64,7.64,0,0,0,517.74,154.15Z" style="fill:#263238"></path><path d="M475.32,262.71C451,252.65,419.38,230,409,221.1c-11.58-9.88-23.35-50.64-28.86-76.42-1.2-5.62,43.74-12.09,45.93-6.35,5.13,13.44,11,47.92,15.73,56.27,3.09,5.43,28.26,24.29,43,38.63C503.13,251.15,490,268.76,475.32,262.71Z" style="fill:#ffc4c0"></path><path d="M380.09,144.68c-.75-5.5-3.21-34.75-2-41.92s6.36-27.55,11.95-27.15,4.57,6.49,4.57,6.49,3.52-8.27,9.11-7.35,3.7,10.33,3.7,10.33,4.23-8.22,9.74-6.91,2,10.47,2,10.47,3.52-7.7,7.6-4.71c4.91,3.6-3.18,17.06-4,25.08-.17,1.82-1,37.18-1,37.18Z" style="fill:#ffc4c0"></path><path d="M419.5,87.85c-5.92,9.91-6.8,15.27-6.52,26.64,0,.22-.33.28-.35,0-1.29-11.1-1.16-18,6.41-27C419.41,87.09,419.78,87.37,419.5,87.85Z" style="fill:#263238"></path><path d="M407.94,84.3c-5.25,10.84-6.26,16.65-6.84,28.57,0,.17-.3.17-.3,0-.41-11.74-.12-18.61,6.55-28.74C407.65,83.67,408.18,83.81,407.94,84.3Z" style="fill:#263238"></path><path d="M394.64,82.71c-4.33,10.85-5.7,17.17-4.79,28.82a.21.21,0,0,1-.42.06c-2.09-11.79-.44-19.69,4.87-29C394.66,82,394.91,82,394.64,82.71Z" style="fill:#263238"></path><path d="M421.71,153.45s9.55-10.87,12.69-16.58,7-31.25,1.56-32.41c-7.07-1.49-12.22,12.83-13.83,20.16,0,0-16.34-3.45-22.26,6S421.71,153.45,421.71,153.45Z" style="fill:#ffc4c0"></path><path d="M433.88,104.69c-7.42,3.29-8.91,13.06-11,20.06a.67.67,0,0,1-1,.39c-6.94-1-17-.37-22.08,5a.17.17,0,0,1-.27-.21c4.63-6.54,14.49-8,22-6.39,2-7.22,4-17,12.32-19C433.9,104.61,433.93,104.67,433.88,104.69Z" style="fill:#263238"></path><path d="M377.78,170.17l54.71-16.72s8.48,35.93,9.85,39.77,34.32,31.48,46.4,42.64,6.26,36.8-17.65,26.68-56.15-32-65.14-40.78S377.78,170.17,377.78,170.17Z" style="fill:#219015"></path><path d="M386.5,179.65c7.51-2.83,15.1-5.43,22.71-8,3.73-1.25,18.76-5.63,23-6.93.17-.05.31.42.14.48-3.86,1.49-19,6.55-22.78,7.74-7.65,2.41-15.31,4.77-23,6.89C386.43,179.9,386.37,179.7,386.5,179.65Z" style="fill:#263238"></path><path d="M472.92,269.86a22.08,22.08,0,0,0-1.82-4.8,16.34,16.34,0,0,0-3.17-4.08,19.31,19.31,0,0,0-8.81-4.61.08.08,0,0,0,0,.16A17.3,17.3,0,0,1,467,262a36.17,36.17,0,0,1,2.92,3.83,25.46,25.46,0,0,1,2.4,4.25A.31.31,0,0,0,472.92,269.86Z" style="fill:#263238"></path></g><g id="freepik--character-3--inject-56"><path d="M407.23,288.13c1.25,15.87,22.79,104,51.56,114.15,26.74,9.43,74.42-44.58,85.75-64,3.15-5.42-42.76-29-49.58-20.31-10.54,13.48-21.51,30.61-24.22,28.83-5.56-3.65-28.76-45.33-47.31-67.49C412.65,266.4,406.28,275.9,407.23,288.13Z" style="fill:#ad6359"></path><path d="M556.81,303.18c-.47,11.48-10.62,34.58-15.21,39.21s-44.43-11.31-46.27-17.75,2.75-45,10.44-53.8S557.3,291.29,556.81,303.18Z" style="fill:#ad6359"></path><path d="M501.57,286.83c4.67,3.89,13.68,10.21,14.06,9.64-.22.58-4,10.76,1.65,14.58,5.85,4,9.76-5,10-5.63,0,.62-.44,8.79,4.49,10.72,8.48,3.3,10.09-17.55,15.88-22.1,0,0,8.84,8.93,9.15,9.14,0,0,1.94-19.81-4.64-27.28a6.38,6.38,0,0,0-7.83-1.48s1.33-6.31-3-9.46c-2.23-1.61-6.78.53-6.78.53s5.42-34.29-4.25-34.11-12.7,37.26-12.7,37.26.64-36.7-9-36.4C498.36,232.56,499.22,284.87,501.57,286.83Z" style="fill:#ad6359"></path><path d="M534.61,265.32c.08-.09-.07-.24-.18-.15-9,7-17.11,18.66-19.26,31.38-.07.44.3.91.43.41C517.66,288.61,527.36,273,534.61,265.32Z" style="fill:#263238"></path><path d="M527.45,306.36c2.53-12.12,8.69-22.21,16.5-31.67.11-.12-.08-.25-.19-.17-5.09,3.58-9.44,10.13-12.4,15.51A32.6,32.6,0,0,0,527,306.28C527,306.5,527.4,306.62,527.45,306.36Z" style="fill:#263238"></path><path d="M547.65,294.05a12.92,12.92,0,0,0-2.57,4.41c-.66,1.59-1.25,3.21-1.82,4.85a56.43,56.43,0,0,1-4.19,9.61,9.83,9.83,0,0,1-3.91,4,5.35,5.35,0,0,1-5.76-1.09,9.71,9.71,0,0,1-2.62-5c-.12-.53-.22-1.07-.29-1.6a11.78,11.78,0,0,1-2.46,2.75,6,6,0,0,1-3.86,1.37,6.89,6.89,0,0,1-3.82-1.34,8.92,8.92,0,0,1-3.42-6.74c-.36-5.8,3.22-13,3.22-13l.38,1.78a31.18,31.18,0,0,0-1.72,11,7.29,7.29,0,0,0,2.7,5.33,4.17,4.17,0,0,0,5.25-.06,12.55,12.55,0,0,0,3.6-5.19l2.23-5.47-.31,5.87a18.74,18.74,0,0,0,.36,4.89,7.71,7.71,0,0,0,2,4.09,3.76,3.76,0,0,0,3.86.89,8.36,8.36,0,0,0,3.36-3.21,66,66,0,0,0,4.59-9.17c.7-1.58,1.4-3.17,2.19-4.73A12.37,12.37,0,0,1,547.65,294.05Z" style="fill:#263238"></path><path d="M495,317.94s-17.33-45.55,3.79-43.6c6.28.58,31.36,10.45,29.48,15.53-2.44,6.55-13.68,4.39-20.52,1.91,0,0,8.08,14.66-.45,23.33C501.9,320.54,495,317.94,495,317.94Z" style="fill:#ad6359"></path><path d="M497,274.29a25.26,25.26,0,0,1,7.38.89,57,57,0,0,1,7.11,2.25A85.44,85.44,0,0,1,525,283.89a13.92,13.92,0,0,1,3.09,2.48,5.28,5.28,0,0,1,1.14,2,3.82,3.82,0,0,1,.18,1.24,4.13,4.13,0,0,1-.25,1.21,6.35,6.35,0,0,1-2.9,3.25,11.79,11.79,0,0,1-3.88,1.2,23,23,0,0,1-7.69-.49,52.6,52.6,0,0,1-7.22-2.15l1-1.25a29.26,29.26,0,0,1,2.08,5.33,27.87,27.87,0,0,1,1,5.58,19.39,19.39,0,0,1-.42,5.64,14.55,14.55,0,0,1-2.23,5.13,16.41,16.41,0,0,0,1.64-5.23,20.14,20.14,0,0,0-.08-5.43,26.59,26.59,0,0,0-1.29-5.26,28.57,28.57,0,0,0-2.23-4.89l-1.12-1.92L508,291a53.41,53.41,0,0,0,7,1.85,22,22,0,0,0,7,.37c2.21-.3,4.48-1.3,5.12-3.1.71-1.52-1.35-3.28-3.28-4.56s-4.16-2.48-6.32-3.63-4.35-2.26-6.59-3.26C506.49,276.72,501.91,274.74,497,274.29Z" style="fill:#263238"></path><path d="M424.81,367.78,461,331.45S444.61,303.86,432,287.62s-29.4-30-25.05,12.5C410.64,336.49,424.81,367.78,424.81,367.78Z" style="fill:#455a64"></path><path d="M436.87,299.42a15.19,15.19,0,0,1,.53,4.44,16,16,0,0,1-1.65-4.16,15.61,15.61,0,0,1-.52-4.44A15.54,15.54,0,0,1,436.87,299.42Zm-3.3,34.51a15.94,15.94,0,0,0,.53,4.44,15.24,15.24,0,0,0,1.65,4.16,17.33,17.33,0,0,0-2.18-8.6Zm12.26-4.79a15.61,15.61,0,0,0,4.44-.52,16,16,0,0,0,4.15-1.65,15.61,15.61,0,0,0-4.44.52A16,16,0,0,0,445.83,329.14Zm-32.41,5.47c.14.51.27,1,.42,1.52l.25-.41a15.65,15.65,0,0,0,1.77-4.1A14.73,14.73,0,0,0,413.42,334.61Zm6.06-49.31a16,16,0,0,0-2.77,3.51,15.65,15.65,0,0,0-1.77,4.1,15.76,15.76,0,0,0,2.77-3.51A16,16,0,0,0,419.48,285.3Zm12,32.08a15.7,15.7,0,0,0-3.51-2.77,15.32,15.32,0,0,0-4.1-1.77,15.43,15.43,0,0,0,3.51,2.76A15.67,15.67,0,0,0,431.46,317.38Zm-2.31,41.5a13.37,13.37,0,0,0,2.46,2.08l.79-.79A14.22,14.22,0,0,0,429.15,358.88Z" style="fill:#263238"></path><path d="M454.09,323.78c-4.55,3.58-8.64,7.71-12.82,11.71S433,343.59,429,347.72c-2.32,2.36-4.5,4.85-6.79,7.24-.06.06.05.17.11.11,2.1-2,4.31-3.84,6.41-5.84s4.15-4,6.22-5.94c4.19-4,8.31-8.11,12.44-12.2,2.36-2.33,4.66-4.68,6.8-7.21C454.24,323.82,454.15,323.73,454.09,323.78Z" style="fill:#263238"></path><path d="M445.43,347.1l-20.62,20.68s-14.17-31.29-17.89-67.66c-2.34-22.89,1.44-29.46,7.4-28.12Z" style="fill:#263238"></path><path d="M444.58,396.2,327,396.51s13.34-87.1,56.53-128.58c5.34-5.13,17.87-4.52,26.18-.8,3,1.33,14,15.51,17.55,29.21S444.89,395.77,444.58,396.2Z" style="fill:#455a64"></path><path d="M405.67,308.45a15.57,15.57,0,0,1,.52,4.44,15.54,15.54,0,0,1-1.64-4.16,15.94,15.94,0,0,1-.53-4.44A15.91,15.91,0,0,1,405.67,308.45Zm-4.89,46.13a16,16,0,0,0,.53,4.44,15.37,15.37,0,0,0,1.65,4.16,17.33,17.33,0,0,0-2.18-8.6Zm-39.49-19.45a16,16,0,0,0,.53,4.44,15.31,15.31,0,0,0,1.65,4.15,17.26,17.26,0,0,0-2.18-8.59Zm74.46,6.61c-.26-1.5-.51-3-.77-4.48v0a14.53,14.53,0,0,0-1.41-3.31,15.94,15.94,0,0,0,.53,4.44,15.24,15.24,0,0,0,1.65,4.16c0-.26,0-.51,0-.76A0,0,0,0,0,435.75,341.74ZM379.54,321a16,16,0,0,0,4.44-.53,15.31,15.31,0,0,0,4.15-1.65,17.26,17.26,0,0,0-8.59,2.18ZM358.71,366.9a15.94,15.94,0,0,0,4.44-.53,15.54,15.54,0,0,0,4.16-1.64,15.57,15.57,0,0,0-4.44.52A15.91,15.91,0,0,0,358.71,366.9Zm54,18.57a15.61,15.61,0,0,0,4.44-.52,16,16,0,0,0,4.15-1.65,15.61,15.61,0,0,0-4.44.52A16,16,0,0,0,412.72,385.47Zm-55.45,7.82a16,16,0,0,0,4.44-.53,15.48,15.48,0,0,0,4.15-1.64,15.61,15.61,0,0,0-4.44.52A16,16,0,0,0,357.27,393.29Zm34.07-119.46a16,16,0,0,0,4.44-.53,15.64,15.64,0,0,0,4.15-1.65,16,16,0,0,0-4.44.53A15.64,15.64,0,0,0,391.34,273.83Zm-46.2,68.61a15.47,15.47,0,0,0-2.77,3.51,15.67,15.67,0,0,0-1.78,4.1,15.41,15.41,0,0,0,2.77-3.51A15.67,15.67,0,0,0,345.14,342.44Zm70.72-10.82a17.45,17.45,0,0,0-4.54,7.61,15.41,15.41,0,0,0,2.77-3.51A15.65,15.65,0,0,0,415.86,331.62Zm-25.63-41.57a15.75,15.75,0,0,0-2.77,3.52,15.19,15.19,0,0,0-1.77,4.1,17.41,17.41,0,0,0,4.54-7.62Zm-4.52,84.42a15.7,15.7,0,0,0-2.77,3.51,15.32,15.32,0,0,0-1.77,4.1,15.43,15.43,0,0,0,2.76-3.51A15.67,15.67,0,0,0,385.71,374.47Zm33.77-89.17a16,16,0,0,0-2.77,3.51,15.65,15.65,0,0,0-1.77,4.1,15.76,15.76,0,0,0,2.77-3.51A16,16,0,0,0,419.48,285.3Zm12,32.08a15.7,15.7,0,0,0-3.51-2.77,15.32,15.32,0,0,0-4.1-1.77,15.43,15.43,0,0,0,3.51,2.76A15.67,15.67,0,0,0,431.46,317.38ZM390.23,344.8a17.2,17.2,0,0,0-7.61-4.54,17.45,17.45,0,0,0,7.61,4.54Zm-46.72,33.78a16,16,0,0,0-3.52-2.77,15.65,15.65,0,0,0-4.1-1.77,15.7,15.7,0,0,0,3.51,2.77A16.06,16.06,0,0,0,343.51,378.58Zm93.26-15.16a15.92,15.92,0,0,0-3.51-2.77,15.72,15.72,0,0,0-4.11-1.77,17.41,17.41,0,0,0,7.62,4.54ZM370.5,284.8c-.32-.19-.65-.37-1-.54l-.64.87,1,.66a15.89,15.89,0,0,0,4.11,1.78A15.92,15.92,0,0,0,370.5,284.8Zm-4.11,28.45a16,16,0,0,0-3.51-2.77,15.65,15.65,0,0,0-4.1-1.77,15.76,15.76,0,0,0,3.51,2.77A16,16,0,0,0,366.39,313.25Z" style="fill:#263238"></path><path d="M428.53,302c1,3.05,1.93,6.22,2.68,9.41,0-.13,0-.25,0-.38,0-1.81-.08-3.65,0-5.45,0-.09.16-.13.18,0a27.06,27.06,0,0,1,.37,5.47c0,.87,0,1.73-.07,2.6.31,1.43.59,2.87.83,4.29.45,2.71,5.78,36.07,5.94,38.08,0,.42-.45.51-.58.08-.64-2-6.52-35.67-7.1-38.34A149.21,149.21,0,0,1,428.32,302C428.31,301.91,428.49,301.9,428.53,302Z" style="fill:#263238"></path><path d="M365.33,292.12c-9.57,21.09-43.53,102-26,116.65C361.11,427,434,426.11,448.63,426.38c6.39.12,14-44.87,9-49.52s-71.74-2.93-74.88-7c-1.29-1.66,6.74-51.09,4.82-77C385.64,267.53,370.61,280.48,365.33,292.12Z" style="fill:#ad6359"></path><path d="M443.09,374.64s13.1.39,16.33.7,35.76-6.59,46.07-.2c7.3,4.52,23.84,24.87,22.19,38.6-1,8.28-10.14,8.86-10.14,8.86s-1.33,5-5.31,6.62a10.7,10.7,0,0,1-8.84-.31,8.87,8.87,0,0,1-6.59,6.1c-6.5,1.46-9.38-2.38-9.38-2.38a16.23,16.23,0,0,1-10.19,5.1c-9.39.77-22.09-4.46-23.59-8.24-2.45-6.17,8.29-6.43,15.65-5.77,0,0-2.66-.19-3.19-3.9,0,0-4.19,9.81-26.81,5.58Z" style="fill:#ad6359"></path><path d="M476,391.6c5.3,5.39,9.08,12.91,11.88,19.89s4.18,14.59-.09,21.18c-.18.28-.63.08-.48-.23,3.76-7.55,1.36-15.41-1.84-22.7-2.74-6.26-5.54-12.43-10-17.67C475.24,391.76,475.75,391.31,476,391.6Z" style="fill:#263238"></path><path d="M490.35,388.68c8.73,9.51,19.54,26.93,13.21,40.17a.15.15,0,0,1-.27-.1c3.43-14.59-5.41-28.3-13.33-39.75C489.79,388.77,490.15,388.46,490.35,388.68Z" style="fill:#263238"></path><path d="M503.51,385c5.12,4.42,9,10.76,12,16.76,3.25,6.51,4.57,13.7,2.39,20.76a.15.15,0,0,1-.29-.05c1.4-14.37-5.26-26.53-14.48-37.11C502.9,385.14,503.28,384.82,503.51,385Z" style="fill:#263238"></path><path d="M453.55,426.74a.07.07,0,0,0,.1.09c3.41-3.5,9.23-3.51,14.75-2.69l0,0a.33.33,0,0,0,.24,0c3.38.51,6.64,1.33,9.15,1.82a.35.35,0,0,0,.23-.65,31.9,31.9,0,0,0-9.65-2.79,9.21,9.21,0,0,1-1.22-3.25,8.77,8.77,0,0,1,1.2-5.13c.05-.08-.07-.15-.13-.09a6.84,6.84,0,0,0-2.14,5.29,1.66,1.66,0,0,0,0,.22,6.92,6.92,0,0,1-1.33,1.86,9.78,9.78,0,0,1-1,.87C459.57,422.47,455.69,423.67,453.55,426.74Zm13.3-4.35c-.57,0-1.14-.06-1.71-.08.16-.19.31-.38.44-.56a4.56,4.56,0,0,0,.66-1.4A7.28,7.28,0,0,0,466.85,422.39Z" style="fill:#263238"></path><path d="M510.47,378.55c-.83-.72-1.62-1.47-2.49-2.15s-1.62-1.4-2.51-2a18.62,18.62,0,0,0-5.88-2.63c-4.41-1.06-9-.5-13.46-.06q-7.35.74-14.68,1.73c-2.41.33-4.82.69-7.23,1a32.4,32.4,0,0,1-7.16.41c-2.72-.21-13.6-1-16.35-.93a.2.2,0,0,0,0,.39c4.77.35,9.53,1,14.27,1.6a28,28,0,0,0,7,.12c2.37-.26,4.72-.64,7.08-.95,4.79-.64,9.6-1.18,14.42-1.67,4.46-.46,9.06-1.12,13.55-.62a18.3,18.3,0,0,1,6.91,2.13c1,.56,2.08,1.11,3,1.74s2.13,1.48,3.16,2.24C510.37,379.14,510.74,378.78,510.47,378.55Z" style="fill:#263238"></path><path d="M335.89,361.15l50.67-8s3-32,2.33-52.54-6.09-41.59-27.61-4.66C342.87,327.52,335.89,361.15,335.89,361.15Z" style="fill:#455a64"></path><path d="M362.94,339.28a16,16,0,0,1,.53,4.44,15.31,15.31,0,0,1-1.65-4.15,16,16,0,0,1-.53-4.44A16,16,0,0,1,362.94,339.28ZM379.54,321a16,16,0,0,0,4.44-.53,15.31,15.31,0,0,0,4.15-1.65,17.26,17.26,0,0,0-8.59,2.18Zm-34.4,21.45a15.47,15.47,0,0,0-2.77,3.51,15.67,15.67,0,0,0-1.78,4.1,15.41,15.41,0,0,0,2.77-3.51A15.67,15.67,0,0,0,345.14,342.44Zm43.18-50.19c-.3.43-.59.87-.86,1.32a15.53,15.53,0,0,0-1.78,4.1,15.41,15.41,0,0,0,2.77-3.51l.05-.09C388.45,293.46,388.39,292.85,388.32,292.25ZM386.72,342a15.65,15.65,0,0,0-4.1-1.77,15.76,15.76,0,0,0,3.51,2.77c.4.23.8.45,1.21.65,0-.39.06-.79.08-1.2C387.19,342.32,387,342.18,386.72,342ZM370.5,284.8c-.45-.26-.92-.52-1.39-.75-.21.26-.42.53-.62.81q.69.5,1.41.93a15.89,15.89,0,0,0,4.11,1.78A15.92,15.92,0,0,0,370.5,284.8Zm-4.11,28.45a16,16,0,0,0-3.51-2.77,15.65,15.65,0,0,0-4.1-1.77,15.76,15.76,0,0,0,3.51,2.77A16,16,0,0,0,366.39,313.25Z" style="fill:#263238"></path><path d="M390.68,312.63c0-.05-.08-.06-.08,0q-.69,4.36-1.27,8.75c0-.76,0-1.52,0-2.28,0-3.72-.13-7.44-.24-11.15,0,0-.06,0-.07,0-.35,6.21-.81,12.41-1.13,18.62s-.74,12.39-1.11,18.58c-.1,1.69-.2,3.38-.27,5.07,0,.45,0,.9,0,1.36a3.69,3.69,0,0,1,0,1.15c-.17.43-.83.45-1.19.56s-.9.27-1.35.41c-.11,0-.09.23,0,.21.71-.09,1.43-.17,2.14-.31a1.24,1.24,0,0,0,1.09-.76,8.55,8.55,0,0,0,.35-2c.11-.86.21-1.72.31-2.58.36-3.17.59-6.38.78-9.57.3-4.9.58-9.82.69-14.73A42.63,42.63,0,0,0,390.68,312.63Z" style="fill:#263238"></path><path d="M384.35,345.54c-5.79,0-11.55.82-17.31,1.43s-11.47,1.38-17.18,2.17c-3.28.46-6.53,1.09-9.8,1.59-.08,0-.07.16,0,.15,2.87-.28,5.76-.4,8.64-.7l8.55-.9c5.78-.61,11.54-1.34,17.3-2,3.29-.4,6.55-.85,9.79-1.54A.08.08,0,0,0,384.35,345.54Z" style="fill:#263238"></path><path d="M407.44,289.19c-7.14,1-18.09-10.85-22-20-.27-.62,1.25-6.78,2.73-14.36.88-4.6,1.76-9.74,2.22-14.49l29.09,10.11s-3.89,9.68-4.64,18a9.93,9.93,0,0,0,0,2c0,.09,0,.2,0,.32C415.12,274.51,414.35,288.24,407.44,289.19Z" style="fill:#ad6359"></path><path d="M414.86,270.43a2.92,2.92,0,0,1,0,.32,18.29,18.29,0,0,1-3.07-.14c-17.83-2.12-19.81-24.81-20-29.75l7.83,2.72,0,0,19.86,6.9s-3.89,9.67-4.65,18A12.87,12.87,0,0,0,414.86,270.43Z" style="fill:#263238"></path><path d="M384.27,207.56c-2,10.91,6.88,40.76,15.13,46.73,12,8.65,29.88,7.63,36.8-6.37,6.72-13.57-5.61-52.28-14.68-57.53C408.18,182.66,387.31,191.45,384.27,207.56Z" style="fill:#ad6359"></path><path d="M416.45,224.1c0-.07-.12.14-.1.22.66,2,1.07,4.39-.55,5.6-.05,0,0,.13.05.1C418,229.06,417.4,225.88,416.45,224.1Z" style="fill:#263238"></path><path d="M414,222.52c-3.31.71-1.66,7.28,1.41,6.63S416.81,221.93,414,222.52Z" style="fill:#263238"></path><path d="M427.91,220.74c0-.08.19.06.21.14.44,2.05,1.3,4.33,3.31,4.54.07,0,.09.11,0,.12C429.12,225.79,428,222.76,427.91,220.74Z" style="fill:#263238"></path><path d="M429.2,218.16c3.21-1.08,5.12,5.43,2.14,6.42S426.5,219.06,429.2,218.16Z" style="fill:#263238"></path><path d="M410.69,220.17a25.2,25.2,0,0,0,2.32-1.54c.88-.6,1.65-1,2.06-2a1.43,1.43,0,0,0-.64-1.62,3.55,3.55,0,0,0-3.57.52,5.25,5.25,0,0,0-2.36,2.92A1.53,1.53,0,0,0,410.69,220.17Z" style="fill:#263238"></path><path d="M430.9,214.21a25.78,25.78,0,0,1-2.78,0,4.52,4.52,0,0,1-2.83-.56,1.44,1.44,0,0,1-.35-1.72,3.56,3.56,0,0,1,3.27-1.51,5.22,5.22,0,0,1,3.58,1.16A1.53,1.53,0,0,1,430.9,214.21Z" style="fill:#263238"></path><path d="M418.36,242.82a3.19,3.19,0,0,0,2,.77,5.42,5.42,0,0,0,2.06-1.07.08.08,0,0,1,.12.09,2.82,2.82,0,0,1-2.31,1.75,2.22,2.22,0,0,1-2.05-1.4C418.13,242.85,418.27,242.77,418.36,242.82Z" style="fill:#263238"></path><path d="M419,236.19a7.19,7.19,0,0,0,5.41,1.92,8.84,8.84,0,0,0,2.52-.52,2.29,2.29,0,0,0,.46-.17l.43-.18a.52.52,0,0,0,.29-.56v0a1.59,1.59,0,0,0-.07-.2h0l0-.18c-.36-1.58-1.11-3.92-1.11-3.92.65.14,3.9.72,3.64-.09-2.11-6.68-4.46-14.1-8-20.3a.19.19,0,0,0-.36.14c1.78,6.5,4.68,12.64,6.57,19.14a12.58,12.58,0,0,0-3.52-.17c-.21.12,1.54,4.51,1.64,5.23a.17.17,0,0,1,0,.08c-2.54,1-4.73.7-7.73-.42C418.93,235.88,418.8,236.06,419,236.19Z" style="fill:#263238"></path><path d="M425.76,237a8.36,8.36,0,0,1-2.65,3.38,3.78,3.78,0,0,1-2.21.71c-1.73,0-2.15-1.5-2.17-2.85a9.22,9.22,0,0,1,.24-2.14A10.91,10.91,0,0,0,425.76,237Z" style="fill:#263238"></path><path d="M423.11,240.41a3.78,3.78,0,0,1-2.21.71c-1.73,0-2.15-1.5-2.17-2.85C420.52,238,422.54,238.76,423.11,240.41Z" style="fill:#ff98b9"></path><path d="M387.28,232.15c-1.29-2.55-14-30.3-13.91-33.62.13-3,3.52-2.48,3.54-2.65s-.41-2.83,1-4.14c1.27-1.16,3.55-.64,3.55-.64s-.05-2.88,1.55-4,3.56.06,3.56.06.05-2.79,2.13-3.86a3.08,3.08,0,0,1,3.63.61s.22-2.8,1.94-3.67S398,181,398,181s.53-2.61,2.73-3.08,3.55,1.78,3.55,1.78.85-2.6,2.92-3.07,3.3,2,3.3,2,.39-2.48,2.38-2.72,3,2.41,3,2.41.59-2.76,3-2.47c3.76.45,7.56,17.25,9.82,24.43,0,0-1.68-3.31-3.21-3.15s-2.18,2.78-4.85,4c-3.81,1.68-11.37-1.68-16.63.58s-7.95,8.59-8.21,17.35C395.5,228.9,390.35,238.21,387.28,232.15Z" style="fill:#263238"></path><path d="M415.06,235.2a9,9,0,1,1,7.1-12.28h0a9,9,0,0,1-5,11.71A9.37,9.37,0,0,1,415.06,235.2Zm-2.29-16.61a7.63,7.63,0,0,0-1.87.5,7.78,7.78,0,1,0,1.87-.5Z" style="fill:#219015"></path><path d="M435,229.93c-3.41.47-7-2.6-8.15-7.14a10.68,10.68,0,0,1,.26-6.55,5.6,5.6,0,0,1,9.28-2.4,10.66,10.66,0,0,1,3.41,5.6c1.24,4.8-.65,9.45-4.22,10.38Zm-3.18-16.44c-.15,0-.3,0-.45.09a4.79,4.79,0,0,0-3.14,3.1,9.51,9.51,0,0,0-.22,5.81c1.08,4.16,4.33,6.93,7.27,6.16s4.43-4.75,3.36-8.91a9.54,9.54,0,0,0-3-5A5,5,0,0,0,431.81,213.49Z" style="fill:#219015"></path><path d="M422.13,224l-1-.7c1-1.44,3.69-3.72,6.41-2l-.65,1C424.49,220.77,422.22,223.87,422.13,224Z" style="fill:#219015"></path><path d="M384,236.28l-1.17-.27c.12-.55,1.29-5.37,3.77-6.46,2.33-1,18.3-3.59,19-3.7l.19,1.18c-4.57.74-16.88,2.83-18.67,3.62S384.25,235,384,236.28Z" style="fill:#219015"></path><path d="M396.14,231.74s-8.16-8.93-12.3-5.9,2.89,16.61,8.38,17.88a5.37,5.37,0,0,0,6.76-3.8Z" style="fill:#ad6359"></path><path d="M386,229.68a.08.08,0,0,0,0,.15c3.87,1,6.24,4.16,8.06,7.51-1.27-1.22-2.85-1.77-4.51-.23-.08.08,0,.22.13.18a3.3,3.3,0,0,1,3.76.68,15.31,15.31,0,0,1,2.1,2.69c.22.3.79.05.61-.31a.2.2,0,0,0,0-.08C395.53,235.57,391,229.5,386,229.68Z" style="fill:#263238"></path></g><g id="freepik--character-2--inject-56"><path d="M308.89,357.72l28.79,8s4.83-53.83-10.9-77.89-24-15.59-23.2,14.1A442.31,442.31,0,0,0,308.89,357.72Z" style="fill:#219015"></path><g style="opacity:0.1"><path d="M352,342.57a7.09,7.09,0,0,0-6.28,2.06l.1.13a7.16,7.16,0,0,0,7.5,1.46C352.93,345.07,352.49,343.85,352,342.57Z"></path><path d="M341.44,341.37c-2.52-2.79-5.25-5.26-8-2.62a3.14,3.14,0,0,0-.11,4.87,6.5,6.5,0,0,0,1.82,1.15,1.17,1.17,0,0,0,.31.12l-.28.1a6.31,6.31,0,0,0-1.81,1.31,3.13,3.13,0,0,0,.31,4.85c2.86,2.52,5.49-.06,7.9-2.95s4.16-3.51,4.16-3.51S344,344.15,341.44,341.37Zm-19.07,3.77.11.13c5.16,4.54,10.6-.3,10.6-.3S327.33,340.38,322.37,345.14Z"></path><path d="M318.06,341.88c-2.51-2.79-5.24-5.26-8-2.62a3.14,3.14,0,0,0-.1,4.87,6.36,6.36,0,0,0,1.82,1.15,1.43,1.43,0,0,0,.31.12l-.29.1a6.46,6.46,0,0,0-1.81,1.31,3.13,3.13,0,0,0,.31,4.85c2.86,2.52,5.49-.06,7.91-3s4.15-3.51,4.15-3.51S320.62,344.66,318.06,341.88ZM306.91,344q.21,1.56.39,3a10.06,10.06,0,0,0,2.41-1.49A10.55,10.55,0,0,0,306.91,344Z"></path></g><path d="M332.22,361.28l1,35.23H218.35s21.55-92,53.86-119.06c17.66-14.8,31.38-8.46,40.73,1.33,2.31,2.44,27.15,42.63,28.22,57.11C342.08,348.66,332.22,361.28,332.22,361.28Z" style="fill:#219015"></path><path d="M339.05,325.37c-1.66-4.23-3.55-8.38-5.52-12.49-.23-.47-.47-.93-.7-1.4,0-.17,0-.33-.06-.49,0-.32-.11-.65-.17-1-.14-.73-.32-1.46-.52-2.18a30.76,30.76,0,0,0-1.49-4.16c-.08-.18-.37-.1-.31.1.48,1.39.9,2.8,1.28,4.22.17.62.32,1.25.48,1.87-1.81-3.57-3.74-7.06-5.85-10.47,0-.08-.15,0-.12.07,3.93,8,7.66,16,10.81,24.35,1.57,4.13,3.09,8.31,3.12,12.78a39.89,39.89,0,0,1-2.36,12.64,53,53,0,0,1-2.61,6.33c-.52,1.06-1.11,2.07-1.66,3.11a22.94,22.94,0,0,0-1.75,3.27c.59,8.88,1,17.76,1.27,26.66,0,1.24.08,2.48.12,3.72a18.41,18.41,0,0,0,.21,3.64c0,.17.3.15.35,0a14.5,14.5,0,0,0,.25-3.16c.06-1.12.11-2.23.14-3.35.06-2.24.07-4.47.06-6.71,0-4.42-.19-8.85-.41-13.27-.13-2.52-.28-5-.49-7.55a116.91,116.91,0,0,0,5.43-10.65,41.19,41.19,0,0,0,3-12.66C341.91,334,340.72,329.61,339.05,325.37Z" style="fill:#263238"></path><path d="M258.76,304.37c-12.29,53.43-.82,121.86,21,121.86,27.11,0,57.16-28.52,73.52-65.48,2.64-6-39.48-30.81-43.66-25.21-5.82,7.8-10.93,20.17-11.69,20.55-1.62.81-7.73-44.2-13.16-65.53C277.23,260.86,263.37,284.3,258.76,304.37Z" style="fill:#d3766a"></path><path d="M279.38,398.69a50.36,50.36,0,0,1,1.53-9.12,59.27,59.27,0,0,1,2.63-8.79,100.94,100.94,0,0,1,14.63-25.08c.08-.09.2,0,.13.1-.92,1.41-10.05,17-13.08,24.33-1.16,2.79-2.05,5.69-2.93,8.58q-.75,2.49-1.4,5c-.42,1.67-.73,3.37-1.19,5C279.65,398.9,279.37,398.88,279.38,398.69Z" style="fill:#263238"></path><path d="M307.47,338.67s8.14-18.19,14-29.83c3.28-6.5,9.91-17.14,14.5-20.81,6.88-5.49,39.13-24.06,43.8-16.33,4.23,7-7.63,11.49-7.63,11.49s12.5-6.13,14.56,2.09-13.94,12.65-13.94,12.65,12.82-7.43,14.19,1.56c1.18,7.8-16.72,14.81-16.72,14.81s12.6-9.27,14.6-1.4c2.2,8.71-23.32,22.6-23.32,22.6-3.55,16.7-9.16,28.88-14.9,36.55C345.28,373.87,307.47,338.67,307.47,338.67Z" style="fill:#d3766a"></path><path d="M376.88,296.14c-1.24.4-2.47.83-3.72,1.22A67.08,67.08,0,0,0,366,300c-2.25,1-4.45,2.16-6.62,3.35s-4.47,2.77-6.79,4a.14.14,0,1,0,.14.25,71.18,71.18,0,0,1,7-3.24c2.32-1,4.66-2,7-3s4.49-2.06,6.74-3.08c1.13-.51,2.27-1,3.42-1.43a20.62,20.62,0,0,0,3.24-1.38c.1-.06,0-.21-.08-.2A16.52,16.52,0,0,0,376.88,296.14Z" style="fill:#263238"></path><path d="M374.8,282c-2.19.27-11.13,3.6-13.37,4.58a70.26,70.26,0,0,0-12.35,6.93.14.14,0,0,0,.14.25c4.34-1.88,8.66-3.83,13-5.78,2.11-.95,11.83-5,12.79-5.52C375.21,282.29,375,281.93,374.8,282Z" style="fill:#263238"></path><path d="M379.19,309.42c-2.07.36-10.43,3.55-12.49,4.54a91,91,0,0,0-11.38,7.44c-.12.11,0,.33.14.25,4-2.18,7.88-4.42,12-6.42,2-1,10.11-4.38,11.92-5.47C379.49,309.66,379.37,309.39,379.19,309.42Z" style="fill:#263238"></path><path d="M297.87,353.77l-46.08,17s-.25-44.23,8.09-71.74c9.57-31.55,21.82-29.94,29.26-1.19A311.69,311.69,0,0,1,297.87,353.77Z" style="fill:#219015"></path><g style="opacity:0.1"><path d="M256.13,354.2a7.4,7.4,0,0,0-3.9-.57c-.07,1.54-.13,3-.19,4.39a7.11,7.11,0,0,0,4.23-3.73Z"></path><path d="M278.08,346.14c-6.37-2.63-9.94,3.72-9.94,3.72s6.93,2.48,10.07-3.64Zm-9.75,5.08a6.46,6.46,0,0,0-2.09-.5,1.9,1.9,0,0,0-.34,0,1.55,1.55,0,0,0,.24-.19,6.2,6.2,0,0,0,1.29-1.82,3.13,3.13,0,0,0-1.87-4.49c-3.52-1.46-5.17,1.84-6.52,5.36s-2.79,4.66-2.79,4.66,1.84-.06,5.15,1.75,6.67,3.26,8.41-.12A3.13,3.13,0,0,0,268.33,351.22Z"></path><path d="M296.39,337.47c-4.08.37-6.31,4.32-6.31,4.32a9.72,9.72,0,0,0,6.77-.27C296.71,340.25,296.56,338.9,296.39,337.47Zm-6.12,5.68a6.46,6.46,0,0,0-2.09-.5,1.79,1.79,0,0,0-.33,0l.24-.18a6.51,6.51,0,0,0,1.28-1.83,3.13,3.13,0,0,0-1.86-4.49c-3.53-1.46-5.18,1.84-6.53,5.36s-2.79,4.67-2.79,4.67,1.84-.06,5.16,1.74,6.67,3.27,8.41-.12A3.14,3.14,0,0,0,290.27,343.15Z"></path></g><path d="M252.37,360.81c.12-3.41.27-6.81.47-10.21.39-6.73,1-13.45,1.7-20.15.21-1.9.4-3.8.61-5.7s.49-3.7.65-5.56c0-.13-.2-.15-.23,0-.82,3.23-1.37,6.58-1.9,9.88-.27,1.65-.51,3.31-.73,5a34.85,34.85,0,0,1,.38-7.65c0-.16-.22-.22-.25-.06a28.66,28.66,0,0,0-.56,5.23,25.36,25.36,0,0,0,.28,3.69c-.17,1.31-.34,2.61-.49,3.92-.75,6.66-1.17,13.39-1.29,20.09,0,1.89,0,3.77,0,5.66a39.8,39.8,0,0,0,.21,5.78.43.43,0,0,0,.43.42,6.3,6.3,0,0,0,3.19-.8.09.09,0,0,0-.07-.16,7.5,7.5,0,0,1-2.67.17c.16-1.51.11-3.06.15-4.58S252.31,362.45,252.37,360.81Z" style="fill:#263238"></path><path d="M295.33,326.92c0-.81.07-1.62.09-2.43,0-1.19,0-2.37-.05-3.55,0-.07-.11-.06-.11,0-.06,1.19-.14,2.37-.15,3.55,0,.38,0,.75,0,1.13l-.06-.35c-.49-3-1-6-1.59-9,0-.12-.21-.09-.2,0,.51,4.92,1.18,9.81,1.65,14.73s2.92,22.57,2.88,22.65a2.74,2.74,0,0,1-.69.36c-.09,0-.06.24.05.2a7.68,7.68,0,0,0,1.33-.5C298.64,353.23,296.12,331.71,295.33,326.92Z" style="fill:#263238"></path><path d="M293.8,233.94c-6.5-1.13-22.85,4.2-28,13s-4.07,22.72-1.16,24,15.12-.36,23.33-5.38S297,234.5,293.8,233.94Z" style="fill:#263238"></path><path d="M293.82,234c.21-.06.22-.42,0-.41-5.64.11-11.59,2.28-16.89,4.06-4.27,1.44-8.65,3.12-12,6.23a15.15,15.15,0,0,0-5,11.65c.05,5,1,10.95,3.66,15.24.07.13.32.08.27-.09-3-9.27-5.8-20.63,3.24-27.44C274.73,237.44,284.83,236.35,293.82,234Z" style="fill:#263238"></path><path d="M265.45,268.43c-5.6,1-19.75,12.34-21.72,23.16s7.41,26.24,10.22,27.27,14.79-9.8,18.51-17.51c2.49-5.16.09-10.93-1.4-16.72C268.86,276.09,266.32,268.28,265.45,268.43Z" style="fill:#263238"></path><path d="M275.78,299.85c1.19-11-5.47-21.5-9.63-31.19a.1.1,0,0,0-.19.06c2.48,9.36,8.55,17.6,9.15,27.48.35,5.86-1.43,11.71-6.11,15.52-4.05,3.31-9.25,5-14,6.9-.32.13-.09.59.23.48C264.74,315.5,274.55,311.19,275.78,299.85Z" style="fill:#263238"></path><path d="M264.28,269.49c.28-.15.07-.59-.21-.44-7.84,4.15-17.23,10.11-21.15,18.4-4.25,9,.81,18,5.29,25.73.06.09.21,0,.16-.08-4.43-7.87-9.18-17.66-4.28-26.45C248.3,279.09,256.9,273.53,264.28,269.49Z" style="fill:#263238"></path><path d="M254.82,318.19c-8.41,3.72-19.23,9.83-19.48,18.27s6.39,22.58,7.3,22.79S260,354,265.23,345,255.91,317.7,254.82,318.19Z" style="fill:#263238"></path><path d="M243.16,360c-4.83-6.64-10.26-15.44-8.62-24.06,1.57-8.3,12-14,19-17.14a.07.07,0,1,0-.05-.14C246,321.32,235.91,327,234,335.33s3.3,19.09,9,24.91C243.06,360.37,243.26,360.18,243.16,360Z" style="fill:#263238"></path><path d="M242.71,358.41c-3.79,1.88-9.38,8.23-10.77,15.76-2.36,12.9-7.19,10.27-21.36,13.47-12,2.7-14.74,16-8.49,22.72,0,0-3.55-8.3,4.56-12.2,9.69-4.66,31.49,5.81,42.68-7.59C263.8,373.24,242.71,358.41,242.71,358.41Z" style="fill:#263238"></path><path d="M237.54,364.3c.16-.17-.13-.45-.3-.28a18.84,18.84,0,0,0-4,5.55c-1.26,2.72-1.36,5.68-2.42,8.45-2.68,7.05-11.24,6.66-17.45,7-8.33.45-15.11,5.42-15.77,14.17a.1.1,0,0,0,.2,0,14.81,14.81,0,0,1,9-12.42c4.89-2,10.36-.8,15.43-1.93,3.47-.78,6.93-2.19,8.59-5.53a29.07,29.07,0,0,0,1.64-5.89A20.74,20.74,0,0,1,237.54,364.3Z" style="fill:#263238"></path><path d="M244.87,360c-.07-.06-.19.06-.12.13,4.64,4.73,9.55,9.48,10.8,16.31,1.33,7.35-2.56,14.62-8.39,18.94-6.53,4.85-13.39,2.37-20.57.84-5.19-1.1-10.49-1.8-15.63-.11-.16.05-.07.31.09.28,8.26-1.77,15.75.8,23.81,2.24,6.59,1.18,11.82-1,16.16-6.09C260.58,381.4,255.05,368.38,244.87,360Z" style="fill:#263238"></path><path d="M288.6,228.26c-1.88-2.19-5.25.79-3.36,3S290.49,230.46,288.6,228.26Z" style="fill:#219015"></path><path d="M290.51,232c-1.89-2.19-5.25.79-3.36,3S292.4,234.18,290.51,232Z" style="fill:#219015"></path><path d="M293.06,235.35c-1.89-2.19-5.26.78-3.37,3S295,237.54,293.06,235.35Z" style="fill:#219015"></path><path d="M295.94,238.27c-1.89-2.19-5.25.78-3.36,3S297.83,240.46,295.94,238.27Z" style="fill:#219015"></path><path d="M299.36,240.7c-1.89-2.19-5.25.79-3.36,3S301.25,242.9,299.36,240.7Z" style="fill:#219015"></path><path d="M303,242.42c-1.89-2.19-5.25.78-3.36,3S304.91,244.61,303,242.42Z" style="fill:#219015"></path><path d="M272.21,277.45c1.43,1.3,24.19,17.56,35.26,16.41S321.29,282,321.29,282s-11.6-15-26.13-14.43A34.55,34.55,0,0,0,272.21,277.45Z" style="fill:#d3766a"></path><path d="M290,271.3c.19,2.05,7.87,16.27,17,17.12,3,.26,5.17-15.92,5.17-15.92l.44-1.16,6.08-16.22-17.9-15.36-2.61-2.07s-1.37,4.55-3,10.23c-.08.26-.16.52-.24.81s-.2.62-.28.92c-.26.84-.52,1.71-.76,2.57-.18.66-.37,1.3-.54,2s-.35,1.37-.54,2.07A112.6,112.6,0,0,0,290,271.3Z" style="fill:#d3766a"></path><path d="M295.16,247.92a34.73,34.73,0,0,0,17.45,23.42l6.08-16.22-17.9-15.36-2.61-2.07S296.81,242.24,295.16,247.92Z" style="fill:#263238"></path><path d="M343.2,223.62c6.56,29.68-10.47,37-16.87,38.37-5.81,1.28-25.76,4.89-35.35-24s2.13-41.27,15.26-44.9S336.64,194,343.2,223.62Z" style="fill:#d3766a"></path><path d="M337.51,218.77a20.82,20.82,0,0,1-2.09,0,3.44,3.44,0,0,1-2.14-.44A1.08,1.08,0,0,1,333,217a2.68,2.68,0,0,1,2.47-1.12,3.91,3.91,0,0,1,2.69.89A1.15,1.15,0,0,1,337.51,218.77Z" style="fill:#263238"></path><path d="M318.77,223.39a18.35,18.35,0,0,0,2.1-.11,3.41,3.41,0,0,0,2.12-.51,1.11,1.11,0,0,0,.2-1.31,2.67,2.67,0,0,0-2.51-1,3.94,3.94,0,0,0-2.66,1A1.15,1.15,0,0,0,318.77,223.39Z" style="fill:#263238"></path><path d="M335.05,227c0-.08.17.07.19.15.28,2.05,1,4.35,2.92,4.71.06,0,.07.12,0,.12C335.86,232,335,229,335.05,227Z" style="fill:#263238"></path><path d="M336.5,224.54c3.24-.82,4.63,5.71,1.63,6.47S333.79,225.22,336.5,224.54Z" style="fill:#263238"></path><path d="M338,224.68c.59.23,1.23.75,1.86.66s1.1-.92,1.41-1.7c0-.08.1,0,.12.05.3,1.24.16,2.63-1,3.13s-2.08-.45-2.64-1.63C337.62,225,337.72,224.58,338,224.68Z" style="fill:#263238"></path><path d="M326.39,246.4c.55.41,1.13,1,1.88,1a5.44,5.44,0,0,0,2.14-.82.07.07,0,0,1,.1.1,2.78,2.78,0,0,1-2.45,1.46,2.21,2.21,0,0,1-1.86-1.6C326.15,246.4,326.3,246.33,326.39,246.4Z" style="fill:#263238"></path><path d="M333.37,236.67s1.12,3.42,1.39,4.85c0,.14-4.91,1.35-8.06-1.33-.13-.11,0-.3.18-.24a10.42,10.42,0,0,0,6.54.74c0-.42-1.88-5.16-1.65-5.22a12.68,12.68,0,0,1,3.39.11c-1.91-6.21-4-10.09-5.77-16.3a.2.2,0,0,1,.36-.17c3.47,5.93,5,11,7.11,17.41C337.14,237.31,334,236.81,333.37,236.67Z" style="fill:#263238"></path><path d="M333.5,241.35a8.44,8.44,0,0,1-2.82,3.23,3.75,3.75,0,0,1-2.25.59c-1.73-.1-2.06-1.61-2-3a9.31,9.31,0,0,1,.35-2.12A11,11,0,0,0,333.5,241.35Z" style="fill:#263238"></path><path d="M330.68,244.58a3.75,3.75,0,0,1-2.25.59c-1.73-.1-2.06-1.61-2-3C328.21,242.05,330.19,242.9,330.68,244.58Z" style="fill:#ff98b9"></path><path d="M317.77,229a7,7,0,0,1,3.88-.47,5.48,5.48,0,0,1,2,.75,4.86,4.86,0,0,1,1.5,1.56l.67,1.13-1.33-.08a13.33,13.33,0,0,0-2.81.11,5.77,5.77,0,0,0-2.69,1.05,4.21,4.21,0,0,1,2.42-2.05,8,8,0,0,1,3.2-.49l-.66,1a4.74,4.74,0,0,0-2.54-1.89A14.85,14.85,0,0,0,317.77,229Z" style="fill:#263238"></path><path d="M321.75,234.08a12.31,12.31,0,0,0,2.82-1.19c.2-.14,1-.76.93-.92a5.72,5.72,0,0,0-.57-1.41,4,4,0,0,1,.87,1.35,2,2,0,0,1-1,1.36A6.08,6.08,0,0,1,321.75,234.08Z" style="fill:#263238"></path><path d="M290.56,236.94c6.55-2.89,6.9-10.59,6.9-10.59,24.79-6.09,22.16-26.13,22.16-26.13,9.53,10.65,20,11.58,20.15,11.63s.27-6.74-5.39-14.51a24.21,24.21,0,0,0-28.44-8.47c-7.42,2.66-12.39,10.67-12.39,10.67S282.7,204.87,280.6,214C277.15,229,290.56,236.94,290.56,236.94Z" style="fill:#263238"></path><path d="M296.2,239.28s-7.82-8.54-11.78-5.63,2.78,15.89,8,17.09a5.14,5.14,0,0,0,6.47-3.64Z" style="fill:#d3766a"></path><path d="M286.45,237.32a.07.07,0,0,0,0,.14c3.7,1,6,4,7.72,7.18-1.22-1.17-2.74-1.69-4.31-.22-.09.08,0,.21.12.18a3.14,3.14,0,0,1,3.59.64,14.86,14.86,0,0,1,2,2.57c.21.29.75.05.58-.3a.25.25,0,0,0,0-.07C295.62,243,291.32,237.14,286.45,237.32Z" style="fill:#263238"></path><path d="M330.07,216.36a1.24,1.24,0,1,1-1.41-1A1.25,1.25,0,0,1,330.07,216.36Z" style="fill:#774442"></path></g><g id="freepik--speech-bubble--inject-56"><path d="M547,134.75a22.23,22.23,0,0,1-3.81-12.3c0-15.59,17.11-28.22,38.21-28.22s38.2,12.63,38.2,28.22-17.1,28.23-38.2,28.23c-10.23,0-19.5-3-26.36-7.81l-13.16,3.34Z" style="fill:#219015"></path><path d="M595.16,122.45a4,4,0,1,0,4-4A4,4,0,0,0,595.16,122.45Z" style="fill:#263238"></path><path d="M577.46,122.45a4,4,0,1,0,4-4A4,4,0,0,0,577.46,122.45Z" style="fill:#263238"></path><path d="M559.75,122.45a4,4,0,1,0,4-4A4,4,0,0,0,559.75,122.45Z" style="fill:#263238"></path></g></svg>