<svg xmlns="http://www.w3.org/2000/svg" viewBox="0 0 500 500"><g id="freepik--background-complete--inject-3"><rect x="63.73" y="244.29" width="26.48" height="11.19" style="fill:#ebebeb"></rect><rect x="48.96" y="258.4" width="26.48" height="11.19" style="fill:#ebebeb"></rect><rect x="78.5" y="258.4" width="26.48" height="11.19" style="fill:#ebebeb"></rect><rect x="409.79" y="258.4" width="26.48" height="11.19" style="fill:#ebebeb"></rect><rect x="409.79" y="36.55" width="26.48" height="11.19" style="fill:#ebebeb"></rect><rect x="424.56" y="50.66" width="26.48" height="11.19" style="fill:#ebebeb"></rect><rect x="48.96" y="36.56" width="26.48" height="11.19" style="fill:#ebebeb"></rect><rect x="358.12" y="145.47" width="26.48" height="11.19" transform="translate(742.72 302.13) rotate(180)" style="fill:#ebebeb"></rect><rect x="372.89" y="131.36" width="26.48" height="11.19" transform="translate(772.27 273.91) rotate(180)" style="fill:#ebebeb"></rect><rect x="81.93" y="60.96" width="51.1" height="61.98" style="fill:#ebebeb"></rect><rect x="87.76" y="66.61" width="39.42" height="50.67" style="fill:#fff"></rect><rect x="87.76" y="66.61" width="1.54" height="50.67" style="fill:#dbdbdb"></rect><rect x="133.02" y="60.96" width="1.54" height="61.98" style="fill:#dbdbdb"></rect><rect x="100.97" y="73.6" width="9.29" height="27.69" style="fill:#dbdbdb"></rect><path d="M122.2,106.52H96.42V92H122.2Zm-24.78-1H121.2V93H97.42Z" style="fill:#ebebeb"></path><rect x="147.65" y="126.44" width="51.1" height="61.98" style="fill:#ebebeb"></rect><rect x="153.49" y="132.1" width="39.42" height="50.66" style="fill:#fff"></rect><rect x="153.49" y="132.1" width="1.54" height="50.66" style="fill:#dbdbdb"></rect><rect x="198.74" y="126.44" width="1.54" height="61.98" style="fill:#dbdbdb"></rect><rect x="169.38" y="145.2" width="7.96" height="20.13" style="fill:#ebebeb"></rect><path d="M186.23,171.81H163.84V156.93h22.39Zm-21.39-1h20.39V157.93H164.84Z" style="fill:#dbdbdb"></path><rect x="256.53" y="36.55" width="145.8" height="185.89" style="fill:#ebebeb"></rect><rect x="264.44" y="43.99" width="61.63" height="82.68" style="fill:#fff"></rect><rect x="332.8" y="43.99" width="61.63" height="82.68" style="fill:#fff"></rect><rect x="264.44" y="132.31" width="61.63" height="82.68" style="fill:#fff"></rect><rect x="332.8" y="132.31" width="61.63" height="82.68" style="fill:#fff"></rect><polygon points="346.08 36.55 402.33 36.55 402.33 302.5 369.77 302.5 392.5 167.17 346.08 36.55" style="fill:#dbdbdb"></polygon><polygon points="355.83 43.74 365.23 74.53 374.48 105.36 392.97 167.03 393 167.13 392.99 167.24 384.25 231.73 379.88 263.98 375.35 296.21 379.39 263.92 383.59 231.65 392.01 167.1 392.02 167.31 373.85 105.55 364.76 74.66 355.83 43.74" style="fill:#ebebeb"></polygon><polygon points="398.98 49.19 399.23 75.86 399.36 102.53 399.48 155.88 399.37 209.22 399.23 235.89 398.98 262.56 398.74 235.89 398.6 209.22 398.48 155.88 398.6 102.53 398.74 75.86 398.98 49.19" style="fill:#ebebeb"></polygon><polygon points="388.47 54.19 390.69 82.51 392.82 110.84 396.93 167.51 396.93 167.53 396.93 167.56 394.87 230.71 393.74 262.29 392.5 293.86 393.23 262.27 394.07 230.69 395.95 167.53 395.95 167.57 392.09 110.89 390.24 82.54 388.47 54.19" style="fill:#ebebeb"></polygon><path d="M381.15,289.77l3.14-30.65,3.24-30.64c2.25-20.42,4.42-40.84,6.75-61.25v.15l-10.16-47.7-5-23.87-4.94-23.89,5.36,23.8,5.28,23.81,10.41,47.65,0,.08v.07c-2.2,20.43-4.57,40.83-6.85,61.24l-3.56,30.61Z" style="fill:#ebebeb"></path><rect x="389.63" y="164.94" width="12.7" height="6.2" style="fill:#dbdbdb"></rect><polygon points="312.91 36.55 256.66 36.55 256.66 302.5 289.22 302.5 266.49 167.17 312.91 36.55" style="fill:#dbdbdb"></polygon><polygon points="303.16 43.74 294.23 74.66 285.14 105.55 266.97 167.31 266.99 167.1 275.4 231.65 279.6 263.92 283.64 296.21 279.11 263.98 274.74 231.73 266 167.24 265.99 167.13 266.02 167.03 284.51 105.36 293.76 74.53 303.16 43.74" style="fill:#ebebeb"></polygon><polygon points="260.01 49.19 260.25 75.86 260.39 102.53 260.51 155.88 260.39 209.22 260.25 235.89 260.01 262.56 259.77 235.89 259.63 209.22 259.51 155.88 259.63 102.53 259.77 75.86 260.01 49.19" style="fill:#ebebeb"></polygon><polygon points="270.52 54.19 268.76 82.54 266.9 110.89 263.04 167.57 263.04 167.53 264.92 230.69 265.76 262.27 266.49 293.86 265.25 262.29 264.12 230.71 262.06 167.56 262.06 167.53 262.06 167.51 266.17 110.84 268.3 82.51 270.52 54.19" style="fill:#ebebeb"></polygon><path d="M277.84,289.77l-3.66-30.59-3.55-30.61c-2.29-20.41-4.65-40.81-6.86-61.24v-.07l0-.08,10.42-47.65,5.28-23.81,5.35-23.8-4.94,23.89-5,23.87-10.17,47.7v-.15c2.32,20.41,4.49,40.83,6.74,61.25l3.24,30.64Z" style="fill:#ebebeb"></path><rect x="256.66" y="164.94" width="12.7" height="6.2" transform="translate(526.03 336.08) rotate(180)" style="fill:#dbdbdb"></rect></g><g id="freepik--Floor--inject-3"><polygon points="41.84 452.04 93.88 451.8 145.92 451.71 250 451.54 354.08 451.71 406.12 451.8 458.16 452.04 406.12 452.28 354.08 452.37 250 452.54 145.92 452.37 93.88 452.28 41.84 452.04" style="fill:#263238"></polygon></g><g id="freepik--Plant--inject-3"><rect x="434.72" width="1" height="175.57" style="fill:#dbdbdb"></rect><polygon points="458.11 176.68 435.21 131.06 411.79 175.8 410.9 175.34 435.23 128.87 459.01 176.23 458.11 176.68" style="fill:#dbdbdb"></polygon><path d="M437.27,130a2,2,0,1,1-2-2A2.05,2.05,0,0,1,437.27,130Z" style="fill:#a6a6a6"></path><polygon points="458.48 175.57 457.65 188.53 455.7 219.38 414.2 219.38 412.25 188.53 411.42 175.57 458.48 175.57" style="fill:#219015"></polygon><polygon points="458.48 175.57 457.65 188.53 412.25 188.53 411.42 175.57 458.48 175.57" style="opacity:0.1"></polygon><rect x="408.57" y="171.42" width="52.75" height="10.06" style="fill:#219015"></rect><path d="M400.1,178.78c-1.58-2.22,4.5-4.34,7.81-2.52C407.91,176.26,402.33,181.91,400.1,178.78Z" style="fill:#455a64"></path><path d="M407.76,176.41a14.42,14.42,0,0,1-2.92,1.31,10.59,10.59,0,0,1-3.15.6l3-1C405.71,177,406.71,176.66,407.76,176.41Z" style="fill:#263238"></path><path d="M399.72,193.43c-2.59-.86,1.06-6.16,4.8-6.64C404.52,186.79,403.36,194.64,399.72,193.43Z" style="fill:#455a64"></path><path d="M404.49,187a14.14,14.14,0,0,1-1.58,2.78,10.63,10.63,0,0,1-2.19,2.35l1.85-2.59C403.19,188.68,403.8,187.82,404.49,187Z" style="fill:#263238"></path><path d="M412.37,195.51c-.54,2.67-6.24-.33-7.16-4C405.21,191.53,413.14,191.75,412.37,195.51Z" style="fill:#455a64"></path><path d="M405.41,191.54a14.22,14.22,0,0,1,3,1.23,10.9,10.9,0,0,1,2.59,1.89l-2.79-1.52C407.24,192.63,406.31,192.12,405.41,191.54Z" style="fill:#263238"></path><path d="M416.77,205.24c-.54,2.67-6.24-.32-7.16-4C409.61,201.26,417.54,201.48,416.77,205.24Z" style="fill:#455a64"></path><path d="M409.81,201.27a14.22,14.22,0,0,1,3,1.23,10.48,10.48,0,0,1,2.59,1.9l-2.79-1.53C411.64,202.36,410.71,201.85,409.81,201.27Z" style="fill:#263238"></path><path d="M421.45,217.17c-.54,2.67-6.24-.33-7.16-4C414.29,213.18,422.22,213.41,421.45,217.17Z" style="fill:#455a64"></path><path d="M414.49,213.19a14.26,14.26,0,0,1,3,1.24,10.9,10.9,0,0,1,2.59,1.89l-2.79-1.52C416.32,214.28,415.39,213.78,414.49,213.19Z" style="fill:#263238"></path><path d="M416.84,230.88c-2.43,1.23-3.62-5.09-1.33-8.09C415.51,222.79,420.27,229.15,416.84,230.88Z" style="fill:#455a64"></path><path d="M415.63,223a14.34,14.34,0,0,1,.87,3.09,10.73,10.73,0,0,1,.13,3.2l-.54-3.13C415.92,225.07,415.73,224,415.63,223Z" style="fill:#263238"></path><path d="M399.8,230.57c-1.23-2.43,5.09-3.62,8.09-1.33C407.89,229.24,401.54,234,399.8,230.57Z" style="fill:#455a64"></path><path d="M407.72,229.36a14.41,14.41,0,0,1-3.08.87,10.47,10.47,0,0,1-3.21.12l3.14-.53C405.61,229.64,406.65,229.46,407.72,229.36Z" style="fill:#263238"></path><path d="M408.14,189.42c-2.3,1.45-4.07-4.74-2.05-7.93C406.09,181.49,411.4,187.38,408.14,189.42Z" style="fill:#455a64"></path><path d="M406.22,181.64a14.66,14.66,0,0,1,1.15,3,10.73,10.73,0,0,1,.41,3.18l-.82-3.07C406.69,183.72,406.42,182.7,406.22,181.64Z" style="fill:#263238"></path><path d="M411.51,182.18c-2.31,1.45-4.07-4.74-2.05-7.93C409.46,174.25,414.76,180.14,411.51,182.18Z" style="fill:#455a64"></path><path d="M409.59,174.4a14.07,14.07,0,0,1,1.14,3,10.76,10.76,0,0,1,.42,3.19l-.82-3.08C410.06,176.48,409.79,175.46,409.59,174.4Z" style="fill:#263238"></path><path d="M414.34,177.55c-2.4.69-2.39-5.21.19-7.52C414.53,170,417.72,176.57,414.34,177.55Z" style="fill:#455a64"></path><path d="M414.61,170.2a13.14,13.14,0,0,1,.25,2.93,9.3,9.3,0,0,1-.44,2.91l.06-2.91C414.5,172.16,414.51,171.19,414.61,170.2Z" style="fill:#263238"></path><path d="M403.8,168.49c.26-2.71,6.25-.34,7.55,3.2C411.35,171.69,403.44,172.31,403.8,168.49Z" style="fill:#455a64"></path><path d="M411.14,171.71a14.88,14.88,0,0,1-3.07-.92,10.67,10.67,0,0,1-2.77-1.61l2.93,1.22C409.21,170.81,410.19,171.22,411.14,171.71Z" style="fill:#263238"></path><path d="M406,203.68c-2.63.73-2.56-5.71.28-8.19C406.32,195.49,409.74,202.65,406,203.68Z" style="fill:#455a64"></path><path d="M406.41,195.67a14.34,14.34,0,0,1,.24,3.2,10.35,10.35,0,0,1-.5,3.17l.09-3.18C406.27,197.8,406.3,196.74,406.41,195.67Z" style="fill:#263238"></path><path d="M411.05,214.32c-2.62.73-2.55-5.71.29-8.19C411.34,206.13,414.75,213.29,411.05,214.32Z" style="fill:#455a64"></path><path d="M411.42,206.31a14.35,14.35,0,0,1,.25,3.2,10.72,10.72,0,0,1-.51,3.17l.09-3.18C411.28,208.44,411.31,207.38,411.42,206.31Z" style="fill:#263238"></path><path d="M410.6,223.65c-2.64-.68.64-6.22,4.34-7C414.94,216.69,414.32,224.6,410.6,223.65Z" style="fill:#455a64"></path><path d="M414.92,216.9a14.74,14.74,0,0,1-1.38,2.89,10.76,10.76,0,0,1-2,2.49l1.66-2.71C413.74,218.67,414.29,217.77,414.92,216.9Z" style="fill:#263238"></path><path d="M403.77,225.4c.22-2.71,6.24-.44,7.6,3.08C411.37,228.48,403.48,229.23,403.77,225.4Z" style="fill:#455a64"></path><path d="M411.17,228.49a14.91,14.91,0,0,1-3.09-.86,10.68,10.68,0,0,1-2.8-1.56l3,1.17C409.22,227.63,410.2,228,411.17,228.49Z" style="fill:#263238"></path><path d="M412.94,164.41c1.51-2.27,5.66,2.65,5.14,6.39C418.08,170.8,410.82,167.61,412.94,164.41Z" style="fill:#455a64"></path><path d="M417.89,170.71a14.27,14.27,0,0,1-2.27-2.26,10.77,10.77,0,0,1-1.69-2.72l2,2.46C416.61,169,417.28,169.83,417.89,170.71Z" style="fill:#263238"></path><path d="M419.14,171.42a9.41,9.41,0,0,0-4.53-1.25,3.52,3.52,0,0,0-2.13.8c-.32.22-.6.5-.9.75l-.81.86a22.67,22.67,0,0,0-2.68,3.9,25.41,25.41,0,0,0-1.93,4.33,16.85,16.85,0,0,0-.89,9.18,60,60,0,0,0,3.42,8.88c1.29,2.92,2.64,5.83,3.89,8.79a36.54,36.54,0,0,1,2.87,9.25,21.43,21.43,0,0,1,.16,4.87,10.13,10.13,0,0,1-1.47,4.67,6.33,6.33,0,0,1-4,2.63,13.39,13.39,0,0,1-4.81-.11,14,14,0,0,0,4.75-.15,5.93,5.93,0,0,0,3.69-2.64,9.66,9.66,0,0,0,1.25-4.45,20.06,20.06,0,0,0-.3-4.7,38.46,38.46,0,0,0-2.94-9c-1.27-2.93-2.65-5.82-4-8.74a61.59,61.59,0,0,1-3.38-9.07,16.93,16.93,0,0,1,1.05-9.66,26.72,26.72,0,0,1,2.1-4.38,22.93,22.93,0,0,1,2.87-3.92l.88-.85c.33-.24.63-.52,1-.74a3.84,3.84,0,0,1,2.33-.75A9.13,9.13,0,0,1,419.14,171.42Z" style="fill:#455a64"></path><path d="M441.71,163.45c2.07-1.77,4.73,4.09,3.21,7.54C444.92,171,438.8,166,441.71,163.45Z" style="fill:#455a64"></path><path d="M444.77,170.86a15.06,15.06,0,0,1-1.58-2.79,11,11,0,0,1-.88-3.09l1.27,2.92C444,168.87,444.42,169.84,444.77,170.86Z" style="fill:#263238"></path><path d="M430.42,166.67c.33-2.7,6.25-.18,7.46,3.4C437.88,170.07,430,170.48,430.42,166.67Z" style="fill:#455a64"></path><path d="M437.68,170.08a14.72,14.72,0,0,1-3.05-1,10.52,10.52,0,0,1-2.73-1.68l2.9,1.3C435.76,169.13,436.73,169.56,437.68,170.08Z" style="fill:#263238"></path><path d="M422.09,178.29c-1.55-2.25,4.56-4.27,7.84-2.4C429.93,175.89,424.26,181.45,422.09,178.29Z" style="fill:#455a64"></path><path d="M429.78,176a15.27,15.27,0,0,1-2.94,1.27,10.58,10.58,0,0,1-3.16.54l3-.94C427.72,176.6,428.73,176.28,429.78,176Z" style="fill:#263238"></path><path d="M420,192.27c-2.42-1.26,2-5.91,5.81-5.78C425.79,186.49,423.38,194.05,420,192.27Z" style="fill:#455a64"></path><path d="M425.72,186.68a13.86,13.86,0,0,1-2,2.5,10.32,10.32,0,0,1-2.53,2l2.24-2.26C424.17,188.14,424.91,187.39,425.72,186.68Z" style="fill:#263238"></path><path d="M421.37,204.68c-2.7-.38-.06-6.26,3.53-7.4C424.9,197.28,425.17,205.21,421.37,204.68Z" style="fill:#455a64"></path><path d="M424.91,197.48a14.49,14.49,0,0,1-1.05,3,10.8,10.8,0,0,1-1.73,2.7l1.35-2.88C423.93,199.38,424.38,198.42,424.91,197.48Z" style="fill:#263238"></path><path d="M425.63,212.61c-2.63.72-2.53-5.72.32-8.19C426,204.42,429.33,211.6,425.63,212.61Z" style="fill:#455a64"></path><path d="M426,204.6a14.33,14.33,0,0,1,.23,3.2,10.56,10.56,0,0,1-.52,3.16l.1-3.17C425.89,206.73,425.92,205.67,426,204.6Z" style="fill:#263238"></path><path d="M437,219.35c-1.5,2.27-5.66-2.64-5.15-6.37C431.81,213,439.08,216.15,437,219.35Z" style="fill:#455a64"></path><path d="M432,213.06a15.16,15.16,0,0,1,2.28,2.25A10.66,10.66,0,0,1,436,218l-2-2.46C433.29,214.76,432.61,213.94,432,213.06Z" style="fill:#263238"></path><path d="M437.45,176.9c-2.66-.57.39-6.24,4.06-7.12C441.51,169.78,441.2,177.71,437.45,176.9Z" style="fill:#455a64"></path><path d="M441.5,170a14.43,14.43,0,0,1-1.27,2.94,10.52,10.52,0,0,1-1.92,2.57l1.56-2.77C440.39,171.81,440.9,170.88,441.5,170Z" style="fill:#263238"></path><path d="M433.85,181.09c-2.54,1-3.11-5.42-.53-8.18C433.32,172.91,437.43,179.7,433.85,181.09Z" style="fill:#455a64"></path><path d="M433.42,173.09a14.16,14.16,0,0,1,.56,3.16,10.44,10.44,0,0,1-.19,3.2l-.22-3.18C433.5,175.22,433.42,174.17,433.42,173.09Z" style="fill:#263238"></path><path d="M429.73,188.82c-2.23,1.56-4.31-4.53-2.46-7.82C427.27,181,432.87,186.62,429.73,188.82Z" style="fill:#455a64"></path><path d="M427.41,181.15a14.22,14.22,0,0,1,1.3,2.93,10.63,10.63,0,0,1,.58,3.16l-1-3C428,183.2,427.66,182.19,427.41,181.15Z" style="fill:#263238"></path><path d="M430.41,197.43c-1.39,2.34-5.78-2.37-5.44-6.13C425,191.3,432.38,194.14,430.41,197.43Z" style="fill:#455a64"></path><path d="M425.16,191.38a15.15,15.15,0,0,1,2.38,2.14,10.76,10.76,0,0,1,1.82,2.65l-2.13-2.37C426.52,193,425.81,192.23,425.16,191.38Z" style="fill:#263238"></path><path d="M432.26,205c-.76,2.61-6.2-.83-6.83-4.55C425.43,200.4,433.32,201.26,432.26,205Z" style="fill:#455a64"></path><path d="M425.64,200.43a14.5,14.5,0,0,1,2.85,1.47,10.5,10.5,0,0,1,2.42,2.09l-2.65-1.74C427.37,201.66,426.49,201.09,425.64,200.43Z" style="fill:#263238"></path><path d="M435.94,210.26c.35,2.7-6,1.71-8.06-1.46C427.88,208.8,435.45,206.45,435.94,210.26Z" style="fill:#455a64"></path><path d="M428.07,208.75a14.24,14.24,0,0,1,3.2.21,10.29,10.29,0,0,1,3.06,1l-3.13-.55C430.16,209.19,429.12,209,428.07,208.75Z" style="fill:#263238"></path><path d="M444,208.57c2.33,1.41-2.4,5.78-6.16,5.42C437.8,214,440.67,206.59,444,208.57Z" style="fill:#455a64"></path><path d="M437.88,213.8a13.53,13.53,0,0,1,2.16-2.37,10.46,10.46,0,0,1,2.65-1.81l-2.37,2.12C439.52,212.44,438.74,213.14,437.88,213.8Z" style="fill:#263238"></path><path d="M445.68,171.66a8.79,8.79,0,0,0-3.92-1.65,7.88,7.88,0,0,0-4.16.51,15.79,15.79,0,0,0-6.77,5,22.69,22.69,0,0,0-3.77,7.55,38.61,38.61,0,0,0-1.35,8.43,44.49,44.49,0,0,0,.17,8.56,26.48,26.48,0,0,0,2.26,8.17,12.58,12.58,0,0,0,2.4,3.44,7,7,0,0,0,3.62,1.93,10.17,10.17,0,0,0,4.22,0,7.72,7.72,0,0,0,3.77-1.94,7.48,7.48,0,0,1-3.7,2.21,10.43,10.43,0,0,1-4.38.18,7.47,7.47,0,0,1-4-2,13,13,0,0,1-2.65-3.55,25.1,25.1,0,0,1-2.47-8.4,45.61,45.61,0,0,1-.27-8.74,40.29,40.29,0,0,1,1.48-8.63,22,22,0,0,1,4.05-7.78,16.35,16.35,0,0,1,7.2-4.93A8.34,8.34,0,0,1,445.68,171.66Z" style="fill:#455a64"></path><path d="M452.12,179c-2.05,2.31-5.94-3.87-4.76-8C447.36,171,455,175.74,452.12,179Z" style="fill:#455a64"></path><path d="M447.55,171.13a16.29,16.29,0,0,1,2.2,2.9,11.93,11.93,0,0,1,1.46,3.33l-1.87-3.09C448.73,173.24,448.1,172.22,447.55,171.13Z" style="fill:#263238"></path><path d="M456.2,180.15c-2.85,1.19-3.67-6.07-.82-9.27C455.38,170.88,460.22,178.47,456.2,180.15Z" style="fill:#455a64"></path><path d="M455.5,171.08a16.18,16.18,0,0,1,.72,3.56,12,12,0,0,1-.12,3.64l-.35-3.59C455.64,173.49,455.52,172.3,455.5,171.08Z" style="fill:#263238"></path><path d="M455.45,188.27c-3-.84.9-7,5.11-7.77C460.56,180.5,459.64,189.45,455.45,188.27Z" style="fill:#455a64"></path><path d="M460.54,180.73a16.74,16.74,0,0,1-1.65,3.24,12.25,12.25,0,0,1-2.36,2.77l2-3C459.15,182.71,459.8,181.7,460.54,180.73Z" style="fill:#263238"></path><path d="M451.5,198.5c-2.34-2,3.78-6,7.91-4.89C459.41,193.61,454.8,201.34,451.5,198.5Z" style="fill:#455a64"></path><path d="M459.29,193.8a16.29,16.29,0,0,1-2.86,2.25,12.1,12.1,0,0,1-3.31,1.51l3.05-1.91C457.19,195,458.21,194.37,459.29,193.8Z" style="fill:#263238"></path><path d="M446.85,209.33c-2.34-2,3.77-6,7.91-4.89C454.76,204.44,450.15,212.17,446.85,209.33Z" style="fill:#455a64"></path><path d="M454.64,204.64a16.77,16.77,0,0,1-2.86,2.25,12.1,12.1,0,0,1-3.31,1.51l3-1.92C452.54,205.85,453.56,205.21,454.64,204.64Z" style="fill:#263238"></path><path d="M441.73,220.71c-2.34-2,3.78-6,7.91-4.89C449.64,215.82,445,223.55,441.73,220.71Z" style="fill:#455a64"></path><path d="M449.52,216a16.71,16.71,0,0,1-2.86,2.24,12.13,12.13,0,0,1-3.31,1.52l3-1.92C447.42,217.22,448.44,216.58,449.52,216Z" style="fill:#263238"></path><path d="M439.29,234.92c-2.84-1.22,1.82-6.85,6.1-7C445.39,227.9,443.28,236.65,439.29,234.92Z" style="fill:#455a64"></path><path d="M445.33,228.13a16.11,16.11,0,0,1-2.07,3,12,12,0,0,1-2.7,2.43l2.34-2.74C443.69,229.9,444.47,229,445.33,228.13Z" style="fill:#263238"></path><path d="M449.19,246c-2.52,1.79-4.91-5.11-2.83-8.85C446.36,237.12,452.75,243.46,449.19,246Z" style="fill:#455a64"></path><path d="M446.52,237.28A16.46,16.46,0,0,1,448,240.6a12.07,12.07,0,0,1,.67,3.58l-1.12-3.43C447.19,239.61,446.81,238.47,446.52,237.28Z" style="fill:#263238"></path><path d="M457.51,164.85c2.47,1.85-3.36,6.24-7.56,5.41C450,170.26,454,162.24,457.51,164.85Z" style="fill:#455a64"></path><path d="M450.06,170.06a16.35,16.35,0,0,1,2.7-2.43,11.84,11.84,0,0,1,3.2-1.74L453,168C452.07,168.71,451.1,169.42,450.06,170.06Z" style="fill:#263238"></path><path d="M466.42,179.34c-.9,2.95-7-1-7.66-5.27C458.76,174.07,467.69,175.17,466.42,179.34Z" style="fill:#455a64"></path><path d="M459,174.1a16.74,16.74,0,0,1,3.21,1.71,12.53,12.53,0,0,1,2.72,2.42l-3-2C460.94,175.53,459.94,174.86,459,174.1Z" style="fill:#263238"></path><path d="M464.85,195.18c-2.15,2.21-5.76-4.14-4.39-8.2C460.46,187,467.89,192.06,464.85,195.18Z" style="fill:#455a64"></path><path d="M460.65,187.11a17,17,0,0,1,2.06,3A12,12,0,0,1,464,193.5l-1.73-3.17C461.72,189.28,461.15,188.23,460.65,187.11Z" style="fill:#263238"></path><path d="M459.27,208.51c-2.74,1.43-4.18-5.73-1.61-9.16C457.66,199.35,463.13,206.49,459.27,208.51Z" style="fill:#455a64"></path><path d="M457.8,199.54a16.25,16.25,0,0,1,1,3.49,12.27,12.27,0,0,1,.19,3.63l-.66-3.55C458.14,201.93,457.92,200.75,457.8,199.54Z" style="fill:#263238"></path><path d="M454.08,219.56c-2.74,1.43-4.18-5.73-1.62-9.16C452.46,210.4,457.94,217.55,454.08,219.56Z" style="fill:#455a64"></path><path d="M452.6,210.59a16.45,16.45,0,0,1,1,3.49,12.28,12.28,0,0,1,.18,3.63l-.65-3.55C453,213,452.73,211.8,452.6,210.59Z" style="fill:#263238"></path><path d="M450.68,229.69c-2.51,1.82-5-5.06-2.93-8.82C447.75,220.87,454.21,227.14,450.68,229.69Z" style="fill:#455a64"></path><path d="M447.92,221a17,17,0,0,1,1.52,3.3,12.11,12.11,0,0,1,.71,3.57L449,224.49C448.61,223.35,448.22,222.21,447.92,221Z" style="fill:#263238"></path><path d="M453.35,237.89c-.68,3-7.08-.52-8-4.69C445.31,233.2,454.3,233.64,453.35,237.89Z" style="fill:#455a64"></path><path d="M445.54,233.22a16,16,0,0,1,3.33,1.47,12.15,12.15,0,0,1,2.89,2.2l-3.13-1.79C447.6,234.5,446.55,233.9,445.54,233.22Z" style="fill:#263238"></path><path d="M462.51,235.29c2.35,2-3.76,6-7.9,4.91C454.61,240.2,459.2,232.46,462.51,235.29Z" style="fill:#455a64"></path><path d="M454.73,240a16.35,16.35,0,0,1,2.86-2.26,11.78,11.78,0,0,1,3.3-1.52l-3.05,1.92C456.82,238.79,455.81,239.44,454.73,240Z" style="fill:#263238"></path><path d="M445.8,172.38a11.13,11.13,0,0,1,5.55-2.56,7.2,7.2,0,0,1,5.85,1.8,11.21,11.21,0,0,1,3,5.46,26.37,26.37,0,0,1,.79,6.18,40.19,40.19,0,0,1-1.74,12.27,106.22,106.22,0,0,1-4.9,11.36c-1.78,3.7-3.57,7.38-5.14,11.16a49.49,49.49,0,0,0-3.54,11.64,12.54,12.54,0,0,0,.41,5.91,7.08,7.08,0,0,0,3.94,4.19,8.47,8.47,0,0,0,5.89,0,11.1,11.1,0,0,0,5-3.44A10.84,10.84,0,0,1,456,240a8.91,8.91,0,0,1-6.15.23,7,7,0,0,1-2.65-1.74,8.69,8.69,0,0,1-1.71-2.68,13.25,13.25,0,0,1-.58-6.24,47,47,0,0,1,3.46-11.89c1.56-3.82,3.32-7.53,5.08-11.24a101.61,101.61,0,0,0,4.93-11.2,41.68,41.68,0,0,0,1.85-12,25.87,25.87,0,0,0-.63-6,10.74,10.74,0,0,0-2.7-5.27,6.83,6.83,0,0,0-5.49-1.9A11.51,11.51,0,0,0,445.8,172.38Z" style="fill:#455a64"></path><polygon points="454.59 69.87 435.21 29.89 415.31 69.12 414.42 68.67 435.23 27.64 455.49 69.43 454.59 69.87" style="fill:#dbdbdb"></polygon><path d="M437.27,28.77a2,2,0,1,1-2-2.05A2.05,2.05,0,0,1,437.27,28.77Z" style="fill:#a6a6a6"></path><polygon points="454.97 68.9 454.27 79.93 452.61 106.18 417.29 106.18 415.63 79.93 414.92 68.9 454.97 68.9" style="fill:#219015"></polygon><polygon points="454.97 68.9 454.27 79.93 415.63 79.93 414.92 68.9 454.97 68.9" style="opacity:0.1"></polygon><rect x="412.5" y="65.37" width="44.89" height="8.56" style="fill:#219015"></rect><path d="M461.32,71.4c1.31-1.83-3.71-3.58-6.44-2.07C454.88,69.33,459.49,74,461.32,71.4Z" style="fill:#455a64"></path><path d="M455,69.44a11.43,11.43,0,0,0,2.42,1.09,8.81,8.81,0,0,0,2.6.5l-2.5-.83C456.69,69.93,455.87,69.66,455,69.44Z" style="fill:#263238"></path><path d="M461.64,83.5c2.14-.71-.88-5.09-4-5.48C457.67,78,458.64,84.5,461.64,83.5Z" style="fill:#455a64"></path><path d="M457.7,78.19a11.88,11.88,0,0,0,1.31,2.3,9,9,0,0,0,1.8,1.94l-1.52-2.14C458.78,79.58,458.27,78.87,457.7,78.19Z" style="fill:#263238"></path><path d="M451.2,85.22c.44,2.2,5.15-.27,5.91-3.29C457.11,81.93,450.56,82.11,451.2,85.22Z" style="fill:#455a64"></path><path d="M456.94,81.93a12.46,12.46,0,0,0-2.44,1,8.87,8.87,0,0,0-2.14,1.57l2.31-1.26C455.43,82.84,456.2,82.42,456.94,81.93Z" style="fill:#263238"></path><path d="M447.56,93.25c.45,2.2,5.16-.27,5.92-3.29C453.48,90,446.93,90.14,447.56,93.25Z" style="fill:#455a64"></path><path d="M453.31,90a11.65,11.65,0,0,0-2.44,1,8.64,8.64,0,0,0-2.14,1.56l2.3-1.26C451.8,90.87,452.56,90.45,453.31,90Z" style="fill:#263238"></path><path d="M443.7,103.1c.45,2.2,5.15-.27,5.92-3.29C449.62,99.81,443.07,100,443.7,103.1Z" style="fill:#455a64"></path><path d="M449.45,99.81a12.54,12.54,0,0,0-2.45,1,8.82,8.82,0,0,0-2.13,1.57l2.3-1.26C447.93,100.72,448.7,100.3,449.45,99.81Z" style="fill:#263238"></path><path d="M447.5,114.42c2,1,3-4.21,1.1-6.68C448.6,107.74,444.68,113,447.5,114.42Z" style="fill:#455a64"></path><path d="M448.5,107.88a12.56,12.56,0,0,0-.72,2.55,9,9,0,0,0-.1,2.64l.45-2.59C448.27,109.62,448.42,108.76,448.5,107.88Z" style="fill:#263238"></path><path d="M461.57,114.16c1-2-4.2-3-6.67-1.1C454.9,113.06,460.14,117,461.57,114.16Z" style="fill:#455a64"></path><path d="M455,113.16a12,12,0,0,0,2.55.72,8.71,8.71,0,0,0,2.65.1l-2.59-.44C456.78,113.4,455.92,113.25,455,113.16Z" style="fill:#263238"></path><path d="M454.69,80.19c1.9,1.19,3.36-3.92,1.69-6.55C456.38,73.64,452,78.51,454.69,80.19Z" style="fill:#455a64"></path><path d="M456.27,73.77a11.54,11.54,0,0,0-.94,2.47,8.58,8.58,0,0,0-.34,2.62l.67-2.53C455.88,75.48,456.11,74.64,456.27,73.77Z" style="fill:#263238"></path><path d="M451.91,74.21c1.9,1.2,3.36-3.92,1.69-6.55C453.6,67.66,449.22,72.53,451.91,74.21Z" style="fill:#455a64"></path><path d="M453.49,67.79a11.54,11.54,0,0,0-.94,2.47,8.64,8.64,0,0,0-.34,2.63l.67-2.54C453.1,69.5,453.33,68.66,453.49,67.79Z" style="fill:#263238"></path><path d="M449.57,70.39c2,.57,2-4.3-.15-6.21C449.42,64.18,446.78,69.58,449.57,70.39Z" style="fill:#455a64"></path><path d="M449.35,64.32a11,11,0,0,0-.21,2.42,8.12,8.12,0,0,0,.36,2.4l0-2.4C449.44,65.94,449.43,65.13,449.35,64.32Z" style="fill:#263238"></path><path d="M458.27,62.91c-.22-2.24-5.16-.28-6.23,2.64C452,65.55,458.57,66.06,458.27,62.91Z" style="fill:#455a64"></path><path d="M452.21,65.56a11.53,11.53,0,0,0,2.53-.75A8.73,8.73,0,0,0,457,63.48l-2.42,1C453.81,64.83,453,65.16,452.21,65.56Z" style="fill:#263238"></path><path d="M456.42,92c2.17.6,2.11-4.71-.23-6.76C456.19,85.2,453.37,91.11,456.42,92Z" style="fill:#455a64"></path><path d="M456.12,85.35a11.71,11.71,0,0,0-.2,2.64,8.89,8.89,0,0,0,.41,2.61L456.26,88C456.23,87.11,456.21,86.23,456.12,85.35Z" style="fill:#263238"></path><path d="M452.28,100.74c2.17.61,2.11-4.71-.23-6.76C452.05,94,449.23,99.89,452.28,100.74Z" style="fill:#455a64"></path><path d="M452,94.14a11.62,11.62,0,0,0-.2,2.63,8.65,8.65,0,0,0,.42,2.62l-.08-2.63C452.09,95.89,452.07,95,452,94.14Z" style="fill:#263238"></path><path d="M452.66,108.45c2.17-.56-.53-5.14-3.58-5.75C449.08,102.7,449.59,109.23,452.66,108.45Z" style="fill:#455a64"></path><path d="M449.09,102.87a12.2,12.2,0,0,0,1.14,2.39,8.73,8.73,0,0,0,1.67,2.06l-1.37-2.24C450.07,104.34,449.61,103.59,449.09,102.87Z" style="fill:#263238"></path><path d="M458.29,109.89c-.17-2.24-5.15-.36-6.27,2.54C452,112.43,458.54,113.05,458.29,109.89Z" style="fill:#455a64"></path><path d="M452.19,112.45a12,12,0,0,0,2.55-.72,8.76,8.76,0,0,0,2.31-1.29l-2.44,1C453.8,111.74,453,112.06,452.19,112.45Z" style="fill:#263238"></path><path d="M450.73,59.54c-1.25-1.87-4.68,2.19-4.25,5.27C446.48,64.81,452.48,62.18,450.73,59.54Z" style="fill:#455a64"></path><path d="M446.64,64.74a11.75,11.75,0,0,0,1.87-1.86,8.74,8.74,0,0,0,1.4-2.25l-1.66,2C447.7,63.34,447.14,64,446.64,64.74Z" style="fill:#263238"></path><path d="M445.6,65.33a7.45,7.45,0,0,1,3.76-1.27,3.24,3.24,0,0,1,1.94.61,9.65,9.65,0,0,1,.81.62l.74.69a18.89,18.89,0,0,1,2.38,3.24A22,22,0,0,1,457,72.84a14,14,0,0,1,.88,8,50.2,50.2,0,0,1-2.79,7.5c-1.09,2.42-2.23,4.8-3.28,7.22a32,32,0,0,0-2.44,7.41,16.77,16.77,0,0,0-.25,3.87,7.8,7.8,0,0,0,1,3.65,4.85,4.85,0,0,0,3,2.19,11.91,11.91,0,0,0,3.91.14,10.81,10.81,0,0,1-4,.11,5.21,5.21,0,0,1-3.37-2.17,8.4,8.4,0,0,1-1.23-3.87,17.51,17.51,0,0,1,.12-4A29.62,29.62,0,0,1,451,95.22c1-2.45,2.15-4.85,3.21-7.27A50.08,50.08,0,0,0,457,80.64a13.88,13.88,0,0,0-.72-7.54,21.37,21.37,0,0,0-3.77-6.79l-.67-.71c-.24-.2-.47-.44-.73-.62a2.93,2.93,0,0,0-1.74-.66A7.87,7.87,0,0,0,445.6,65.33Z" style="fill:#455a64"></path><path d="M437.94,60.82c-.9-2.07-5,1.32-5.11,4.44C432.83,65.26,439.2,63.72,437.94,60.82Z" style="fill:#455a64"></path><path d="M433,65.21a11.64,11.64,0,0,0,2.17-1.5,8.51,8.51,0,0,0,1.77-2l-2,1.71C434.29,64,433.62,64.59,433,65.21Z" style="fill:#263238"></path><path d="M445.16,67.28c.73-2.12-4.58-2.38-6.76-.17C438.4,67.11,444.13,70.28,445.16,67.28Z" style="fill:#455a64"></path><path d="M438.54,67.19a11.65,11.65,0,0,0,2.63.36,8.65,8.65,0,0,0,2.63-.26l-2.62-.08C440.3,67.18,439.43,67.15,438.54,67.19Z" style="fill:#263238"></path><path d="M447.16,78.92c1.95-1.11-1.86-4.82-5-4.61C442.2,74.31,444.4,80.48,447.16,78.92Z" style="fill:#455a64"></path><path d="M442.26,74.47a11.72,11.72,0,0,0,1.72,2A8.85,8.85,0,0,0,446.13,78l-1.91-1.8C443.58,75.63,443,75,442.26,74.47Z" style="fill:#263238"></path><path d="M443.67,90.06c2.25-.06.62-5.12-2.22-6.39C441.45,83.67,440.51,90.15,443.67,90.06Z" style="fill:#455a64"></path><path d="M441.43,83.84a11.35,11.35,0,0,0,.58,2.58,8.48,8.48,0,0,0,1.18,2.37l-.85-2.48C442.05,85.48,441.78,84.66,441.43,83.84Z" style="fill:#263238"></path><path d="M438.16,98.77c2.14.69,2.3-4.62,0-6.77C438.21,92,435.15,97.79,438.16,98.77Z" style="fill:#455a64"></path><path d="M438.13,92.15a11.74,11.74,0,0,0-.31,2.63,8.35,8.35,0,0,0,.31,2.63l0-2.63C438.17,93.91,438.19,93,438.13,92.15Z" style="fill:#263238"></path><path d="M432.13,103.12c1.7,1.48,3.94-3.33,2.72-6.2C434.85,96.92,429.75,101,432.13,103.12Z" style="fill:#455a64"></path><path d="M434.72,97a11.63,11.63,0,0,0-1.32,2.29,8.66,8.66,0,0,0-.76,2.54l1.07-2.4C434.06,98.66,434.42,97.87,434.72,97Z" style="fill:#263238"></path><path d="M421.28,104c.3,2.23,5.17.08,6.13-2.88C427.41,101.16,420.87,100.9,421.28,104Z" style="fill:#455a64"></path><path d="M427.24,101.16a12.08,12.08,0,0,0-2.5.85,8.56,8.56,0,0,0-2.24,1.41l2.38-1.1C425.67,102,426.47,101.59,427.24,101.16Z" style="fill:#263238"></path><path d="M436.25,72.34c2.18.54,2-4.77-.45-6.75C435.8,65.59,433.17,71.59,436.25,72.34Z" style="fill:#455a64"></path><path d="M435.74,65.75a11.67,11.67,0,0,0-.13,2.64,8.88,8.88,0,0,0,.5,2.6L436,68.37C435.9,67.5,435.86,66.63,435.74,65.75Z" style="fill:#263238"></path><path d="M437.41,76.76c1.53,1.64,4.26-2.91,3.34-5.89C440.75,70.87,435.26,74.43,437.41,76.76Z" style="fill:#455a64"></path><path d="M440.61,71a11.68,11.68,0,0,0-1.55,2.14,8.59,8.59,0,0,0-1,2.44l1.32-2.27C439.79,72.52,440.23,71.77,440.61,71Z" style="fill:#263238"></path><path d="M437.68,84c1.09,2,4.83-1.81,4.64-4.92C442.32,79.06,436.14,81.21,437.68,84Z" style="fill:#455a64"></path><path d="M442.17,79.12a11,11,0,0,0-2,1.71A8.63,8.63,0,0,0,438.58,83l1.82-1.89C441,80.43,441.6,79.81,442.17,79.12Z" style="fill:#263238"></path><path d="M434.06,90.13c.19,2.24,5.15.33,6.26-2.59C440.32,87.54,433.79,87,434.06,90.13Z" style="fill:#455a64"></path><path d="M440.15,87.53a12.32,12.32,0,0,0-2.54.73,9,9,0,0,0-2.31,1.31l2.44-1C438.54,88.25,439.35,87.93,440.15,87.53Z" style="fill:#263238"></path><path d="M430,95c-.38,2.22,4.9,1.63,6.71-.91C436.69,94.13,430.52,91.92,430,95Z" style="fill:#455a64"></path><path d="M436.53,94.08a11.74,11.74,0,0,0-2.65.06,8.82,8.82,0,0,0-2.56.68l2.6-.34C434.79,94.37,435.66,94.26,436.53,94.08Z" style="fill:#263238"></path><path d="M425.32,97.65c-1.23,1.88,3.85,3.44,6.52,1.84C431.84,99.49,427.06,95,425.32,97.65Z" style="fill:#455a64"></path><path d="M431.71,99.37a11.86,11.86,0,0,0-2.45-1,8.58,8.58,0,0,0-2.62-.4l2.53.73C430,99,430.84,99.19,431.71,99.37Z" style="fill:#263238"></path><path d="M420,93.51c-2.24.2-.3,5.15,2.62,6.24C422.6,99.75,423.14,93.22,420,93.51Z" style="fill:#455a64"></path><path d="M422.61,99.58a11.77,11.77,0,0,0-.75-2.54,9.06,9.06,0,0,0-1.31-2.3l1,2.43C421.88,98,422.21,98.79,422.61,99.58Z" style="fill:#263238"></path><path d="M432,65.48a6.87,6.87,0,0,1,6.72,1.76,13.43,13.43,0,0,1,3.6,6.27,18.17,18.17,0,0,1,.22,7.27,32.86,32.86,0,0,1-2,7,37.56,37.56,0,0,1-3.36,6.4,20.84,20.84,0,0,1-4.9,5.36,11,11,0,0,1-3.28,1.68,6.24,6.24,0,0,1-3.68,0,7.32,7.32,0,0,1-5.12-4.74,6.42,6.42,0,0,0,2.11,2.79,8.33,8.33,0,0,0,3.15,1.46,5.56,5.56,0,0,0,3.35-.14,9.88,9.88,0,0,0,3-1.68c3.63-2.94,6.05-7.18,7.81-11.52a31.45,31.45,0,0,0,2-6.73,18.61,18.61,0,0,0-.06-6.94,13,13,0,0,0-3.2-6.11,6.51,6.51,0,0,0-2.88-1.89A7.26,7.26,0,0,0,432,65.48Z" style="fill:#455a64"></path><path d="M420.55,69.48c1.14,2.28,5.57-1.81,5.51-5.35C426.06,64.13,418.94,66.26,420.55,69.48Z" style="fill:#455a64"></path><path d="M425.88,64.19A13.27,13.27,0,0,0,423.5,66a9.92,9.92,0,0,0-1.88,2.34l2.15-2.06C424.49,65.62,425.2,64.94,425.88,64.19Z" style="fill:#263238"></path><path d="M417,69.51c2,1.57,4.24-4,2.66-7.2C419.7,62.31,414.2,67.31,417,69.51Z" style="fill:#455a64"></path><path d="M419.56,62.44a13,13,0,0,0-1.35,2.69,10,10,0,0,0-.68,2.92l1.05-2.79C418.92,64.33,419.27,63.41,419.56,62.44Z" style="fill:#263238"></path><path d="M415.89,76.15c2.55,0,.8-5.8-2.4-7.29C413.49,68.86,412.3,76.19,415.89,76.15Z" style="fill:#455a64"></path><path d="M413.46,69.05a13.3,13.3,0,0,0,.62,2.93,9.82,9.82,0,0,0,1.28,2.72l-.91-2.84C414.14,70.92,413.84,70,413.46,69.05Z" style="fill:#263238"></path><path d="M416.84,85.15c2.3-1.1-1.72-5.59-5.25-5.6C411.59,79.55,413.6,86.71,416.84,85.15Z" style="fill:#455a64"></path><path d="M411.65,79.74a13.5,13.5,0,0,0,1.79,2.4,9.89,9.89,0,0,0,2.31,1.92l-2-2.19C413.05,81.15,412.38,80.42,411.65,79.74Z" style="fill:#263238"></path><path d="M418.21,94.79c2.3-1.1-1.71-5.6-5.25-5.6C413,89.19,415,96.35,418.21,94.79Z" style="fill:#455a64"></path><path d="M413,89.38a13.5,13.5,0,0,0,1.79,2.4,10.14,10.14,0,0,0,2.31,1.92l-2-2.19C414.43,90.79,413.76,90.06,413,89.38Z" style="fill:#263238"></path><path d="M419.84,105c2.3-1.1-1.71-5.6-5.25-5.6C414.59,99.36,416.6,106.51,419.84,105Z" style="fill:#455a64"></path><path d="M414.65,99.54a13.22,13.22,0,0,0,1.79,2.41,10.14,10.14,0,0,0,2.31,1.92l-2-2.19C416.06,101,415.39,100.23,414.65,99.54Z" style="fill:#263238"></path><path d="M418.73,116.82c2.52-.37,0-5.86-3.35-6.91C415.38,109.91,415.17,117.34,418.73,116.82Z" style="fill:#455a64"></path><path d="M415.38,110.1a12.87,12.87,0,0,0,1,2.83,10.17,10.17,0,0,0,1.63,2.52l-1.28-2.69C416.3,111.87,415.88,111,415.38,110.1Z" style="fill:#263238"></path><path d="M408.45,123.49c1.63,2,5-3,4.17-6.45C412.62,117,406.16,120.72,408.45,123.49Z" style="fill:#455a64"></path><path d="M412.46,117.14a12.76,12.76,0,0,0-1.9,2.32,9.71,9.71,0,0,0-1.31,2.71l1.63-2.49C411.42,118.85,412,118,412.46,117.14Z" style="fill:#263238"></path><path d="M419.29,57c-2.37.94,1.34,5.7,4.86,6C424.15,63,422.63,55.71,419.29,57Z" style="fill:#455a64"></path><path d="M424.11,62.8a13.58,13.58,0,0,0-1.63-2.52,10,10,0,0,0-2.17-2.08l1.87,2.32C422.8,61.29,423.42,62.06,424.11,62.8Z" style="fill:#263238"></path><path d="M409.07,66.67c.08,2.55,5.82.68,7.25-2.55C416.32,64.12,409,63.08,409.07,66.67Z" style="fill:#455a64"></path><path d="M416.12,64.1a13.3,13.3,0,0,0-2.92.67,10.1,10.1,0,0,0-2.69,1.34l2.82-1C414.26,64.82,415.2,64.5,416.12,64.1Z" style="fill:#263238"></path><path d="M406.91,79.63c1.24,2.23,5.49-2.06,5.27-5.58C412.18,74.05,405.16,76.49,406.91,79.63Z" style="fill:#455a64"></path><path d="M412,74.11a13.68,13.68,0,0,0-2.29,1.94,10.1,10.1,0,0,0-1.77,2.43L410,76.32C410.68,75.6,411.36,74.89,412,74.11Z" style="fill:#263238"></path><path d="M408.49,91.46c1.87,1.73,4.56-3.67,3.26-6.95C411.75,84.51,405.85,89,408.49,91.46Z" style="fill:#455a64"></path><path d="M411.6,84.63A13.42,13.42,0,0,0,410,87.19,9.82,9.82,0,0,0,409.1,90l1.28-2.69C410.81,86.46,411.23,85.57,411.6,84.63Z" style="fill:#263238"></path><path d="M410.25,101.39c1.88,1.73,4.56-3.67,3.26-7C413.51,94.44,407.61,99,410.25,101.39Z" style="fill:#455a64"></path><path d="M413.36,94.55a13.74,13.74,0,0,0-1.57,2.56,10.31,10.31,0,0,0-.93,2.86l1.28-2.69C412.57,96.39,413,95.49,413.36,94.55Z" style="fill:#263238"></path><path d="M410.78,110.2c1.6,2,5-3,4.23-6.41C415,103.79,408.51,107.4,410.78,110.2Z" style="fill:#455a64"></path><path d="M414.84,103.88a13.24,13.24,0,0,0-1.92,2.31,9.65,9.65,0,0,0-1.33,2.69l1.66-2.47C413.79,105.58,414.35,104.76,414.84,103.88Z" style="fill:#263238"></path><path d="M406.89,116.15c-.11,2.55,5.75,1.11,7.41-2C414.3,114.14,407,112.56,406.89,116.15Z" style="fill:#455a64"></path><path d="M414.11,114.11a13.5,13.5,0,0,0-3,.45,10.06,10.06,0,0,0-2.78,1.14l2.88-.76C412.2,114.69,413.16,114.44,414.11,114.11Z" style="fill:#263238"></path><path d="M400.14,112.11c-2.3,1.09,1.7,5.6,5.24,5.61C405.38,117.72,403.39,110.56,400.14,112.11Z" style="fill:#455a64"></path><path d="M405.32,117.54a12.77,12.77,0,0,0-1.79-2.41,9.92,9.92,0,0,0-2.3-1.93l2,2.2C403.92,116.12,404.59,116.85,405.32,117.54Z" style="fill:#263238"></path><path d="M427,65.56a9.6,9.6,0,0,0-4-3,5.63,5.63,0,0,0-4.76.35A8.9,8.9,0,0,0,415,66.5a21.16,21.16,0,0,0-1.78,4.66,35,35,0,0,0-1.1,9.93,88.56,88.56,0,0,0,1.53,10c.6,3.33,1.2,6.68,1.62,10.06a38.55,38.55,0,0,1,.18,10.24,10.89,10.89,0,0,1-1.83,4.87,6.25,6.25,0,0,1-4.45,2.59,7.34,7.34,0,0,1-4.88-1.53,8.84,8.84,0,0,1-3.07-4,9.15,9.15,0,0,0,3.22,3.8,7,7,0,0,0,4.68,1.25,5.7,5.7,0,0,0,4-2.48,10.07,10.07,0,0,0,1.58-4.6,41.09,41.09,0,0,0-.32-10c-.45-3.34-1.08-6.66-1.7-10a84.44,84.44,0,0,1-1.45-10.12A32.71,32.71,0,0,1,412.52,71a21.94,21.94,0,0,1,2-4.76,9.16,9.16,0,0,1,3.58-3.72,6,6,0,0,1,5.07-.17A9.31,9.31,0,0,1,427,65.56Z" style="fill:#455a64"></path></g><g id="freepik--Lamp--inject-3"><rect x="51" y="446.18" width="51.58" height="5.86" style="fill:#455a64"></rect><rect x="73.74" y="146.13" width="6.11" height="300.04" style="fill:#455a64"></rect><rect x="73.74" y="146.13" width="6.11" height="30.96" style="fill:#263238"></rect><polygon points="109.14 164.06 44.44 164.06 49.14 148.61 49.31 148.06 62.99 103.1 90.59 103.1 104.28 148.07 104.28 148.08 104.43 148.59 109.14 164.06" style="fill:#219015"></polygon><path d="M65.28,113.49a.44.44,0,0,1-.43.44.44.44,0,0,1-.44-.44.44.44,0,0,1,.44-.43A.43.43,0,0,1,65.28,113.49Zm7.53-.43a.43.43,0,0,0-.43.43.44.44,0,0,0,.43.44.44.44,0,0,0,.44-.44A.44.44,0,0,0,72.81,113.06Zm8,0a.44.44,0,0,0-.44.43.44.44,0,0,0,.44.44.44.44,0,0,0,.43-.44A.43.43,0,0,0,80.78,113.06Zm8,0a.44.44,0,0,0-.44.43.44.44,0,0,0,.44.44.44.44,0,0,0,.43-.44A.43.43,0,0,0,88.75,113.06Zm-19.92-5.58a.44.44,0,0,0-.44.43.44.44,0,0,0,.44.44.44.44,0,0,0,.43-.44A.43.43,0,0,0,68.83,107.48Zm8,0a.44.44,0,0,0-.44.43.44.44,0,0,0,.44.44.44.44,0,0,0,.43-.44A.43.43,0,0,0,76.8,107.48Zm8,0a.43.43,0,0,0-.43.43.44.44,0,0,0,.43.44.44.44,0,0,0,.44-.44A.44.44,0,0,0,84.76,107.48ZM56.88,124.64a.44.44,0,0,0-.44.44.44.44,0,0,0,.44.43.43.43,0,0,0,.43-.43A.44.44,0,0,0,56.88,124.64Zm8,0a.44.44,0,0,0-.44.44.44.44,0,0,0,.44.43.43.43,0,0,0,.43-.43A.44.44,0,0,0,64.85,124.64Zm8,0a.44.44,0,0,0-.43.44.43.43,0,0,0,.43.43.44.44,0,0,0,.44-.43A.44.44,0,0,0,72.81,124.64Zm8,0a.44.44,0,0,0-.44.44.44.44,0,0,0,.44.43.43.43,0,0,0,.43-.43A.44.44,0,0,0,80.78,124.64Zm8,0a.44.44,0,0,0-.44.44.44.44,0,0,0,.44.43.43.43,0,0,0,.43-.43A.44.44,0,0,0,88.75,124.64Zm8,0a.44.44,0,0,0-.43.44.43.43,0,0,0,.43.43.44.44,0,0,0,.44-.43A.44.44,0,0,0,96.71,124.64Zm-35.85-5.58a.44.44,0,0,0-.43.44.43.43,0,0,0,.43.43.44.44,0,0,0,.44-.43A.44.44,0,0,0,60.86,119.06Zm8,0a.44.44,0,0,0-.44.44.44.44,0,0,0,.44.43.43.43,0,0,0,.43-.43A.44.44,0,0,0,68.83,119.06Zm8,0a.44.44,0,0,0-.44.44.44.44,0,0,0,.44.43.43.43,0,0,0,.43-.43A.44.44,0,0,0,76.8,119.06Zm8,0a.44.44,0,0,0-.43.44.43.43,0,0,0,.43.43.44.44,0,0,0,.44-.43A.44.44,0,0,0,84.76,119.06Zm8,0a.44.44,0,0,0-.43.44.43.43,0,0,0,.43.43.44.44,0,0,0,.44-.43A.44.44,0,0,0,92.73,119.06ZM56.88,136.23a.44.44,0,0,0-.44.43.44.44,0,0,0,.44.44.44.44,0,0,0,.43-.44A.43.43,0,0,0,56.88,136.23Zm8,0a.44.44,0,0,0-.44.43.44.44,0,0,0,.44.44.44.44,0,0,0,.43-.44A.43.43,0,0,0,64.85,136.23Zm8,0a.43.43,0,0,0-.43.43.44.44,0,0,0,.43.44.44.44,0,0,0,.44-.44A.44.44,0,0,0,72.81,136.23Zm8,0a.44.44,0,0,0-.44.43.44.44,0,0,0,.44.44.44.44,0,0,0,.43-.44A.43.43,0,0,0,80.78,136.23Zm8,0a.44.44,0,0,0-.44.43.44.44,0,0,0,.44.44.44.44,0,0,0,.43-.44A.43.43,0,0,0,88.75,136.23Zm8,0a.43.43,0,0,0-.43.43.44.44,0,0,0,.43.44.44.44,0,0,0,.44-.44A.44.44,0,0,0,96.71,136.23Zm-35.85-5.58a.43.43,0,0,0-.43.43.44.44,0,0,0,.43.44.44.44,0,0,0,.44-.44A.44.44,0,0,0,60.86,130.65Zm8,0a.44.44,0,0,0-.44.43.44.44,0,0,0,.44.44.44.44,0,0,0,.43-.44A.43.43,0,0,0,68.83,130.65Zm8,0a.44.44,0,0,0-.44.43.44.44,0,0,0,.44.44.44.44,0,0,0,.43-.44A.43.43,0,0,0,76.8,130.65Zm8,0a.43.43,0,0,0-.43.43.44.44,0,0,0,.43.44.44.44,0,0,0,.44-.44A.44.44,0,0,0,84.76,130.65Zm8,0a.43.43,0,0,0-.43.43.44.44,0,0,0,.43.44.44.44,0,0,0,.44-.44A.44.44,0,0,0,92.73,130.65ZM49.31,148.06l-.17.55a.41.41,0,0,0,.21-.37A.39.39,0,0,0,49.31,148.06Zm7.57-.25a.44.44,0,0,0-.44.44.44.44,0,0,0,.44.43.43.43,0,0,0,.43-.43A.44.44,0,0,0,56.88,147.81Zm8,0a.44.44,0,0,0-.44.44.44.44,0,0,0,.44.43.43.43,0,0,0,.43-.43A.44.44,0,0,0,64.85,147.81Zm8,0a.44.44,0,0,0-.43.44.43.43,0,0,0,.43.43.44.44,0,0,0,.44-.43A.44.44,0,0,0,72.81,147.81Zm8,0a.44.44,0,0,0-.44.44.44.44,0,0,0,.44.43.43.43,0,0,0,.43-.43A.44.44,0,0,0,80.78,147.81Zm8,0a.44.44,0,0,0-.44.44.44.44,0,0,0,.44.43.43.43,0,0,0,.43-.43A.44.44,0,0,0,88.75,147.81Zm8,0a.44.44,0,0,0-.43.44.43.43,0,0,0,.43.43.44.44,0,0,0,.44-.43A.44.44,0,0,0,96.71,147.81Zm7.57.27a.41.41,0,0,0,0,.16.41.41,0,0,0,.18.35ZM52.9,142.23a.44.44,0,0,0-.44.44.44.44,0,0,0,.87,0A.44.44,0,0,0,52.9,142.23Zm8,0a.44.44,0,0,0-.43.44.43.43,0,0,0,.43.43.44.44,0,0,0,.44-.43A.44.44,0,0,0,60.86,142.23Zm8,0a.44.44,0,0,0-.44.44.44.44,0,0,0,.44.43.43.43,0,0,0,.43-.43A.44.44,0,0,0,68.83,142.23Zm8,0a.44.44,0,0,0-.44.44.44.44,0,0,0,.44.43.43.43,0,0,0,.43-.43A.44.44,0,0,0,76.8,142.23Zm8,0a.44.44,0,0,0-.43.44.43.43,0,0,0,.43.43.44.44,0,0,0,.44-.43A.44.44,0,0,0,84.76,142.23Zm8,0a.44.44,0,0,0-.43.44.43.43,0,0,0,.43.43.44.44,0,0,0,.44-.43A.44.44,0,0,0,92.73,142.23Zm8,0a.44.44,0,0,0-.44.44.44.44,0,0,0,.44.43.43.43,0,0,0,.43-.43A.44.44,0,0,0,100.7,142.23ZM48.91,159.4a.43.43,0,0,0-.43.43.44.44,0,0,0,.43.44.44.44,0,0,0,.44-.44A.44.44,0,0,0,48.91,159.4Zm8,0a.44.44,0,0,0-.44.43.44.44,0,0,0,.44.44.44.44,0,0,0,.43-.44A.43.43,0,0,0,56.88,159.4Zm8,0a.44.44,0,0,0-.44.43.44.44,0,0,0,.44.44.44.44,0,0,0,.43-.44A.43.43,0,0,0,64.85,159.4Zm8,0a.43.43,0,0,0-.43.43.44.44,0,0,0,.43.44.44.44,0,0,0,.44-.44A.44.44,0,0,0,72.81,159.4Zm8,0a.44.44,0,0,0-.44.43.44.44,0,0,0,.44.44.44.44,0,0,0,.43-.44A.43.43,0,0,0,80.78,159.4Zm8,0a.44.44,0,0,0-.44.43.44.44,0,0,0,.44.44.44.44,0,0,0,.43-.44A.43.43,0,0,0,88.75,159.4Zm8,0a.43.43,0,0,0-.43.43.44.44,0,0,0,.43.44.44.44,0,0,0,.44-.44A.44.44,0,0,0,96.71,159.4Zm8,0a.43.43,0,0,0-.43.43.44.44,0,0,0,.43.44.44.44,0,0,0,.44-.44A.44.44,0,0,0,104.68,159.4ZM52.9,153.82a.43.43,0,0,0-.44.43.44.44,0,1,0,.87,0A.43.43,0,0,0,52.9,153.82Zm8,0a.43.43,0,0,0-.43.43.44.44,0,0,0,.43.44.44.44,0,0,0,.44-.44A.44.44,0,0,0,60.86,153.82Zm8,0a.44.44,0,0,0-.44.43.44.44,0,0,0,.44.44.44.44,0,0,0,.43-.44A.43.43,0,0,0,68.83,153.82Zm8,0a.44.44,0,0,0-.44.43.44.44,0,0,0,.44.44.44.44,0,0,0,.43-.44A.43.43,0,0,0,76.8,153.82Zm8,0a.43.43,0,0,0-.43.43.44.44,0,0,0,.43.44.44.44,0,0,0,.44-.44A.44.44,0,0,0,84.76,153.82Zm8,0a.43.43,0,0,0-.43.43.44.44,0,0,0,.43.44.44.44,0,0,0,.44-.44A.44.44,0,0,0,92.73,153.82Zm8,0a.44.44,0,0,0-.44.43.44.44,0,0,0,.44.44.44.44,0,0,0,.43-.44A.43.43,0,0,0,100.7,153.82Z" style="fill:#fff"></path></g><g id="freepik--Sofa--inject-3"><rect x="100.43" y="254.92" width="300.82" height="156.18" style="fill:#dbdbdb"></rect><rect x="61.22" y="308.2" width="39.21" height="102.9" style="fill:#dbdbdb"></rect><rect x="401.25" y="308.2" width="39.21" height="102.9" style="fill:#dbdbdb"></rect><rect x="250.37" y="254.92" width="0.93" height="109.72" style="fill:#c7c7c7"></rect><rect x="99.97" y="308.2" width="0.93" height="102.9" style="fill:#c7c7c7"></rect><rect x="400.78" y="308.2" width="0.93" height="102.9" style="fill:#c7c7c7"></rect><path d="M251.32,364.64H100V332.73H251.32Zm-150.4-1H250.36v-30H100.92Z" style="fill:#c7c7c7"></path><path d="M401.71,364.64H250.36V332.73H401.71Zm-150.39-1H400.76v-30H251.32Z" style="fill:#c7c7c7"></path><path d="M110.66,292a.65.65,0,0,0,0,1.3A.65.65,0,0,0,110.66,292Z" style="fill:#a6a6a6"></path><path d="M111.77,371.48a.65.65,0,0,0,0,1.29A.65.65,0,0,0,111.77,371.48Z" style="fill:#a6a6a6"></path><path d="M149,359.07a.93.93,0,0,0-.1-.2.29.29,0,0,0-.5,0l-.1.2C147.93,359.84,149.37,359.84,149,359.07Z" style="fill:#a6a6a6"></path><path d="M84.18,373.11a1.14,1.14,0,0,0-.1-.19.29.29,0,0,0-.5,0,.69.69,0,0,0-.1.19C83.11,373.88,84.55,373.88,84.18,373.11Z" style="fill:#a6a6a6"></path><path d="M116.24,296a.5.5,0,0,0,0,1A.5.5,0,0,0,116.24,296Z" style="fill:#a6a6a6"></path><path d="M319,312.15a.5.5,0,0,0,0,1A.5.5,0,0,0,319,312.15Z" style="fill:#a6a6a6"></path><path d="M74.53,346.35a.5.5,0,0,0,0,1A.5.5,0,0,0,74.53,346.35Z" style="fill:#a6a6a6"></path><path d="M139.65,268.31a.7.7,0,0,0-1,0,1,1,0,0,0-.23.94.75.75,0,0,0,1.44,0A1,1,0,0,0,139.65,268.31Z" style="fill:#a6a6a6"></path><path d="M117.21,367.8a.7.7,0,0,0-1,0,1,1,0,0,0-.24.94.75.75,0,0,0,1.44,0A1,1,0,0,0,117.21,367.8Z" style="fill:#a6a6a6"></path><path d="M374,373.2a.65.65,0,0,0,0-1.3A.65.65,0,0,0,374,373.2Z" style="fill:#a6a6a6"></path><path d="M239.35,374.5a.65.65,0,0,0,0-1.3A.65.65,0,0,0,239.35,374.5Z" style="fill:#a6a6a6"></path><path d="M370.28,270a.65.65,0,0,0,0-1.3A.65.65,0,0,0,370.28,270Z" style="fill:#a6a6a6"></path><path d="M207.07,287.81a.65.65,0,0,0,0-1.29A.65.65,0,0,0,207.07,287.81Z" style="fill:#a6a6a6"></path><path d="M326.11,306.16a1.14,1.14,0,0,0,.1.19.29.29,0,0,0,.5,0,1.14,1.14,0,0,0,.1-.19C327.18,305.39,325.74,305.39,326.11,306.16Z" style="fill:#a6a6a6"></path><path d="M267.53,368.37l.1.19a.3.3,0,0,0,.51,0l.1-.19C268.61,367.6,267.16,367.6,267.53,368.37Z" style="fill:#a6a6a6"></path><path d="M423,356.61a1.24,1.24,0,0,0,.1.2.29.29,0,0,0,.5,0,1.28,1.28,0,0,0,.11-.2C424.09,355.85,422.65,355.85,423,356.61Z" style="fill:#a6a6a6"></path><path d="M368.44,369.24a.5.5,0,0,0,0-1A.5.5,0,0,0,368.44,369.24Z" style="fill:#a6a6a6"></path><path d="M410.15,318.88a.5.5,0,0,0,0-1A.5.5,0,0,0,410.15,318.88Z" style="fill:#a6a6a6"></path><path d="M413.68,385.4a.5.5,0,0,0,0-1A.5.5,0,0,0,413.68,385.4Z" style="fill:#a6a6a6"></path><path d="M335.46,396.91a.68.68,0,0,0,1,0,1,1,0,0,0,.23-.93.75.75,0,0,0-1.44,0A.94.94,0,0,0,335.46,396.91Z" style="fill:#a6a6a6"></path><path d="M367.47,297.43a.7.7,0,0,0,1,0,1,1,0,0,0,.24-.94.75.75,0,0,0-1.44,0A1,1,0,0,0,367.47,297.43Z" style="fill:#a6a6a6"></path><path d="M187.26,329.24a.68.68,0,0,0,1,0,1,1,0,0,0,.23-.93.75.75,0,0,0-1.44,0A.94.94,0,0,0,187.26,329.24Z" style="fill:#a6a6a6"></path><path d="M426.88,350.16a.7.7,0,0,0,1,0,1,1,0,0,0,.23-.94.75.75,0,0,0-1.44,0A1,1,0,0,0,426.88,350.16Z" style="fill:#a6a6a6"></path><path d="M100.9,364a330.35,330.35,0,0,0,74.69,8.94,360.64,360.64,0,0,0,75.72-8.55Z" style="fill:#c7c7c7"></path><path d="M250.84,364a330.35,330.35,0,0,0,74.69,8.94,360.64,360.64,0,0,0,75.72-8.55Z" style="fill:#c7c7c7"></path><rect x="61.22" y="402.05" width="379.25" height="9.05" style="fill:#37474f"></rect><polygon points="113.75 411.1 103.78 431.52 93.76 452.04 85.04 452.04 88.28 431.52 91.5 411.1 113.75 411.1" style="fill:#37474f"></polygon><polygon points="91.5 411.1 113.75 411.1 107.7 423.48 89.55 423.48 91.5 411.1" style="fill:#263238"></polygon><polygon points="412.91 452.04 404.19 452.04 394.17 431.52 384.2 411.1 406.45 411.1 409.67 431.52 412.91 452.04" style="fill:#37474f"></polygon><polygon points="408.4 423.48 390.24 423.48 384.2 411.1 406.44 411.1 408.4 423.48" style="fill:#263238"></polygon></g><g id="freepik--Cushion--inject-3"><path d="M98,334.86c1.41.56-1.87,6.64.08,6.45s7-3.95,7.61-3.92,4.31,1.71,15.66-.85,41.68-6.2,54.3-9.4a104.49,104.49,0,0,0,24.78-10.33c1.59-.87,5.79-.23,6.85-.67s-3.68-2.88-4.35-5.2c-5.35-18.59-20.26-29.45-28.58-40.22s-13.66-26.41-17.65-30.17,1.19,1.56,0,0,1.77-4.9.8-6-5,3-6.6,3.08-23.42,6.26-30.63,10-29,3.79-32.93,4.7c-1.65.38-7.26-2.43-8.44-.16s2.56,5.07,2.72,6.74.48,22.29,1.18,31.93C84.53,314.5,95.38,333.81,98,334.86Z" style="fill:#219015"></path><path d="M98,334.86c1.41.56-1.87,6.64.08,6.45s7-3.95,7.61-3.92,4.31,1.71,15.66-.85,41.68-6.2,54.3-9.4a104.49,104.49,0,0,0,24.78-10.33c1.59-.87,5.79-.23,6.85-.67s-3.68-2.88-4.35-5.2c-5.35-18.59-20.26-29.45-28.58-40.22s-13.66-26.41-17.65-30.17,1.19,1.56,0,0,1.77-4.9.8-6-5,3-6.6,3.08-23.42,6.26-30.63,10-29,3.79-32.93,4.7c-1.65.38-7.26-2.43-8.44-.16s2.56,5.07,2.72,6.74.48,22.29,1.18,31.93C84.53,314.5,95.38,333.81,98,334.86Z" style="fill:#fff;opacity:0.6000000000000001"></path><path d="M136.47,241.59a1.71,1.71,0,0,1-1.52,1.5,1.77,1.77,0,0,1-1.44-.56C134.5,242.21,135.49,241.89,136.47,241.59Zm13.8-3.42a1.7,1.7,0,1,0,1.85,1.53A1.7,1.7,0,0,0,150.27,238.17Zm-29,26.63a1.69,1.69,0,1,0,1.85,1.52A1.69,1.69,0,0,0,121.28,264.8Zm15.65-1.54a1.69,1.69,0,1,0,1.85,1.52A1.69,1.69,0,0,0,136.93,263.26Zm15.65-1.54a1.69,1.69,0,1,0,1.85,1.52A1.69,1.69,0,0,0,152.58,261.72Zm15.14-1.4a1.69,1.69,0,0,0,.85,3.23,1.55,1.55,0,0,0,.81-.31C168.81,262.27,168.25,261.3,167.72,260.32Zm-55.44-6.72a1.7,1.7,0,1,0,1.85,1.52A1.69,1.69,0,0,0,112.28,253.6Zm15.65-1.53a1.69,1.69,0,1,0,1.85,1.52A1.69,1.69,0,0,0,127.93,252.07Zm15.65-1.54a1.69,1.69,0,1,0,1.85,1.52A1.69,1.69,0,0,0,143.58,250.53ZM159.23,249a1.69,1.69,0,1,0,1.85,1.52A1.69,1.69,0,0,0,159.23,249Zm-35.64,39.35a1.7,1.7,0,0,0,.33,3.38,1.7,1.7,0,0,0-.33-3.38Zm15.65-1.53a1.69,1.69,0,1,0,1.86,1.52A1.69,1.69,0,0,0,139.24,286.81Zm15.66-1.54a1.69,1.69,0,1,0,1.85,1.52A1.69,1.69,0,0,0,154.9,285.27Zm15.65-1.54a1.69,1.69,0,1,0,1.85,1.52A1.69,1.69,0,0,0,170.55,283.73Zm14.59-1a1.65,1.65,0,0,0-.46,1.32,1.69,1.69,0,0,0,1.85,1.53,1.77,1.77,0,0,0,.88-.36C186.65,284.36,185.89,283.53,185.14,282.72Zm-70.55-5.57a1.69,1.69,0,1,0,1.85,1.52A1.69,1.69,0,0,0,114.59,277.15Zm15.65-1.54a1.7,1.7,0,1,0,1.85,1.52A1.69,1.69,0,0,0,130.24,275.61Zm15.65-1.54a1.7,1.7,0,1,0,1.86,1.52A1.7,1.7,0,0,0,145.89,274.07Zm15.66-1.53a1.69,1.69,0,1,0,1.85,1.52A1.69,1.69,0,0,0,161.55,272.54Zm14.15-.16a1.49,1.49,0,0,0,0,.47,1.69,1.69,0,0,0,1.73,1.52C176.82,273.71,176.24,273,175.7,272.38Zm-49.79,39.51a1.69,1.69,0,1,0,1.85,1.52A1.69,1.69,0,0,0,125.91,311.89Zm15.65-1.54a1.7,1.7,0,1,0,1.85,1.52A1.69,1.69,0,0,0,141.56,310.35Zm15.65-1.54a1.7,1.7,0,1,0,1.85,1.52A1.7,1.7,0,0,0,157.21,308.81Zm15.65-1.53a1.69,1.69,0,1,0,1.85,1.52A1.69,1.69,0,0,0,172.86,307.28Zm15.65-1.54a1.69,1.69,0,1,0,1.86,1.52A1.69,1.69,0,0,0,188.51,305.74Zm-71.61-5a1.69,1.69,0,1,0,1.86,1.52A1.69,1.69,0,0,0,116.9,300.7Zm15.66-1.54a1.69,1.69,0,1,0,1.85,1.52A1.69,1.69,0,0,0,132.56,299.16Zm15.65-1.54a1.69,1.69,0,1,0,1.85,1.52A1.69,1.69,0,0,0,148.21,297.62Zm15.65-1.54a1.69,1.69,0,1,0,1.85,1.52A1.69,1.69,0,0,0,163.86,296.08Zm15.65-1.54a1.7,1.7,0,1,0,1.85,1.52A1.7,1.7,0,0,0,179.51,294.54Zm14.65-1.07a1.69,1.69,0,0,0,1.33,2.91,1.57,1.57,0,0,0,.57-.17C195.45,295.28,194.82,294.36,194.16,293.47ZM97.78,338.66c-.37,1.45-.61,2.74.31,2.65l.31-.06h0a1.65,1.65,0,0,0,.36-1.21A1.68,1.68,0,0,0,97.78,338.66ZM112.57,337a1.65,1.65,0,0,0-1.36,1c.86,0,1.84-.08,3-.19A1.65,1.65,0,0,0,112.57,337Zm6.65-12.74a1.7,1.7,0,1,0,1.85,1.52A1.7,1.7,0,0,0,119.22,324.24Zm15.65-1.54a1.7,1.7,0,1,0,1.85,1.53A1.71,1.71,0,0,0,134.87,322.7Zm15.65-1.53a1.69,1.69,0,1,0,1.86,1.52A1.69,1.69,0,0,0,150.52,321.17Zm15.65-1.54a1.69,1.69,0,1,0,1.86,1.52A1.69,1.69,0,0,0,166.17,319.63Zm15.66-1.54a1.69,1.69,0,1,0,1.85,1.52A1.68,1.68,0,0,0,181.83,318.09Zm15.65-1.54A1.69,1.69,0,0,0,196,318.4a1.62,1.62,0,0,0,.24.72c1.22-.63,2.23-1.18,3-1.6A1.69,1.69,0,0,0,197.48,316.55ZM90,267.88a1.67,1.67,0,0,0-1.33.88c.36.78.73,1.6,1.1,2.45a2.09,2.09,0,0,0,.56,0,1.71,1.71,0,0,0,1.52-1.86A1.69,1.69,0,0,0,90,267.88Zm15.64-1.54a1.69,1.69,0,1,0,1.86,1.52A1.7,1.7,0,0,0,105.62,266.34ZM81,256.68a1.58,1.58,0,0,0-.43.1,5.21,5.21,0,0,1,1.09,2.05c0,.18,0,.57.05,1.14a1.69,1.69,0,0,0-.71-3.29Zm15.65-1.54a1.7,1.7,0,1,0,1.86,1.53A1.7,1.7,0,0,0,96.62,255.14Zm11.32,34.74a1.7,1.7,0,1,0,1.85,1.52A1.7,1.7,0,0,0,107.94,289.88Zm-24.65-9.65a1.73,1.73,0,0,0-1,.44h0c0,.86.07,1.71.11,2.55h0a1.68,1.68,0,0,0,1.21.36,1.51,1.51,0,0,0,.56-.16c-.06-1.06-.11-2.09-.15-3.12A1.66,1.66,0,0,0,83.29,280.23Zm15.65-1.54a1.69,1.69,0,1,0,1.85,1.52A1.69,1.69,0,0,0,98.94,278.69Zm11.31,34.74a1.69,1.69,0,1,0,.34,3.37,1.69,1.69,0,0,0-.34-3.37ZM85.6,303.77a1.78,1.78,0,0,0-.85.34c.21,1,.45,2,.7,3a1.33,1.33,0,0,0,.49,0,1.68,1.68,0,0,0,1.51-1.85A1.7,1.7,0,0,0,85.6,303.77Zm15.65-1.53a1.54,1.54,0,0,0-.48.12c.37,1,.75,2.11,1.1,3.19a1.69,1.69,0,0,0-.62-3.31ZM104.62,326a15.09,15.09,0,0,1-1,3.13h.3a1.69,1.69,0,0,0,.72-3.13Z" style="fill:#fff"></path><path d="M84.33,259.76s10,19.65,11.81,29.49c1.3,7.25,15.5,32.18,5.21,43.34,0,0-10.08-10.6-14.73-30.85C82.38,283.32,84.33,259.76,84.33,259.76Z" style="fill:#219015"></path><g style="opacity:0.6000000000000001"><path d="M139.73,273.07c-7.28,1.72-22-15.79-26.23-16.49-3.56-.58-8.94-3.55-12.27-5.52,7.22-.59,15.2-1.54,19-3.51,3.5-1.8,10.48-4.2,16.89-6.19a7.76,7.76,0,0,1,1.88,1.61c4.76,5.7,4.9,11.88,3.35,15S147,271.36,139.73,273.07Z" style="fill:#219015"></path><path d="M116.86,269.71c1.89-3.45,21,6.23,18.77,8.73s-15.9,3.51-17.08-.1S116,271.22,116.86,269.71Z" style="fill:#219015"></path></g></g><g id="freepik--Character--inject-3"><circle cx="41.98" cy="300.36" r="2.66" style="fill:#fff"></circle><path d="M158,230.81c11.92,17.78,30.11,37.6,35.51,39.89,6.84,2.88,37.9-4.45,39.62-4.91,4.25-1.15,2-28.78-2.62-27.75-7,1.58-27,8-29,7.1s-17.16-9.91-33.16-20.41C157.34,217.47,150.61,219.78,158,230.81Z" style="fill:#d3766a"></path><path d="M233.14,265.79a84.34,84.34,0,0,0,12,.45c3.13-.26,12.11-1.25,12.17-4.72,0-2.37-5.31-2.41-9.09-2.52-2-.06-4.8-1.05-4.71-2.35.14-2.27,5.31-2,8.86-1.44,6.88,1.12,16.62,4.14,19,0,.88-1.58-1.38-3-4.32-4.05,4.44.88,9,1.26,10-.45a2,2,0,0,0-.56-2.72,2.69,2.69,0,0,0,2.6-1.49c.7-1.66-.55-3.24-2.53-4.6a1.49,1.49,0,0,0,.79-1.1c1-4.7-15.43-10.78-20.08-10.16a116,116,0,0,0-26.7,7.42C227.09,243.87,233.13,265.79,233.14,265.79Z" style="fill:#d3766a"></path><path d="M247.18,247.19a22.89,22.89,0,0,1,9.61,0c4,.89,7,2.54,10.65,4,.09,0,0,.19-.06.15-1.72-.69-8.68-3.1-10.43-3.58a21.76,21.76,0,0,0-9.76-.53S247.15,247.19,247.18,247.19Z" style="fill:#263238"></path><path d="M247.49,241a54.25,54.25,0,0,1,11-.35c4,.43,7.69,2.21,11.29,3.9,2.16,1,4.3,2.08,6.42,3.2.09.05,0,.19-.06.15q-5.51-2.66-11.18-5a28.75,28.75,0,0,0-11-2.21c-2.16,0-4.32.17-6.47.34C247.46,241,247.45,241,247.49,241Z" style="fill:#263238"></path><path d="M249.23,235c3.46-.56,6.47-1.07,10-.43a48.73,48.73,0,0,1,11.51,4.15q3,1.45,5.86,3c.07,0,0,.18-.08.14a115.64,115.64,0,0,0-13.48-6,22.48,22.48,0,0,0-6.82-1.46,40.33,40.33,0,0,0-6.94.53S249.22,235,249.23,235Z" style="fill:#263238"></path><path d="M228.92,237.16l2.14,36.14s-30.56,2.66-37.67-.85-27.12-28-35-40.55-.93-14.84,8.67-8.68,33.25,20.92,34.3,21S228.92,237.16,228.92,237.16Z" style="fill:#219015"></path><path d="M222.94,260c-.22-4.27-.4-8.55-.78-12.81-.21-2.43-.42-4.85-.65-7.27,0-.1-.17-.09-.17,0,0,4.3.11,8.61.36,12.9s.46,8.55.76,12.82c.17,2.43.41,4.84.73,7.26,0,.05.09.05.09,0C223.37,268.57,223.17,264.28,222.94,260Z" style="fill:#263238"></path><path d="M210,274.27c-7,0-13.69-.4-16.57-1.82-7.11-3.51-27.11-28-35-40.55-3.87-6.13-4.18-9.81-2.37-11.26C172.29,236.42,195.79,260.31,210,274.27Z" style="opacity:0.1"></path><path d="M193.82,281.46l-63.39,22.65c-.31-1.34-2-42.54,1.16-58.75,4-20.78,8.24-23.49,10.73-25.23,3.18-2.21,9.63-3.27,11.31-3,1.91.34,9.81,8.29,13.6,14.66C174.82,244.62,194.46,280.39,193.82,281.46Z" style="fill:#219015"></path><path d="M160.9,394.63c.42-2.7,34.54-68.67,37.43-70.37,1.09-.64,3.1-2.78,14.9,2.89L233.1,304,252,344.26l-52.78,32s-24.36,19.41-27.73,20.93S160.48,397.33,160.9,394.63Z" style="fill:#eb9481"></path><path d="M160.9,394.63c.42-2.7,34.54-68.67,37.43-70.37,1.09-.64,3.1-2.78,14.9,2.89L233.1,304,252,344.26l-52.78,32s-24.36,19.41-27.73,20.93S160.48,397.33,160.9,394.63Z" style="fill:#d3766a"></path><path d="M220.76,363.24l-21.5,13.05s-24.36,19.41-27.73,20.93-11.05.11-10.62-2.59,34.53-68.67,37.42-70.37c1.09-.65,3.09-2.78,14.9,2.88l2.1-2.45Z" style="fill:#219015"></path><path d="M215.75,364.12a15.63,15.63,0,0,1,3.88-4.78,13.79,13.79,0,0,1-1.7,2.59A13.28,13.28,0,0,1,215.75,364.12Z" style="fill:#263238"></path><path d="M215.13,360.13a13.71,13.71,0,0,1,1.7-2.58,13.28,13.28,0,0,1,2.18-2.19,15.44,15.44,0,0,1-3.88,4.77Z" style="fill:#263238"></path><path d="M214.51,356.14a15.6,15.6,0,0,1,3.87-4.77,13.67,13.67,0,0,1-1.69,2.58A14.11,14.11,0,0,1,214.51,356.14Z" style="fill:#263238"></path><path d="M213.89,352.16a15.11,15.11,0,0,1,3.87-4.78,13.24,13.24,0,0,1-1.7,2.58A14.1,14.1,0,0,1,213.89,352.16Z" style="fill:#263238"></path><path d="M213.26,348.17a13.71,13.71,0,0,1,1.7-2.58,13,13,0,0,1,2.18-2.2,15.63,15.63,0,0,1-3.88,4.78Z" style="fill:#263238"></path><path d="M212.64,344.18a15.63,15.63,0,0,1,3.88-4.78,14.12,14.12,0,0,1-1.7,2.59A13.28,13.28,0,0,1,212.64,344.18Z" style="fill:#263238"></path><path d="M212,340.19a15.6,15.6,0,0,1,3.87-4.77A13.19,13.19,0,0,1,214.2,338,14.11,14.11,0,0,1,212,340.19Z" style="fill:#263238"></path><path d="M211.4,336.2a15.6,15.6,0,0,1,3.87-4.77,13.24,13.24,0,0,1-1.7,2.58A13.62,13.62,0,0,1,211.4,336.2Z" style="fill:#263238"></path><path d="M210.78,332.22a15.11,15.11,0,0,1,3.87-4.78A13.71,13.71,0,0,1,213,330,14.1,14.1,0,0,1,210.78,332.22Z" style="fill:#263238"></path><path d="M320.45,287.54C316.28,307.49,226.77,365,226.77,365l-23.44-48,41.28-25.06-95.12-.29,45-24.56s9.57,2.52,16-.36c2.83-1.28,64.35-19,77-17.69C315.33,251.82,324.29,269.23,320.45,287.54Z" style="fill:#37474f"></path><path d="M264.88,277.24a48.91,48.91,0,0,0-5,3.42c-1.74,1.21-3.49,2.4-5.22,3.61l0,0c.36-.4.73-.8,1.1-1.19,1.28-1.35,2.43-2.8,3.83-4,.08-.07,0-.2-.12-.13-1.42,1.21-3,2.3-4.28,3.63-.62.63-1.22,1.28-1.8,1.94-.32.36-.64.73-.94,1.1a4.69,4.69,0,0,0-.42.55c-.79.56-1.57,1.14-2.34,1.73-1.7,1.31-3.3,2.76-5,4.05-.1.07,0,.2.11.13,1.7-1.18,3.51-2.22,5.22-3.39s3.44-2.44,5.12-3.72,3.27-2.5,4.91-3.75a49.26,49.26,0,0,0,5-3.87A.07.07,0,0,0,264.88,277.24Z" style="fill:#263238"></path><path d="M230.31,352.13c-.61-1.37-1.24-2.74-1.87-4.1q-1.89-4.11-3.8-8.19c-2.55-5.41-5.1-10.83-7.77-16.18-1.51-3-3-6.08-4.66-9a.15.15,0,0,0-.27.13c2.27,5.56,4.89,11,7.49,16.42s5.23,10.77,7.89,16.13c.74,1.51,1.48,3,2.25,4.5s1.63,3,2.41,4.54c0,.07.15,0,.11-.06C231.47,354.91,230.93,353.51,230.31,352.13Z" style="fill:#263238"></path><path d="M417.46,313.31c-2,1.89-69.16,33.55-72.48,33.14-1.26-.15-4.15.33-10.08-11.35-1.29-2.52-55.22-12.13-55.22-12.13L326,289.67l49.9,14.9s31.15-.62,34.75.23S419.44,311.42,417.46,313.31Z" style="fill:#d3766a"></path><path d="M417.46,313.3c-2,1.9-69.15,33.56-72.49,33.15-1.25-.15-4.14.33-10.07-11.35-.36-.69-4.64-1.9-10.69-3.31l42-30.1,9.62,2.88s31.14-.61,34.74.22S419.43,311.42,417.46,313.3Z" style="fill:#219015"></path><path d="M327.59,331.08a15.51,15.51,0,0,1,6,1.44,12.9,12.9,0,0,1-3.06-.42A13.5,13.5,0,0,1,327.59,331.08Z" style="fill:#263238"></path><path d="M330.92,328.8a14,14,0,0,1,3.06.43,13,13,0,0,1,2.92,1,15.28,15.28,0,0,1-6-1.45Z" style="fill:#263238"></path><path d="M334.26,326.53a15.4,15.4,0,0,1,6,1.44,13.6,13.6,0,0,1-3.06-.42A14,14,0,0,1,334.26,326.53Z" style="fill:#263238"></path><path d="M337.59,324.25a15.51,15.51,0,0,1,6,1.44,13.06,13.06,0,0,1-3.07-.42A13.61,13.61,0,0,1,337.59,324.25Z" style="fill:#263238"></path><path d="M340.92,322a13.52,13.52,0,0,1,3.06.43,13,13,0,0,1,2.92,1,14.19,14.19,0,0,1-3.06-.42A13.54,13.54,0,0,1,340.92,322Z" style="fill:#263238"></path><path d="M344.25,319.7a15.39,15.39,0,0,1,6,1.44,13.6,13.6,0,0,1-3.06-.42A14.27,14.27,0,0,1,344.25,319.7Z" style="fill:#263238"></path><path d="M347.59,317.42a13.6,13.6,0,0,1,3.06.42,14,14,0,0,1,2.91,1,15.4,15.4,0,0,1-6-1.44Z" style="fill:#263238"></path><path d="M350.92,315.14a13.6,13.6,0,0,1,3.06.43,13,13,0,0,1,2.92,1,14,14,0,0,1-3.06-.42A13.54,13.54,0,0,1,350.92,315.14Z" style="fill:#263238"></path><path d="M354.25,312.87a15.51,15.51,0,0,1,6,1.44,13.6,13.6,0,0,1-3.06-.42A14.27,14.27,0,0,1,354.25,312.87Z" style="fill:#263238"></path><path d="M357.59,310.59a13.6,13.6,0,0,1,3.06.42,14.18,14.18,0,0,1,2.91,1,15.4,15.4,0,0,1-6-1.44Z" style="fill:#263238"></path><path d="M360.92,308.31a13.6,13.6,0,0,1,3.06.43,13.16,13.16,0,0,1,2.92,1,14,14,0,0,1-3.06-.42A13.54,13.54,0,0,1,360.92,308.31Z" style="fill:#263238"></path><path d="M364.25,306a15.51,15.51,0,0,1,6,1.44,13.6,13.6,0,0,1-3.06-.42A14.06,14.06,0,0,1,364.25,306Z" style="fill:#263238"></path><path d="M367.59,303.76a13.6,13.6,0,0,1,3.06.42,14.18,14.18,0,0,1,2.91,1,13.6,13.6,0,0,1-3.06-.42A13.42,13.42,0,0,1,367.59,303.76Z" style="fill:#263238"></path><path d="M355.29,296.67,312.1,332,219,312s-16.18,16.71-35.2,23.19c-13,4.41-32.82,3.61-41.78-9.06-9.25-13.09-9.55-22.85-9.55-22.85l14.24-9.1s32.16-30.79,54.26-36.34C234.68,249.35,355.29,296.67,355.29,296.67Z" style="fill:#37474f"></path><path d="M158.81,283.38c-2,1.61-3.9,3.31-5.85,5s-3.92,3.16-5.73,4.91-3.58,3.66-5.29,5.55c-.83.92-1.66,1.84-2.45,2.78a24.07,24.07,0,0,0-2.32,2.93c-.06.1.08.2.16.14a28.37,28.37,0,0,0,2.64-2.5l2.74-2.71c1.76-1.75,3.57-3.45,5.33-5.19s3.34-3.62,5.07-5.37,3.81-3.65,5.75-5.44C158.89,283.41,158.85,283.35,158.81,283.38Z" style="fill:#263238"></path><path d="M219,312a112.09,112.09,0,0,1-12.08,10.39L182.26,299.2Z" style="fill:#263238"></path><path d="M340.34,294.24c-1.3.93-2.54,2-3.78,2.95s-2.46,1.95-3.68,2.94c-2.49,2-4.95,4.08-7.42,6.14-4.95,4.12-9.84,8.3-14.74,12.48-2.74,2.34-5.44,4.73-8.16,7.09-.05,0,0,.13.07.09,5-3.95,10-7.91,14.94-11.94s9.95-8.2,14.82-12.41c1.36-1.17,2.69-2.36,4-3.55s2.74-2.4,4-3.68C340.49,294.3,340.41,294.19,340.34,294.24Z" style="fill:#263238"></path><path d="M328.85,286.82c-1.44-.78-30.9-11.46-37.19-13.57s-12.62-4.08-19-5.9-12.77-3.47-19.24-4.86a194.82,194.82,0,0,0-19.34-3.32c-.83-.1-1.66-.19-2.49-.31-.08,0-.08.12,0,.13,3.31.45,6.58,1.14,9.85,1.78s6.44,1.32,9.64,2.06c6.41,1.47,12.77,3.14,19.09,5s12.57,3.81,18.8,5.9,12.5,4.3,18.71,6.55c3.11,1.12,20.25,6.66,21.05,6.84C328.88,287.12,329,286.9,328.85,286.82Z" style="fill:#263238"></path><path d="M282.42,325.66c-3.7-.82-7.43-1.52-11.15-2.25s-48.1-10.9-52.34-11.34c-.09,0-.13.11,0,.13,3.66.92,23.35,6,30.64,7.81,7.58,1.85,28.6,5.35,32.82,5.9C282.52,325.93,282.59,325.7,282.42,325.66Z" style="fill:#263238"></path><path d="M213.42,243.6s13.88-6.4,13.88-15-18-14.1-18-20.8,7.86-10.64,7.86-10.64-12.41,4.24-12.41,12.71,11.87,14.22,13,19.61C219.33,237,213.42,243.6,213.42,243.6Z" style="fill:#dbdbdb;opacity:0.6000000000000001"></path><path d="M214.1,243.6s-13.88-5-13.88-11.77,18-11.08,18-16.35-7.86-8.37-7.86-8.37,12.41,3.33,12.41,10-13.64,11.25-14.61,16.66S214.1,243.6,214.1,243.6Z" style="fill:#dbdbdb;opacity:0.6000000000000001"></path><rect x="206.96" y="265.16" width="13.21" height="2.06" style="fill:#dbdbdb"></rect><rect x="206.96" y="265.16" width="13.21" height="1.36" style="fill:#c7c7c7"></rect><path d="M191.28,259.61a7.47,7.47,0,0,0,7.44,3.18,6.93,6.93,0,0,0,1.34-.38,9.62,9.62,0,0,0,1.87-1l-1.68-2.49a5.59,5.59,0,0,1-1,.56,4.38,4.38,0,0,1-5.53-1.62c-1.81-2.54-2.46-8.35-.62-10.59.12-.16.65-.43,2.77,0,.4.09.84.18,1.35.32a5.13,5.13,0,0,0,1.2.26l.06-1.49.14-1.49c-.13,0-.35-.09-.63-.17a20.38,20.38,0,0,0-3-.62c-1.56-.16-3.21,0-4.21,1.26C187.81,249,189,256.42,191.28,259.61Z" style="fill:#dbdbdb"></path><path d="M200.25,258.94a5.59,5.59,0,0,1-1,.56l.8,2.91a9.62,9.62,0,0,0,1.87-1Z" style="fill:#c7c7c7"></path><path d="M195,244.13l.88,3.19c.4.09.84.18,1.35.32a5.13,5.13,0,0,0,1.2.26l.06-1.49.14-1.49c-.13,0-.35-.09-.63-.17A20.38,20.38,0,0,0,195,244.13Z" style="fill:#c7c7c7"></path><path d="M231.13,240.24s-1.58,13.46-4.32,19.13-6.56,6.29-8.93,6.29h-8.63c-2.38,0-6.2-.63-8.93-6.29S196,240.24,196,240.24Z" style="fill:#dbdbdb"></path><path d="M201.73,244.08a1.56,1.56,0,1,1-1.55-1.56A1.55,1.55,0,0,1,201.73,244.08Zm12.21-1.88a1.56,1.56,0,1,0,1.56,1.56A1.56,1.56,0,0,0,213.94,242.2Zm0,19.58a1.56,1.56,0,1,0,1.56,1.56A1.56,1.56,0,0,0,213.94,261.78ZM225.25,253a1.56,1.56,0,1,0,1.56,1.56A1.56,1.56,0,0,0,225.25,253Zm-17.34,4.61a1.56,1.56,0,1,0,1.56,1.56A1.56,1.56,0,0,0,207.91,257.56Zm18.32-15.36a1.56,1.56,0,1,0,1.56,1.56A1.56,1.56,0,0,0,226.23,242.2Zm-12.48,10.51a1.56,1.56,0,1,0,1.56,1.55A1.55,1.55,0,0,0,213.75,252.71Zm-11.82.24a1.56,1.56,0,1,0,1.56,1.56A1.56,1.56,0,0,0,201.93,253Zm18.24-5.22a1.56,1.56,0,1,0,1.56,1.56A1.56,1.56,0,0,0,220.17,247.73Zm-.43,10.08a1.56,1.56,0,1,0,1.56,1.56A1.56,1.56,0,0,0,219.74,257.81Zm-12.56-10.08a1.56,1.56,0,1,0,1.56,1.56A1.56,1.56,0,0,0,207.18,247.73Z" style="fill:#fff"></path><path d="M131.09,229.14C112,249.7,96.32,282.29,104.81,289.58c8.31,7.12,40.32.23,52.24-7.09,2.85-1.75-7-26.55-10.32-25.14-4.57,2-12.83,5.55-13.26,5.52-.93-.05,7.88-21.58,10.92-32.43C148.63,215.33,138.27,221.42,131.09,229.14Z" style="fill:#d3766a"></path><path d="M114.34,277a25,25,0,0,1,3-3.66,30.5,30.5,0,0,1,3.41-3.22,51.94,51.94,0,0,1,12.9-7.39,0,0,0,1,1,0,.08,135.63,135.63,0,0,0-12,7.45,46,46,0,0,0-3.49,3.06c-.65.6-1.28,1.22-1.9,1.85s-1.18,1.31-1.81,1.93C114.4,277.18,114.29,277.1,114.34,277Z" style="fill:#263238"></path><path d="M145.54,257.92s9.8-4.72,16.36-7.51c3.66-1.56,10.17-3.67,13.38-3.58,4.8.13,24.8,3.74,24,8.6-.69,4.41-7.23,2.11-7.23,2.11s7.38,1.85,5.34,6-10.27.38-10.27.38,8,1.41,5.37,5.64c-2.25,3.68-12.19.3-12.19.3s8.52.57,6.58,4.56c-2.14,4.4-17.68,1.22-17.68,1.22-8.16,8.59-14.61,10.27-19.09,10C148.89,285.58,145.54,257.92,145.54,257.92Z" style="fill:#d3766a"></path><path d="M189.49,264.61l-2-.8a35.59,35.59,0,0,0-3.9-1.42c-1.31-.36-2.62-.66-3.95-.93s-2.84-.42-4.23-.73a.08.08,0,1,0,0,.15,36.27,36.27,0,0,1,4.08,1.13c1.33.39,2.65.81,4,1.22s2.6.72,3.9,1.08c.65.19,1.29.4,1.93.61a11.75,11.75,0,0,0,1.83.57.06.06,0,0,0,0-.11A8.86,8.86,0,0,0,189.49,264.61Z" style="fill:#263238"></path><path d="M193.61,258a55.35,55.35,0,0,0-7.19-2.8,38.65,38.65,0,0,0-7.6-1.46.08.08,0,0,0,0,.16c2.48.74,5,1.45,7.45,2.16,1.22.34,6.69,2.08,7.28,2.19C193.67,258.24,193.72,258,193.61,258Z" style="fill:#263238"></path><path d="M185.78,271a54.07,54.07,0,0,0-6.82-2.51,50.7,50.7,0,0,0-7.37-.9c-.09,0-.12.14,0,.16,2.43.48,4.85.92,7.25,1.53,1.17.29,5.76,1.72,6.9,1.91A.11.11,0,0,0,185.78,271Z" style="fill:#263238"></path><path d="M141.06,257l13.75,28.43s-17.92,7.69-32.8,10.06c-7.35,1.16-14.46-1.07-17.7-4.49-9.81-10.33,14.32-50.24,25-61.14s20.16-14.46,14.64,4.34-8.81,26.5-8.81,26.5Z" style="fill:#219015"></path><path d="M149.4,285.67c-.38-.82-.7-1.67-1.1-2.49s-.78-1.58-1.19-2.37c-.82-1.59-1.66-3.18-2.5-4.76-1.67-3.18-3.37-6.35-5.16-9.46l-1.52-2.65a19.9,19.9,0,0,0-1.53-2.5.06.06,0,0,0-.1.06,19.21,19.21,0,0,0,1.13,2.49l1.17,2.37c.8,1.6,1.62,3.2,2.45,4.78,1.64,3.13,3.3,6.26,5,9.36.49.89,1,1.78,1.5,2.66s1.1,1.73,1.64,2.61A.12.12,0,0,0,149.4,285.67Z" style="fill:#263238"></path><path d="M115.94,275a25.73,25.73,0,0,1,3-3.65,30.69,30.69,0,0,1,3.42-3.23,51.49,51.49,0,0,1,12.9-7.38s.08.05,0,.08a132.64,132.64,0,0,0-12,7.44c-1.22.95-2.36,2-3.49,3.06-.64.61-1.28,1.22-1.89,1.86s-1.19,1.31-1.82,1.92A.08.08,0,0,1,115.94,275Z" style="fill:#263238"></path><path d="M141.67,257.9a3.81,3.81,0,0,0-.62-1.16,59.38,59.38,0,0,0-5.64,3.75c.56-1.2,1.1-2.53,1.57-3.77s1-2.72,1.51-4.09c.79-2.17,1.57-4.37,2.26-6.58.63-1.1,1.2-2.23,1.76-3.36a0,0,0,0,0-.07,0c-.46.77-.93,1.55-1.37,2.34.07-.21.13-.41.19-.62.46-1.59.94-3.19,1.32-4.8,0-.06-.07-.08-.09,0-2,5.42-3.74,11-5.69,16.43-.55,1.53-1.68,4.84-1.67,4.84s5.62-3.59,5.78-3.64a6.85,6.85,0,0,1,.61.78C141.57,258,141.7,258,141.67,257.9Z" style="fill:#263238"></path><path d="M153.21,281.74c-.14-.21-.3-.11-.18.12.62,1.16,1.11,2.3,1.66,3.45-4.53,1.63-9.07,3.24-13.66,4.7s-9.41,2.94-14.2,4.1c-11.41,2.76-16.51-.07-17.9-.05-.05,0,0,.06,0,.08,1,.45,6.12,3.17,16.88.88,4.82-1,16.81-4.72,21.5-6.35,2.64-.91,5.57-1.91,8.12-3A28.81,28.81,0,0,0,153.21,281.74Z" style="fill:#263238"></path><path d="M157.63,232c-3.74,1.23-10.79-4-13.78-8.52-.21-.31,0-3.77,0-8,0-2.55,0-5.4-.25-8,0-.54,16.61,2.54,16.61,2.54a41.38,41.38,0,0,0-.71,10.09,6.65,6.65,0,0,0,.2,1.06,1.46,1.46,0,0,1,0,.17C160.29,223.38,161.23,230.83,157.63,232Z" style="fill:#d3766a"></path><path d="M144.64,207.51c1.14,4.32,4.79,14.67,13.48,14.12a9.88,9.88,0,0,0,1.66-.24.43.43,0,0,0,0-.17,7,7,0,0,1-.2-1.05,41.54,41.54,0,0,1,.71-10.11S148.23,207.85,144.64,207.51Z" style="fill:#263238"></path><path d="M141.16,187c-1.88,5.75.86,22.53,4.9,26.34,5.87,5.52,15.63,6.22,20.36-.86,4.59-6.87.63-28.68-3.9-32.16C155.84,175.23,143.93,178.52,141.16,187Z" style="fill:#d3766a"></path><path d="M154.11,194.79a14.29,14.29,0,0,0,1.46-.4,2.38,2.38,0,0,0,1.42-.68.8.8,0,0,0-.05-1,1.92,1.92,0,0,0-1.93-.34,2.8,2.8,0,0,0-1.73,1.1A.83.83,0,0,0,154.11,194.79Z" style="fill:#263238"></path><path d="M166.12,193.5a12.62,12.62,0,0,1-1.51-.1,2.48,2.48,0,0,1-1.53-.4.8.8,0,0,1-.13-.95,1.94,1.94,0,0,1,1.83-.71,2.86,2.86,0,0,1,1.91.75A.83.83,0,0,1,166.12,193.5Z" style="fill:#263238"></path><path d="M157.22,208.13c.3.24.61.58,1,.57a2.91,2.91,0,0,0,1.2-.41,0,0,0,0,1,.05.06,1.54,1.54,0,0,1-1.38.76,1.22,1.22,0,0,1-1-.92C157.09,208.13,157.17,208.09,157.22,208.13Z" style="fill:#263238"></path><path d="M158.07,204.6a4,4,0,0,0,2.77,1.47,5.07,5.07,0,0,0,1.4-.08,1.1,1.1,0,0,0,.26-.06l.25-.06a.28.28,0,0,0,.2-.28h0s0-.07,0-.11h0l0-.1c-.06-.88-.28-2.21-.28-2.21.34.13,2.05.7,2,.25a58.86,58.86,0,0,0-2.68-11.59.11.11,0,0,0-.21.05c.44,3.64,1.52,7.19,2,10.85a6.5,6.5,0,0,0-1.89-.37c-.12,0,.47,2.55.46,2.95,0,0,0,0,0,0a5.38,5.38,0,0,1-4.14-.85C158.08,204.43,158,204.51,158.07,204.6Z" style="fill:#263238"></path><path d="M157.63,198.65a1.62,1.62,0,0,1-.08.86,1.16,1.16,0,0,1-.69.63,1,1,0,0,1-.93-.14,1.78,1.78,0,0,1-.55-.65,2.14,2.14,0,0,1-.2-.47,2.22,2.22,0,0,1-.12-1,3.41,3.41,0,0,0,.29.71,5,5,0,0,0,.36.6c.29.38.66.65,1,.51s.53-.49.53-1a7,7,0,0,0-.2-1.47A3.3,3.3,0,0,1,157.63,198.65Z" style="fill:#263238"></path><path d="M163.84,197.73a1.63,1.63,0,0,0,.41.76,1.18,1.18,0,0,0,.88.33,1.07,1.07,0,0,0,.81-.5,1.92,1.92,0,0,0,.26-.81,4.34,4.34,0,0,0,0-.51,2.33,2.33,0,0,0-.3-1,4,4,0,0,1,0,.77,4.83,4.83,0,0,1-.11.68c-.11.46-.35.86-.71.86s-.68-.25-.86-.7a7.47,7.47,0,0,1-.39-1.43A3.42,3.42,0,0,0,163.84,197.73Z" style="fill:#263238"></path><path d="M142.47,202.77c3.11-.54,2-8.14,2-8.14s4.67-1.39,6.28-8.19c0,0,6.56,3.18,11.6,1.67,7.9-2.36,6.52-12.81,3.26-14.61-4.61-2.55-11.74,2.7-11.74,2.7s-11.88-1.93-14.45,6.25a6,6,0,0,0-4.84,6.51C134.82,194.68,140.16,203.16,142.47,202.77Z" style="fill:#263238"></path><path d="M143.41,195.65a10.64,10.64,0,0,0,5.66-4,8,8,0,0,0,1.05-7.26c-.05-.12.16-.2.2-.06a9.16,9.16,0,0,1-.43,7.79,7.44,7.44,0,0,1-6.44,3.72C143.33,195.88,143.27,195.69,143.41,195.65Z" style="fill:#263238"></path><path d="M133.76,185.68c1.36-2.19,3.76-2.78,6.16-3,.14,0,.15.22,0,.22a6.7,6.7,0,0,0-5.6,3.89c-1,2-.46,4.38.26,6.41a16.9,16.9,0,0,0,7.79,9.24,0,0,0,1,1,0,.09,16.83,16.83,0,0,1-8.72-10.09C133,190.33,132.51,187.7,133.76,185.68Z" style="fill:#263238"></path><path d="M153.56,176.61a7.93,7.93,0,0,1,4.05-3.88,9.51,9.51,0,0,1,6.77-.06,5.36,5.36,0,0,1,3.29,4.22,9.5,9.5,0,0,1-1.45,6.18,0,0,0,1,1-.08,0,9.44,9.44,0,0,0,1-5.59,4.91,4.91,0,0,0-3.36-4c-3.47-1.1-8.28-.32-10.07,3.28A.11.11,0,0,1,153.56,176.61Z" style="fill:#263238"></path><path d="M144.47,200.72s-3.79-5.4-6.24-4.05.4,9.19,3.28,10.26a2.94,2.94,0,0,0,3.93-1.58Z" style="fill:#d3766a"></path><path d="M139.1,198.9s0,.06,0,.07c2,.82,3.09,2.69,3.83,4.63a1.63,1.63,0,0,0-2.42-.44c-.05,0,0,.12.06.11a1.8,1.8,0,0,1,2,.63,8.33,8.33,0,0,1,1,1.6c.1.18.42.09.35-.12v0C143.88,202.75,141.87,199.15,139.1,198.9Z" style="fill:#263238"></path></g><g id="freepik--Dog--inject-3"><path d="M416.86,402.87s13.17-6.73,22,2.51,8,25.54,3.94,42.18c0,0-.17-25.53-9.59-36.19-8.59-9.71-16.8-6.29-16.8-6.29Z" style="fill:#219015"></path><path d="M416.86,402.87s13.17-6.73,22,2.51,8,25.54,3.94,42.18c0,0-.17-25.53-9.59-36.19-8.59-9.71-16.8-6.29-16.8-6.29Z" style="opacity:0.2"></path><path d="M285.17,431.85c-2.92,2,2.36,15.43,12.91,18.73,6.66,2.09,63.82,0,75.63,0h66.58c4.25,0-4-32.82-13.22-43.44s-28.65-15.35-37.38-12.51S359.94,420.36,351,420.36c-7.56,0-14.49-7.55-23.3-9.76-6-1.5-13.54,1.73-16.84,6s-9.45,12.68-13.7,14.56S286.9,430.67,285.17,431.85Z" style="fill:#219015"></path><path d="M285.17,431.85c-2.92,2,2.36,15.43,12.91,18.73,6.66,2.09,63.82,0,75.63,0h66.58c4.25,0-4-32.82-13.22-43.44s-28.65-15.35-37.38-12.51S359.94,420.36,351,420.36c-7.56,0-14.49-7.55-23.3-9.76-6-1.5-13.54,1.73-16.84,6s-9.45,12.68-13.7,14.56S286.9,430.67,285.17,431.85Z" style="opacity:0.2"></path><path d="M373,452.27a7.19,7.19,0,0,0,1.32.08l.92,0,2.1,0h.85c15.47.11,60.6-.13,62.65-.13,2.46,0-2.44-20.31-19.43-35.55a28.07,28.07,0,0,0-5.86-4h0c-7-3.63-16.48-5.19-22.94,1-8.57,8.24-1,30.46-1.81,30.79s-8.73-2.31-12.69-1c-2.29.76-3.6,3.45-4.31,5.65C373.28,450.78,373.06,452.1,373,452.27Z" style="fill:#219015"></path><path d="M373,452.27a7.19,7.19,0,0,0,1.32.08l.92,0,2.1,0h.85c15.47.11,60.6-.13,62.65-.13,2.46,0-2.44-20.31-19.43-35.55a28.07,28.07,0,0,0-5.86-4h0c-7-3.63-16.48-5.19-22.94,1-8.57,8.24-1,30.46-1.81,30.79s-8.73-2.31-12.69-1c-2.29.76-3.6,3.45-4.31,5.65C373.28,450.78,373.06,452.1,373,452.27Z" style="opacity:0.2"></path><path d="M373.7,449c1-3.06,2.26-5.42,5.64-6.22s7.88,0,11.12,1.46A65.81,65.81,0,0,1,387.29,428c-.17-4.42.27-10,3.21-13.53,2.72-3.29,7.65-4.61,11.74-5a23.37,23.37,0,0,1,2.78-.05l0,0a12.57,12.57,0,0,1,7.5.47s0,.1,0,.09a33,33,0,0,0-4-.14,20.05,20.05,0,0,1,7,2.66c.09.05,0,.22-.08.18A26.36,26.36,0,0,0,403,410.55c-4.22.39-9.75,1.9-12.11,5.7s-2.48,9.17-2.16,13.52a108.45,108.45,0,0,0,2.81,15.37c.09.43-5.73-1.71-9.86-1.65a8.57,8.57,0,0,0-4.83,1.55,10.15,10.15,0,0,0-3,4.08C373.77,449.32,373.63,449.18,373.7,449Z" style="fill:#263238"></path><path d="M377.34,452.39h.85c.06-.34.13-.67.22-1a15.07,15.07,0,0,1,.87-2.26.1.1,0,0,0-.16-.12A5.94,5.94,0,0,0,377.34,452.39Z" style="fill:#263238"></path><path d="M374.32,452.35l.92,0a7.52,7.52,0,0,1,.17-.85,14.62,14.62,0,0,1,.91-2.33c.05-.11-.09-.23-.18-.14A7.17,7.17,0,0,0,374.32,452.35Z" style="fill:#263238"></path><path d="M347.73,451c1.19-.59,11.84-17,.17-31.27-1.06-1.3,3.28-1.94,4.25-1.42s13.34,13.11,1.77,32.55Z" style="fill:#219015"></path><path d="M313,452.39h50.1c8,0,9.71-24.48-1.78-21.42,0,0-14.14,10-23,11.87s-16.56,1.25-20.17,2.67S311.76,452.39,313,452.39Z" style="fill:#219015"></path><path d="M313,452.39h50.1c8,0,9.71-24.48-1.78-21.42,0,0-14.14,10-23,11.87s-16.56,1.25-20.17,2.67S311.76,452.39,313,452.39Z" style="opacity:0.2"></path><path d="M321.35,444.71c5.43-.81,10.87-1.06,16.24-2.33a49,49,0,0,0,15-6.05c3.65-2.3,7.08-6,11.71-5.48.11,0,.12.18,0,.18-4.72,0-8.49,4.48-12.29,6.76a47.25,47.25,0,0,1-12.07,5A76.63,76.63,0,0,1,327.3,445c-4.9.48-11.36.17-13.94,5.35-.1.18-.23.07-.15-.13C314.6,446.67,317.78,445.24,321.35,444.71Z" style="fill:#263238"></path><path d="M316.49,452.39h.86a8.33,8.33,0,0,1,.22-1,16.23,16.23,0,0,1,.87-2.26.1.1,0,0,0-.16-.12A6,6,0,0,0,316.49,452.39Z" style="fill:#263238"></path><path d="M314,452.39h.92a5,5,0,0,1,.18-.87,12.9,12.9,0,0,1,.9-2.33.12.12,0,0,0-.18-.14A7.22,7.22,0,0,0,314,452.39Z" style="fill:#263238"></path><path d="M334.69,416.11c1.94,1.14,7.66,10.23,11.86,12.71s12.86,5,13,11.92-14.95,14.38-22.24,9.7-10.63-17.13-10.39-21.72S329.87,413.26,334.69,416.11Z" style="fill:#219015"></path><path d="M334.69,416.11c1.94,1.14,7.66,10.23,11.86,12.71s12.86,5,13,11.92-14.95,14.38-22.24,9.7-10.63-17.13-10.39-21.72S329.87,413.26,334.69,416.11Z" style="opacity:0.4"></path><g style="opacity:0.2"><path d="M294.84,444.74v-.17a.37.37,0,0,1,.68-.18l.08.15C295.93,445.13,294.85,445.42,294.84,444.74Z"></path><path d="M298.55,446.18V446a.36.36,0,0,1,.67-.18l.08.15C299.63,446.57,298.55,446.85,298.55,446.18Z"></path><path d="M297.5,442.88v-.17a.37.37,0,0,1,.68-.18l.08.15C298.58,443.27,297.5,443.56,297.5,442.88Z"></path><path d="M301.41,443v-.17a.37.37,0,0,1,.68-.18l.08.15C302.49,443.4,301.41,443.69,301.41,443Z"></path><path d="M300.17,439.93v-.17a.36.36,0,0,1,.67-.18l.09.15C301.26,440.32,300.17,440.61,300.17,439.93Z"></path></g><path d="M295.09,434.06c.71,2.91-6.85,6.6-8.66,6.41s-4-7.41-1.78-9.28C286.08,430,294.64,432.24,295.09,434.06Z" style="fill:#263238"></path><path d="M313.07,435.12a2.88,2.88,0,0,1-1.07,1.1,2.08,2.08,0,0,1-1.66.11,1.91,1.91,0,0,1-1.13-1.24,3.37,3.37,0,0,1,0-1.51,6.25,6.25,0,0,1,.26-.87,4.16,4.16,0,0,1,1-1.58,6.28,6.28,0,0,0-.4,1.3,7.68,7.68,0,0,0-.16,1.23c0,.84.17,1.63.79,1.82a1.62,1.62,0,0,0,1.81-.77,13,13,0,0,0,1.37-2.24A5.8,5.8,0,0,1,313.07,435.12Z" style="fill:#263238"></path></g></svg>